<svg width="55" height="55" viewBox="0 0 55 55" fill="none" xmlns="http://www.w3.org/2000/svg">
<circle cx="27.5" cy="27.5" r="27.5" fill="white"/>
<path d="M26.498 35.2813C26.498 35.8335 26.9458 36.2813 27.498 36.2812C28.0503 36.2812 28.498 35.8335 28.498 35.2812L27.498 35.2812L26.498 35.2813ZM28.2052 19.0178C27.8146 18.6273 27.1815 18.6273 26.7909 19.0178L20.427 25.3818C20.0365 25.7723 20.0365 26.4054 20.427 26.796C20.8175 27.1865 21.4507 27.1865 21.8412 26.796L27.498 21.1391L33.1549 26.796C33.5454 27.1865 34.1786 27.1865 34.5691 26.796C34.9596 26.4054 34.9596 25.7723 34.5691 25.3818L28.2052 19.0178ZM27.498 35.2812L28.498 35.2812L28.498 19.7249L27.498 19.7249L26.498 19.7249L26.498 35.2813L27.498 35.2812Z" fill="black"/>
</svg>
