<svg width="26" height="26" viewBox="0 0 26 26" fill="none" xmlns="http://www.w3.org/2000/svg">
  <path d="M5.84326 5.84326C6.20589 5.48063 6.79383 5.48063 7.15646 5.84326L12.9999 11.6859L18.8433 5.84326C19.178 5.50853 19.7047 5.48278 20.069 5.76601L20.1565 5.84326C20.5191 6.20589 20.5191 6.79383 20.1565 7.15646L14.3138 12.9999L20.1565 18.8433C20.4912 19.178 20.5169 19.7047 20.2337 20.069L20.1565 20.1565C19.7938 20.5191 19.2059 20.5191 18.8433 20.1565L12.9999 14.3138L7.15646 20.1565C6.82172 20.4912 6.29501 20.5169 5.93074 20.2337L5.84326 20.1565C5.48063 19.7938 5.48063 19.2059 5.84326 18.8433L11.6859 12.9999L5.84326 7.15646C5.50853 6.82172 5.48278 6.29501 5.76601 5.93074L5.84326 5.84326Z" fill="#94A3B7" />
</svg>