<svg width="56" height="56" viewBox="0 0 56 56" fill="none" xmlns="http://www.w3.org/2000/svg">
  <path opacity="0.5" d="M32.5 51.75H51.5V32.25" stroke="#0A459E" stroke-width="2" />
  <path opacity="0.5" d="M23.5 51.75H4.5V32.25" stroke="#0A459E" stroke-width="2" />
  <path opacity="0.5" d="M23.5 4.25H4.5V23.75" stroke="#0A459E" stroke-width="2" />
  <path opacity="0.5" d="M32.5 4.25H51.5V23.75" stroke="#0A459E" stroke-width="2" />
  <path d="M32.7932 18.1584L35.1932 19.4178C37.7753 20.7728 39.0662 21.4503 39.7831 22.6677C40.5 23.8851 40.5 25.4 40.5 28.4298V28.5702C40.5 31.6 40.5 33.115 39.7831 34.3324C39.0662 35.5498 37.7753 36.2272 35.1932 37.5822L32.7932 38.8416C30.6865 39.9472 29.6332 40.5 28.5 40.5C27.3668 40.5 26.3135 39.9472 24.2067 38.8416L21.8067 37.5822C19.2248 36.2272 17.9337 35.5498 17.2169 34.3324C16.5 33.115 16.5 31.6 16.5 28.5702V28.4298C16.5 25.4 16.5 23.8851 17.2169 22.6677C17.9337 21.4503 19.2248 20.7728 21.8067 19.4178L24.2067 18.1584C26.3135 17.0528 27.3668 16.5 28.5 16.5C29.6332 16.5 30.6865 17.0528 32.7932 18.1584Z" stroke="#155288" stroke-width="2" stroke-linecap="round" />
  <path d="M39.2992 23.1001L28.4992 28.5001M28.4992 28.5001L17.6992 23.1001M28.4992 28.5001V39.9001" stroke="#155288" stroke-width="2" stroke-linecap="round" />
</svg>