<svg width="56" height="56" viewBox="0 0 56 56" fill="none" xmlns="http://www.w3.org/2000/svg">
  <path opacity="0.5" d="M32.5 51.75H51.5V32.25" stroke="#0A459E" stroke-width="2" />
  <path opacity="0.5" d="M23.5 51.75H4.5V32.25" stroke="#0A459E" stroke-width="2" />
  <path opacity="0.5" d="M23.5 4.25H4.5V23.75" stroke="#0A459E" stroke-width="2" />
  <path opacity="0.5" d="M32.5 4.25H51.5V23.75" stroke="#0A459E" stroke-width="2" />
  <path d="M30.4375 15.5059C31.6981 15.5822 32.8022 16.3781 33.2734 17.5498L33.3838 17.8623L33.4199 17.9697C33.4412 18.0337 33.4463 18.0487 33.4502 18.0596C33.597 18.4653 34.1098 18.8355 34.666 18.8496H34.6709L36.7012 18.9492H36.7148C37.6112 19.0545 38.4055 19.2826 39.082 19.833C39.3144 20.0221 39.5268 20.2345 39.7158 20.4668C40.2662 21.1433 40.4933 21.9377 40.5986 22.834C40.6999 23.6964 40.7002 24.7766 40.7002 26.0947V26.1826C40.7002 26.4961 40.7005 26.8042 40.6738 27.0664C40.6441 27.3599 40.5737 27.6875 40.375 28.0068C40.3118 28.1086 40.2403 28.2052 40.1611 28.2949C39.9834 28.4963 39.7816 28.6337 39.582 28.7383C39.578 30.5013 39.5538 32.2865 39.3945 33.8232C39.299 34.744 39.1514 35.6172 38.915 36.3672C38.6832 37.1024 38.3339 37.8239 37.7647 38.3301C36.8015 39.1861 35.5971 39.5546 34.1348 39.7295C32.7027 39.9005 30.872 39.9004 28.5576 39.9004H28.4424C26.1279 39.9004 24.2973 39.9005 22.8652 39.7295C21.4029 39.5546 20.1984 39.1861 19.2354 38.3301C18.6661 37.8239 18.3167 37.1024 18.085 36.3672C17.8486 35.6172 17.7009 34.744 17.6055 33.8232C17.4462 32.2865 17.4211 30.5013 17.417 28.7383C17.2177 28.6337 17.0164 28.496 16.8389 28.2949C16.7597 28.2052 16.6883 28.1086 16.625 28.0068C16.4264 27.6875 16.3559 27.3599 16.3262 27.0664C16.2996 26.8042 16.2998 26.4962 16.2998 26.1826V26.0947C16.2998 24.7765 16.3 23.6964 16.4014 22.834C16.5067 21.9377 16.7338 21.1433 17.2842 20.4668C17.4732 20.2345 17.6856 20.0221 17.918 19.833C18.5945 19.2826 19.3888 19.0555 20.2852 18.9502L20.2988 18.9482L22.3291 18.8496H22.334C22.8905 18.8355 23.403 18.466 23.5498 18.0606C23.5538 18.0494 23.5594 18.0346 23.5811 17.9697L23.6094 17.8838L23.6162 17.8623C23.6557 17.7438 23.6891 17.6442 23.7266 17.5508C24.1977 16.3789 25.3018 15.5824 26.5625 15.5059C26.663 15.4998 26.7685 15.5 26.8936 15.5H30.1064C30.2314 15.5 30.337 15.4998 30.4375 15.5059ZM32.3281 30.9834V31.2295C32.3281 31.8817 31.9309 32.4687 31.3252 32.7109L30.5439 33.0234C29.2322 33.5482 27.7679 33.5482 26.4561 33.0234L25.6748 32.7109C25.0691 32.4687 24.6719 31.8817 24.6719 31.2295V30.9834L19.4951 29.4307C19.5051 30.9357 19.5405 32.3703 19.6689 33.6094C19.7574 34.4622 19.8862 35.1816 20.0635 35.7441C20.2454 36.3213 20.4481 36.6326 20.6143 36.7803C21.1225 37.2319 21.8382 37.5178 23.1113 37.6699C24.4033 37.8242 26.1059 37.8262 28.5 37.8262C30.8941 37.8262 32.5967 37.8242 33.8887 37.6699C35.1618 37.5178 35.8775 37.2319 36.3857 36.7803C36.5519 36.6326 36.7545 36.3213 36.9365 35.7441C37.1138 35.1816 37.2427 34.4622 37.3311 33.6094C37.4596 32.3703 37.4939 30.9357 37.5039 29.4307L32.3281 30.9834ZM26.7461 30.9043L27.2266 31.0967C28.0438 31.4236 28.9562 31.4236 29.7734 31.0967L30.2539 30.9043V29.2959H26.7461V30.9043ZM23.5557 20.9238C22.1862 20.9239 21.2443 20.9265 20.5273 21.0107C19.8255 21.0932 19.4743 21.2416 19.2275 21.4424C19.105 21.5421 18.9922 21.6539 18.8926 21.7764C18.6919 22.0232 18.5434 22.3746 18.4609 23.0762C18.3758 23.8007 18.374 24.7547 18.374 26.1475C18.374 26.5158 18.3761 26.7145 18.3906 26.8574C18.3908 26.8587 18.3905 26.8601 18.3906 26.8613L24.6719 28.8145C24.673 27.9343 25.3872 27.2207 26.2676 27.2207H30.7324C31.6135 27.2207 32.3281 27.9353 32.3281 28.8164L37.877 27.1533C38.2298 27.0475 38.4202 26.9886 38.5527 26.9336L38.6016 26.9102C38.6037 26.8966 38.6071 26.8794 38.6094 26.8574L38.6231 26.5869C38.6252 26.4733 38.626 26.3316 38.626 26.1475C38.626 24.7547 38.6242 23.8007 38.5391 23.0762C38.4566 22.3746 38.308 22.0232 38.1074 21.7764C38.0078 21.6539 37.895 21.5421 37.7725 21.4424C37.5257 21.2416 37.1744 21.0932 36.4727 21.0107C35.7557 20.9265 34.8138 20.9239 33.4443 20.9238H23.5557ZM26.6885 17.5772C26.2275 17.6051 25.8236 17.8958 25.6514 18.3242C25.6408 18.3507 25.6286 18.3856 25.5772 18.54L25.5459 18.6348C25.5294 18.6843 25.5153 18.7261 25.501 18.7656C25.4909 18.7936 25.4787 18.8211 25.4678 18.8486H31.5332C31.5223 18.8211 31.5101 18.7936 31.5 18.7656L31.4551 18.6348L31.4229 18.54C31.3716 18.3861 31.3593 18.3508 31.3486 18.3242C31.1764 17.8959 30.7733 17.6052 30.3125 17.5772C30.284 17.5754 30.2471 17.5742 30.084 17.5742H26.916C26.7536 17.5742 26.7168 17.5754 26.6885 17.5772Z" fill="#155288" />
</svg>