<svg width="56" height="56" viewBox="0 0 56 56" fill="none" xmlns="http://www.w3.org/2000/svg">
  <path opacity="0.5" d="M32.5 51.75H51.5V32.25" stroke="#0A459E" stroke-width="2" />
  <path opacity="0.5" d="M23.5 51.75H4.5V32.25" stroke="#0A459E" stroke-width="2" />
  <path opacity="0.5" d="M23.5 4.25H4.5V23.75" stroke="#0A459E" stroke-width="2" />
  <path opacity="0.5" d="M32.5 4.25H51.5V23.75" stroke="#0A459E" stroke-width="2" />
  <path d="M17.001 30.8389C17.4256 30.4543 18.0813 30.4864 18.4658 30.9111C18.8501 31.3357 18.8171 31.9916 18.3926 32.376C17.7854 32.9259 17.5732 33.4255 17.5732 33.8398C17.5733 34.2008 17.7452 34.63 18.1699 35.085C18.5946 35.5398 19.2636 36.0108 20.2314 36.4463C22.0892 37.2823 24.7287 37.8262 27.6992 37.8262C30.6698 37.8262 33.3092 37.2823 35.167 36.4463C36.1348 36.0108 36.8039 35.5398 37.2285 35.085C37.6533 34.63 37.8252 34.2008 37.8252 33.8398C37.8252 33.4255 37.613 32.9259 37.0059 32.376C36.5813 31.9916 36.5483 31.3357 36.9326 30.9111C37.3168 30.4867 37.9719 30.4542 38.3965 30.8379C39.2742 31.6325 39.8994 32.6498 39.8994 33.8398C39.8993 35.8897 38.1026 37.4001 36.0186 38.3379C33.8362 39.32 30.8937 39.9004 27.6992 39.9004C24.5048 39.9004 21.5622 39.32 19.3799 38.3379C17.2958 37.4001 15.4991 35.8897 15.499 33.8398C15.499 32.6498 16.1234 31.6335 17.001 30.8389ZM27.6992 15.5C32.5157 15.5 36.5508 19.1511 36.5508 23.8096C36.5508 28.128 33.8787 33.2045 29.5361 35.0605C28.3688 35.5594 27.0297 35.5594 25.8623 35.0605C21.5198 33.2045 18.8477 28.1279 18.8477 23.8096C18.8477 19.1511 22.8827 15.5 27.6992 15.5ZM27.6992 17.5742C23.8856 17.5742 20.9229 20.4345 20.9229 23.8096C20.9229 25.6274 21.4988 27.5973 22.5107 29.2988C23.5228 31.0005 24.9622 32.4201 26.6777 33.1533C27.3244 33.4297 28.074 33.4297 28.7207 33.1533C30.4363 32.4201 31.8756 31.0005 32.8877 29.2988C33.8997 27.5973 34.4756 25.6274 34.4756 23.8096C34.4756 20.4345 31.5128 17.5742 27.6992 17.5742ZM27.6992 21.082C29.5051 21.082 30.9688 22.5457 30.9688 24.3516C30.9686 26.1573 29.505 27.6211 27.6992 27.6211C25.8934 27.6211 24.4298 26.1573 24.4297 24.3516C24.4297 22.5457 25.8934 21.082 27.6992 21.082ZM27.6992 23.1562C27.039 23.1563 26.5039 23.6914 26.5039 24.3516C26.504 25.0117 27.0391 25.5469 27.6992 25.5469C28.3594 25.5469 28.8944 25.0117 28.8945 24.3516C28.8945 23.6914 28.3594 23.1562 27.6992 23.1562Z" fill="#155288" />
</svg>