<svg width="56" height="56" viewBox="0 0 56 56" fill="none" xmlns="http://www.w3.org/2000/svg">
  <path opacity="0.5" d="M32.5 51.75H51.5V32.25" stroke="#0A459E" stroke-width="2" />
  <path opacity="0.5" d="M23.5 51.75H4.5V32.25" stroke="#0A459E" stroke-width="2" />
  <path opacity="0.5" d="M23.5 4.25H4.5V23.75" stroke="#0A459E" stroke-width="2" />
  <path opacity="0.5" d="M32.5 4.25H51.5V23.75" stroke="#0A459E" stroke-width="2" />
  <path fill-rule="evenodd" clip-rule="evenodd" d="M25.9873 16.5791C25.6308 16.6956 25.4394 16.823 25.1659 17.1258C24.8652 17.4587 24.7789 17.704 24.6066 18.7144C24.4246 19.7819 24.2942 20.0468 23.8231 20.3062C23.521 20.4726 23.2044 20.5314 22.9107 20.4756C22.7836 20.4514 22.3734 20.315 21.9992 20.1724C21.625 20.0299 21.2021 19.894 21.0594 19.8704C20.4177 19.7648 19.6681 20.0772 19.314 20.598C19.116 20.8891 17.2804 24.1155 17.1379 24.4228C17.0341 24.6465 17.0181 24.7438 17.0181 25.1504C17.0181 25.8859 17.2014 26.2189 17.9405 26.827C18.9686 27.6728 19.1371 27.9093 19.1371 28.5067C19.1371 29.104 18.9686 29.3406 17.9405 30.1863C17.4486 30.591 17.2983 30.771 17.1284 31.1588C16.9905 31.4736 16.9585 32.0173 17.0577 32.3623C17.1237 32.5922 17.5823 33.4301 18.876 35.6849C19.1192 36.1088 19.3817 36.5009 19.5095 36.631C19.8951 37.0238 20.5184 37.232 21.0475 37.1448C21.1837 37.1224 21.6375 36.9744 22.0561 36.8159C22.9645 36.4719 23.2564 36.4397 23.6803 36.6369C24.2749 36.9134 24.4124 37.1595 24.6057 38.2936C24.6838 38.7515 24.7915 39.2451 24.8451 39.3906C24.9809 39.7589 25.4487 40.2311 25.8325 40.3869L26.1108 40.5H28.5H30.8892L31.1675 40.3869C31.5513 40.2311 32.0191 39.7589 32.1549 39.3906C32.2085 39.2451 32.3162 38.7515 32.3943 38.2936C32.5015 37.6647 32.567 37.404 32.6621 37.2272C32.9362 36.7176 33.5289 36.4313 34.0893 36.5378C34.2164 36.5619 34.6266 36.6984 35.0008 36.8409C35.375 36.9835 35.7979 37.1194 35.9406 37.1429C36.4824 37.2321 37.1009 37.0278 37.4905 36.631C37.6183 36.5009 37.8808 36.1088 38.124 35.6849C39.4177 33.4301 39.8763 32.5922 39.9423 32.3623C40.0415 32.0173 40.0095 31.4736 39.8716 31.1588C39.6973 30.7611 39.5505 30.5911 38.9438 30.0843C38.6217 29.8153 38.2914 29.5245 38.2098 29.4382C37.7387 28.9399 37.7387 28.0734 38.2098 27.5752C38.2914 27.4889 38.6217 27.1981 38.9438 26.929C39.5505 26.4223 39.6973 26.2523 39.8716 25.8545C40.0095 25.5397 40.0415 24.996 39.9423 24.651C39.8763 24.4212 39.4177 23.5833 38.124 21.3284C37.8808 20.9045 37.6183 20.5125 37.4905 20.3823C37.1009 19.9855 36.4824 19.7813 35.9406 19.8704C35.7979 19.894 35.3754 20.0297 35.0017 20.172C34.6279 20.3145 34.2177 20.4509 34.0902 20.4752C33.7027 20.5492 33.2578 20.419 32.9228 20.1339C32.6563 19.907 32.5467 19.6136 32.3943 18.7197C32.3162 18.2619 32.2085 17.7683 32.1549 17.6228C32.0191 17.2544 31.5513 16.7823 31.1675 16.6264L30.8892 16.5133L28.5696 16.5033C26.4325 16.494 26.2293 16.5 25.9873 16.5791ZM26.5331 18.4966C26.5188 18.5676 26.4642 18.8897 26.4117 19.2124C26.296 19.9242 26.2132 20.2291 26.0423 20.5716C25.4117 21.8356 23.9954 22.5824 22.6534 22.3586C22.4628 22.3268 21.9736 22.1761 21.5664 22.0237C20.9793 21.804 20.815 21.7589 20.7727 21.8056C20.7131 21.8714 18.9134 25.0268 18.8892 25.1081C18.8807 25.1364 19.1243 25.37 19.4305 25.627C20.3368 26.388 20.6548 26.8186 20.8981 27.6148C21.0509 28.1147 21.0509 28.8987 20.8981 29.3985C20.6548 30.1948 20.3368 30.6254 19.4305 31.3863C19.1243 31.6434 18.8807 31.8769 18.8892 31.9053C18.9134 31.9865 20.7131 35.142 20.7727 35.2077C20.815 35.2545 20.9793 35.2094 21.5664 34.9896C21.9736 34.8373 22.4628 34.6866 22.6534 34.6548C23.9976 34.4305 25.4107 35.1756 26.0423 36.4418C26.2132 36.7842 26.296 37.0891 26.4117 37.8009C26.4642 38.1236 26.5188 38.4458 26.5331 38.5168L26.5589 38.6458H28.5H30.4411L30.4669 38.5168C30.4812 38.4458 30.5358 38.1236 30.5883 37.8009C30.704 37.0891 30.7868 36.7842 30.9577 36.4418C31.5883 35.1777 33.0046 34.4309 34.3466 34.6548C34.5372 34.6866 35.0264 34.8373 35.4336 34.9896C36.0207 35.2094 36.185 35.2545 36.2273 35.2077C36.2869 35.142 38.0866 31.9865 38.1108 31.9053C38.1193 31.8769 37.8757 31.6432 37.5695 31.3858C36.6503 30.613 36.348 30.2038 36.1019 29.3985C35.9491 28.8987 35.9491 28.1147 36.1019 27.6148C36.348 26.8096 36.6503 26.4003 37.5695 25.6276C37.8757 25.3702 38.1195 25.1364 38.1113 25.1081C38.0883 25.0288 36.2876 21.8726 36.2271 21.8056C36.1849 21.7589 36.0204 21.8043 35.4336 22.0247C34.962 22.2018 34.5527 22.3234 34.3062 22.3596C32.9511 22.5586 31.5851 21.8292 30.9577 20.5716C30.7868 20.2291 30.704 19.9242 30.5883 19.2124C30.5358 18.8897 30.4812 18.5676 30.4669 18.4966L30.4411 18.3675H28.5H26.5589L26.5331 18.4966ZM27.9085 23.9064C26.8896 24.0516 25.9993 24.5013 25.2704 25.2388C24.6605 25.8559 24.281 26.5261 24.058 27.3796C23.9591 27.7583 23.9414 27.9294 23.9414 28.5067C23.9414 29.084 23.9591 29.2551 24.058 29.6338C24.281 30.4873 24.6605 31.1574 25.2704 31.7745C25.8803 32.3917 26.5426 32.7756 27.3861 33.0012C27.7603 33.1014 27.9294 33.1192 28.5 33.1192C29.0706 33.1192 29.2397 33.1014 29.6139 33.0012C30.4574 32.7756 31.1197 32.3917 31.7296 31.7745C32.3395 31.1574 32.719 30.4873 32.942 29.6338C33.0409 29.2551 33.0586 29.084 33.0586 28.5067C33.0586 27.9294 33.0409 27.7583 32.942 27.3796C32.5797 25.9926 31.6366 24.8556 30.3644 24.272C29.6854 23.9605 28.6308 23.8035 27.9085 23.9064ZM28.1753 25.7896C27.5501 25.8579 27.0577 26.1086 26.5674 26.6084C26.0419 27.1442 25.8027 27.738 25.8027 28.5067C25.8027 28.9983 25.8647 29.2746 26.0734 29.7114C26.5198 30.6463 27.4588 31.2358 28.5 31.2348C30.9841 31.2326 32.1416 28.1553 30.295 26.4626C29.7245 25.9395 28.9765 25.7021 28.1753 25.7896Z" fill="#155288" />
</svg>