<svg width="56" height="56" viewBox="0 0 56 56" fill="none" xmlns="http://www.w3.org/2000/svg">
  <path opacity="0.5" d="M32.5 51.75H51.5V32.25" stroke="#0A459E" stroke-width="2" />
  <path opacity="0.5" d="M23.5 51.75H4.5V32.25" stroke="#0A459E" stroke-width="2" />
  <path opacity="0.5" d="M23.5 4.25H4.5V23.75" stroke="#0A459E" stroke-width="2" />
  <path opacity="0.5" d="M32.5 4.25H51.5V23.75" stroke="#0A459E" stroke-width="2" />
  <path d="M28.5004 30.4998C30.4886 30.4998 32.1004 28.888 32.1004 26.8998C32.1004 24.9116 30.4886 23.2998 28.5004 23.2998C26.5122 23.2998 24.9004 24.9116 24.9004 26.8998C24.9004 28.888 26.5122 30.4998 28.5004 30.4998Z" stroke="#155288" stroke-width="2" />
  <path d="M28.5 40.5C35.1274 40.5 40.5 35.1274 40.5 28.5C40.5 21.8726 35.1274 16.5 28.5 16.5C21.8726 16.5 16.5 21.8726 16.5 28.5C16.5 35.1274 21.8726 40.5 28.5 40.5Z" stroke="#155288" stroke-width="2" />
  <path d="M35.5 38.5C35.3134 35.6085 34.2752 33.5 28.5 33.5C22.7248 33.5 21.6866 35.6085 21.5 38.5" stroke="#155288" stroke-width="2" stroke-linecap="round" />
</svg>