<svg width="18" height="18" viewBox="0 0 18 18" fill="none" xmlns="http://www.w3.org/2000/svg">
  <path d="M4.04541 4.04522C4.29646 3.79417 4.70349 3.79417 4.95454 4.04522L8.99997 8.09015L13.0454 4.04522C13.2771 3.81348 13.6418 3.79566 13.894 3.99174L13.9545 4.04522C14.2056 4.29627 14.2056 4.70331 13.9545 4.95436L9.90962 8.99979L13.9545 13.0452C14.1863 13.277 14.2041 13.6416 14.008 13.8938L13.9545 13.9544C13.7035 14.2054 13.2965 14.2054 13.0454 13.9544L8.99997 9.90943L4.95454 13.9544C4.7228 14.1861 4.35815 14.2039 4.10597 14.0078L4.04541 13.9544C3.79435 13.7033 3.79435 13.2963 4.04541 13.0452L8.09033 8.99979L4.04541 4.95436C3.81367 4.72262 3.79584 4.35797 3.99193 4.10578L4.04541 4.04522Z" fill="#94A3B7" />
</svg>