<svg width="98" height="104" viewBox="0 0 98 104" fill="none" xmlns="http://www.w3.org/2000/svg">
  <path fill-rule="evenodd" clip-rule="evenodd" d="M47.3624 0.228323C46.6696 0.48934 45.705 1.36075 45.2538 2.13344C44.9525 2.64918 44.8814 3.65851 44.7907 8.69705L44.6836 14.6511L40.0759 11.3712C37.5417 9.56724 35.1858 7.95117 34.8405 7.77973C33.3187 7.0243 31.0636 7.5831 29.9959 8.9802C28.9022 10.411 28.985 12.3088 30.1947 13.5442C30.5038 13.8597 33.9141 16.3563 37.7736 19.092L44.7907 24.0662V34.7053V45.3444L44.3085 45.0515C44.0432 44.8904 39.8241 42.4905 34.9325 39.718C30.0409 36.9458 25.9591 34.6106 25.8618 34.5286C25.7645 34.4467 25.2652 30.5243 24.7519 25.8122C23.7183 16.324 23.6885 16.2038 22.1061 15.1443C19.6295 13.4861 16.0733 15.2556 16.0733 18.1461C16.0733 18.6977 16.3257 21.4265 16.6343 24.21C16.9429 26.9932 17.1429 29.3202 17.0788 29.3809C17.0147 29.4419 14.5956 28.1468 11.7031 26.5033C6.10059 23.3199 5.38373 23.0524 3.79012 23.5508C2.79851 23.861 1.58616 25.1474 1.28442 26.2093C0.919877 27.4919 1.35728 28.9028 2.39068 29.7781C2.66714 30.0121 5.18806 31.5085 7.99294 33.1032C10.7978 34.698 13.0581 36.0355 13.0159 36.0756C12.9739 36.1156 10.444 37.1093 7.39395 38.2839C0.657133 40.8783 6.10352e-05 41.3572 6.10352e-05 43.6727C6.10352e-05 44.8425 0.327526 45.5624 1.21327 46.3393C3.06147 47.9605 3.36408 47.9048 13.0899 44.1506C17.6186 42.4027 21.4254 40.9707 21.5497 40.9685C21.8583 40.9628 40.9331 51.8196 40.9331 52.0008C40.9331 52.182 21.8583 63.0389 21.5497 63.0332C21.4254 63.031 17.6186 61.5989 13.0899 59.851C4.37069 56.4854 3.5711 56.2734 2.18602 56.9593C1.52723 57.2856 0.596055 58.187 0.240516 58.8429C-0.0957353 59.4633 -0.0595171 61.2567 0.302451 61.9134C0.962524 63.111 1.82105 63.5715 7.39395 65.7177C10.444 66.8924 12.9761 67.8881 13.0209 67.9306C13.0656 67.9732 10.8053 69.3098 7.99787 70.9011C5.1902 72.4926 2.66714 73.9868 2.39068 74.222C1.35664 75.1015 0.920091 76.5102 1.28442 77.7923C1.58616 78.8543 2.79851 80.1407 3.79012 80.4508C5.38373 80.9493 6.10059 80.6818 11.7031 77.4984C14.5956 75.8549 17.0132 74.5584 17.0754 74.6175C17.1375 74.6764 16.9277 77.1299 16.6088 80.0698C16.2901 83.0096 16.0728 85.8455 16.1262 86.3714C16.3619 88.7002 19.0582 90.1848 21.3813 89.2647C22.323 88.8919 23.0707 88.2659 23.4922 87.4981C23.6862 87.1449 24.1439 83.7685 24.7419 78.2813C25.2607 73.5186 25.7648 69.5548 25.8621 69.4729C25.9591 69.391 30.0409 67.0559 34.9325 64.2836C39.8241 61.5112 44.0432 59.1113 44.3085 58.9502L44.7907 58.6573V69.2962V79.9351L37.4165 85.1731C29.3414 90.909 29.2509 90.9955 29.2672 92.9792C29.2882 95.5494 32.4679 97.3995 34.8405 96.2219C35.1858 96.0505 37.5417 94.4344 40.0759 92.6305L44.6836 89.3506L44.7907 95.3046C44.9073 101.785 44.9212 101.86 46.2182 103.023C47.8958 104.528 50.5475 104.263 52.0112 102.445L52.613 101.697L52.6754 95.4379L52.7377 89.1783L57.4045 92.5027C59.9711 94.331 62.3949 95.9857 62.7906 96.1797C64.5022 97.0186 66.9278 96.3144 67.8849 94.7003C68.546 93.5854 68.5441 91.926 67.8804 90.9803C67.5994 90.5799 64.3132 88.091 60.0581 85.0557L52.7202 79.8214V69.2409C52.7202 60.6264 52.772 58.6794 52.9996 58.7621C53.2165 58.8411 71.7774 69.4073 71.9392 69.5438C71.9604 69.5617 72.377 73.277 72.865 77.8005C73.3532 82.3237 73.8523 86.39 73.9741 86.8369C74.2567 87.8739 75.5889 89.1052 76.6276 89.2899C78.7165 89.6614 80.4957 88.8487 81.2829 87.1635L81.7198 86.2275L81.087 80.2999C80.739 77.0397 80.5066 74.4022 80.5707 74.4389C91.4936 80.6737 91.4144 80.6326 92.5817 80.6326C95.4157 80.6326 97.3342 77.6162 96.0351 75.2027C95.5051 74.2179 95.1843 74.0022 89.1917 70.6009C86.679 69.1747 84.6619 67.9708 84.7095 67.9259C84.7568 67.8808 87.2934 66.8812 90.3458 65.7043C93.8427 64.3562 96.1251 63.3606 96.5153 63.0133C98.4071 61.3296 98.0389 58.2979 95.7978 57.1042C94.1187 56.2098 93.7651 56.2965 84.4733 59.8862L76.0437 63.1429L66.4177 57.6512C61.1237 54.6305 56.792 52.0894 56.792 52.0039C56.792 51.9184 61.1252 49.3746 66.4212 46.3509L76.0505 40.8533L84.4229 44.0911C93.117 47.4533 93.8125 47.6466 95.3002 47.1122C96.6371 46.6322 97.7251 45.0889 97.7251 43.6727C97.7251 42.7399 97.1636 41.5612 96.3955 40.8821C96.1127 40.6321 93.3856 39.4653 90.3351 38.2892C87.2846 37.1133 84.7515 36.1158 84.706 36.0725C84.6604 36.0293 86.679 34.827 89.1917 33.4008C95.1474 30.0204 95.5072 29.7799 96.0119 28.8418C96.4811 27.9706 96.5694 26.5555 96.2106 25.6585C95.4616 23.7846 92.8039 22.8299 90.8996 23.7507C90.2624 24.0588 86.8084 26.0024 80.5707 29.5627C80.5066 29.5995 80.739 26.9619 81.087 23.7017L81.7198 17.7741L81.2829 16.8381C81.0356 16.3088 80.4925 15.6466 80.0332 15.3147C79.3121 14.7933 79.0481 14.7272 77.6872 14.7272C76.3263 14.7272 76.0623 14.7933 75.3412 15.3147C73.9739 16.3031 73.8669 16.7674 72.8811 25.9967C72.386 30.6308 71.963 34.4369 71.9409 34.4552C71.7673 34.5978 53.2107 45.1628 52.9968 45.2404C52.7729 45.3219 52.7202 43.3261 52.7202 34.7814V24.2215L59.0899 19.6776C68.8 12.7504 68.3626 13.1508 68.3639 11.1904C68.366 8.42628 65.3113 6.56788 62.8071 7.80979C62.4024 8.01048 59.9711 9.67063 57.4045 11.499L52.7377 14.8233L52.6754 8.5638L52.613 2.30427L52.0112 1.55677C50.9341 0.218979 48.9168 -0.357492 47.3624 0.228323Z" fill="#EFF3FD" />
</svg>