<svg width="293" height="89" viewBox="0 0 293 89" fill="none" xmlns="http://www.w3.org/2000/svg">
  <path fill-rule="evenodd" clip-rule="evenodd" d="M40.271 0.765427C39.6819 0.987363 38.8617 1.7283 38.4782 2.3853C38.222 2.82382 38.1615 3.68203 38.0844 7.96617L37.9933 13.0287L34.0755 10.2399C31.9207 8.70607 29.9176 7.33197 29.624 7.1862C28.33 6.54388 26.4125 7.01901 25.5047 8.20693C24.5748 9.42352 24.6451 11.0372 25.6738 12.0876C25.9366 12.3558 28.8363 14.4787 32.1179 16.8048L38.0844 21.0341V30.0803V39.1265L37.6744 38.8775C37.4488 38.7405 33.8614 36.6999 29.7022 34.3425C25.543 31.9854 22.0724 29.9998 21.9896 29.9301C21.9069 29.8605 21.4823 26.5254 21.0459 22.5188C20.167 14.4512 20.1417 14.3489 18.7962 13.4481C16.6904 12.0382 13.6666 13.5427 13.6666 16.0004C13.6666 16.4695 13.8813 18.7897 14.1437 21.1564C14.4061 23.5229 14.5761 25.5015 14.5216 25.5532C14.4671 25.605 12.4102 24.5038 9.95077 23.1064C5.18713 20.3996 4.5776 20.1721 3.22259 20.596C2.37945 20.8597 1.34862 21.9535 1.09206 22.8564C0.782096 23.9469 1.15401 25.1466 2.03269 25.8908C2.26775 26.0898 4.41123 27.3622 6.79615 28.7181C9.18107 30.0741 11.103 31.2114 11.0671 31.2454C11.0314 31.2795 8.88022 32.1244 6.28684 33.1232C0.558692 35.3291 0 35.7363 0 37.7051C0 38.6997 0.278435 39.3118 1.03156 39.9725C2.60304 41.3509 2.86034 41.3036 11.1299 38.1115C14.9806 36.6253 18.2175 35.4077 18.3231 35.4058C18.5855 35.4009 34.8044 44.6322 34.8044 44.7863C34.8044 44.9404 18.5855 54.1717 18.3231 54.1669C18.2175 54.165 14.9806 52.9473 11.1299 51.4611C3.71623 48.5995 3.03636 48.4192 1.85866 49.0024C1.29851 49.2798 0.506759 50.0463 0.204453 50.604C-0.0814532 51.1314 -0.0506578 52.6563 0.257115 53.2147C0.818358 54.233 1.54834 54.6245 6.28684 56.4494C8.88022 57.4482 11.0332 58.2949 11.0713 58.331C11.1093 58.3672 9.18745 59.5037 6.80034 60.8567C4.41305 62.2099 2.26775 63.4804 2.03269 63.6804C1.15346 64.4282 0.782279 65.626 1.09206 66.7162C1.34862 67.6191 2.37945 68.7129 3.22259 68.9766C4.5776 69.4005 5.18713 69.173 9.95077 66.4663C12.4102 65.0688 14.4659 63.9664 14.5187 64.0167C14.5716 64.0668 14.3932 66.153 14.122 68.6526C13.8511 71.1523 13.6663 73.5636 13.7117 74.0107C13.9121 75.9909 16.2046 77.2532 18.1799 76.4708C18.9806 76.1539 19.6164 75.6216 19.9748 74.9687C20.1397 74.6684 20.5289 71.7976 21.0373 67.1319C21.4785 63.0823 21.9071 59.712 21.9898 59.6424C22.0724 59.5728 25.543 57.5873 29.7022 55.2301C33.8614 52.8727 37.4488 50.8321 37.6744 50.6952L38.0844 50.4461V59.4921V68.5381L31.8143 72.9919C24.9482 77.8689 24.8713 77.9425 24.8851 79.6292C24.903 81.8146 27.6066 83.3876 29.624 82.3864C29.9176 82.2406 31.9207 80.8665 34.0755 79.3327L37.9933 76.5439L38.0844 81.6064C38.1835 87.1169 38.1954 87.1804 39.2982 88.1694C40.7246 89.4486 42.9792 89.2234 44.2238 87.6777L44.7355 87.0421L44.7885 81.7197L44.8415 76.3974L48.8096 79.224C50.9919 80.7786 53.0528 82.1856 53.3892 82.3505C54.8446 83.0638 56.907 82.465 57.7208 81.0926C58.2829 80.1446 58.2813 78.7337 57.717 77.9296C57.4781 77.5891 54.6839 75.4729 51.0659 72.892L44.8266 68.4414V59.4451C44.8266 52.1204 44.8707 50.4649 45.0642 50.5352C45.2486 50.6024 61.0305 59.5866 61.1681 59.7027C61.1861 59.7179 61.5403 62.8769 61.9553 66.7231C62.3704 70.5691 62.7948 74.0266 62.8983 74.4066C63.1386 75.2883 64.2713 76.3353 65.1545 76.4922C66.9306 76.8081 68.4435 76.1171 69.1128 74.6843L69.4843 73.8884L68.9462 68.8483C68.6503 66.0763 68.4528 63.8336 68.5072 63.8649C77.7947 69.1661 77.7273 69.1312 78.7199 69.1312C81.1296 69.1312 82.7608 66.5664 81.6562 64.5143C81.2056 63.677 80.9328 63.4935 75.8375 60.6015C73.7009 59.3888 71.9859 58.3652 72.0263 58.327C72.0666 58.2887 74.2234 57.4387 76.8187 56.438C79.7921 55.2917 81.7327 54.4453 82.0645 54.1499C83.673 52.7183 83.36 50.1406 81.4545 49.1255C80.0268 48.3651 79.7261 48.4388 71.8255 51.491L64.658 54.2601L56.4733 49.5907C51.9719 47.0222 48.2888 44.8616 48.2888 44.7889C48.2888 44.7162 51.9731 42.5533 56.4762 39.9823L64.6638 35.3078L71.7827 38.0609C79.175 40.9196 79.7664 41.084 81.0313 40.6296C82.168 40.2215 83.0932 38.9092 83.0932 37.7051C83.0932 36.912 82.6158 35.9097 81.9627 35.3324C81.7222 35.1197 79.4034 34.1277 76.8096 33.1277C74.2159 32.1278 72.062 31.2796 72.0234 31.2429C71.9846 31.2061 73.7009 30.1838 75.8375 28.9712C80.9014 26.0969 81.2074 25.8924 81.6365 25.0948C82.0354 24.354 82.1105 23.1507 81.8054 22.388C81.1686 20.7948 78.9088 19.983 77.2896 20.7659C76.7479 21.0279 73.811 22.6804 68.5072 25.7078C68.4528 25.739 68.6503 23.4963 68.9462 20.7243L69.4843 15.6842L69.1128 14.8883C68.9025 14.4382 68.4407 13.8752 68.0502 13.593C67.437 13.1496 67.2125 13.0935 66.0554 13.0935C64.8983 13.0935 64.6738 13.1496 64.0607 13.593C62.8981 14.4334 62.8072 14.8282 61.9689 22.6756C61.548 26.6159 61.1883 29.8522 61.1695 29.8677C61.0219 29.989 45.2437 38.9721 45.0618 39.0381C44.8714 39.1073 44.8266 37.4104 44.8266 30.1451V21.1663L50.2426 17.3027C58.4989 11.4127 58.127 11.7531 58.1281 10.0862C58.1299 7.73595 55.5325 6.1558 53.4032 7.21176C53.0592 7.3824 50.9919 8.79398 48.8096 10.3486L44.8415 13.1752L44.7885 7.85287L44.7355 2.53055L44.2238 1.89497C43.3079 0.757482 41.5927 0.267323 40.271 0.765427Z" fill="#EFF3FD" />
  <path fill-rule="evenodd" clip-rule="evenodd" d="M145.049 0.738571C144.46 0.960507 143.64 1.70145 143.256 2.35845C143 2.79696 142.939 3.65517 142.862 7.93932L142.771 13.0019L138.853 10.2131C136.699 8.67922 134.695 7.30511 134.402 7.15934C133.108 6.51703 131.19 6.99216 130.283 8.18008C129.353 9.39667 129.423 11.0103 130.452 12.0608C130.714 12.329 133.614 14.4518 136.896 16.7779L142.862 21.0073V30.0535V39.0997L142.452 38.8506C142.227 38.7136 138.639 36.673 134.48 34.3157C130.321 31.9585 126.85 29.973 126.767 29.9032C126.685 29.8336 126.26 26.4985 125.824 22.4919C124.945 14.4243 124.92 14.3221 123.574 13.4212C121.468 12.0114 118.445 13.5159 118.445 15.9736C118.445 16.4427 118.659 18.7629 118.922 21.1296C119.184 23.4961 119.354 25.4747 119.299 25.5263C119.245 25.5781 117.188 24.4769 114.729 23.0795C109.965 20.3727 109.355 20.1453 108 20.5691C107.157 20.8328 106.126 21.9266 105.87 22.8296C105.56 23.9201 105.932 25.1198 106.811 25.864C107.046 26.0629 109.189 27.3353 111.574 28.6913C113.959 30.0473 115.881 31.1846 115.845 31.2186C115.809 31.2526 113.658 32.0975 111.065 33.0963C105.337 35.3022 104.778 35.7095 104.778 37.6782C104.778 38.6729 105.056 39.285 105.809 39.9456C107.381 41.324 107.638 41.2767 115.908 38.0846C119.759 36.5984 122.995 35.3808 123.101 35.3789C123.363 35.3741 139.582 44.6054 139.582 44.7595C139.582 44.9135 123.363 54.1448 123.101 54.14C122.995 54.1381 119.759 52.9205 115.908 51.4343C108.494 48.5726 107.814 48.3923 106.637 48.9755C106.076 49.2529 105.285 50.0194 104.982 50.5771C104.696 51.1046 104.727 52.6295 105.035 53.1878C105.596 54.2062 106.326 54.5977 111.065 56.4226C113.658 57.4214 115.811 58.268 115.849 58.3041C115.887 58.3404 113.965 59.4768 111.578 60.8299C109.191 62.1831 107.046 63.4535 106.811 63.6535C105.931 64.4014 105.56 65.5992 105.87 66.6893C106.126 67.5923 107.157 68.6861 108 68.9498C109.355 69.3736 109.965 69.1462 114.729 66.4394C117.188 65.042 119.244 63.9396 119.297 63.9898C119.349 64.0399 119.171 66.1261 118.9 68.6258C118.629 71.1255 118.444 73.5367 118.49 73.9839C118.69 75.964 120.982 77.2264 122.958 76.444C123.758 76.127 124.394 75.5947 124.753 74.9419C124.918 74.6415 125.307 71.7707 125.815 67.105C126.256 63.0554 126.685 59.6851 126.768 59.6155C126.85 59.5459 130.321 57.5604 134.48 55.2032C138.639 52.8459 142.227 50.8053 142.452 50.6683L142.862 50.4193V59.4653V68.5113L136.592 72.965C129.726 77.8421 129.649 77.9157 129.663 79.6024C129.681 81.7877 132.384 83.3608 134.402 82.3596C134.695 82.2138 136.699 80.8397 138.853 79.3058L142.771 76.517L142.862 81.5796C142.961 87.09 142.973 87.1536 144.076 88.1425C145.502 89.4218 147.757 89.1966 149.002 87.6508L149.513 87.0152L149.566 81.6929L149.619 76.3706L153.587 79.1972C155.77 80.7518 157.831 82.1587 158.167 82.3236C159.622 83.0369 161.685 82.4381 162.499 81.0658C163.061 80.1178 163.059 78.7069 162.495 77.9027C162.256 77.5623 159.462 75.446 155.844 72.8652L149.604 68.4146V59.4183C149.604 52.0935 149.649 50.4381 149.842 50.5084C150.026 50.5756 165.808 59.5597 165.946 59.6758C165.964 59.691 166.318 62.8501 166.733 66.6962C167.148 70.5422 167.573 73.9997 167.676 74.3797C167.916 75.2614 169.049 76.3084 169.932 76.4654C171.709 76.7813 173.221 76.0903 173.891 74.6574L174.262 73.8616L173.724 68.8215C173.428 66.0494 173.231 63.8067 173.285 63.838C182.573 69.1393 182.505 69.1044 183.498 69.1044C185.907 69.1044 187.539 66.5396 186.434 64.4874C185.983 63.6501 185.711 63.4667 180.615 60.5746C178.479 59.362 176.764 58.3383 176.804 58.3001C176.844 58.2618 179.001 57.4119 181.597 56.4112C184.57 55.2649 186.511 54.4184 186.842 54.1231C188.451 52.6915 188.138 50.1137 186.232 49.0987C184.805 48.3382 184.504 48.412 176.603 51.4642L169.436 54.2333L161.251 49.5638C156.75 46.9954 153.067 44.8348 153.067 44.762C153.067 44.6893 156.751 42.5264 161.254 39.9554L169.442 35.281L176.561 38.034C183.953 40.8928 184.544 41.0572 185.809 40.6028C186.946 40.1947 187.871 38.8824 187.871 37.6782C187.871 36.8851 187.394 35.8829 186.741 35.3055C186.5 35.0929 184.181 34.1008 181.588 33.1008C178.994 32.101 176.84 31.2528 176.801 31.216C176.762 31.1792 178.479 30.1569 180.615 28.9443C185.679 26.07 185.985 25.8655 186.414 25.0679C186.813 24.3272 186.888 23.1239 186.583 22.3612C185.946 20.7679 183.687 19.9562 182.067 20.7391C181.526 21.0011 178.589 22.6536 173.285 25.6809C173.231 25.7122 173.428 23.4695 173.724 20.6974L174.262 15.6573L173.891 14.8615C173.68 14.4114 173.219 13.8483 172.828 13.5661C172.215 13.1228 171.99 13.0666 170.833 13.0666C169.676 13.0666 169.452 13.1228 168.839 13.5661C167.676 14.4065 167.585 14.8014 166.747 22.6488C166.326 26.589 165.966 29.8253 165.947 29.8409C165.8 29.9621 150.022 38.9452 149.84 39.0112C149.649 39.0805 149.604 37.3836 149.604 30.1182V21.1394L155.02 17.2758C163.277 11.3858 162.905 11.7262 162.906 10.0594C162.908 7.70909 160.31 6.12894 158.181 7.18491C157.837 7.35555 155.77 8.76713 153.587 10.3217L149.619 13.1483L149.566 7.82602L149.513 2.5037L149.002 1.86811C148.086 0.730626 146.371 0.240467 145.049 0.738571Z" fill="#EFF3FD" />
  <path fill-rule="evenodd" clip-rule="evenodd" d="M249.827 0.194137C249.238 0.416074 248.418 1.15701 248.034 1.81401C247.778 2.25253 247.717 3.11074 247.64 7.39488L247.549 12.4574L243.632 9.66865C241.477 8.13478 239.474 6.76068 239.18 6.61491C237.886 5.97259 235.969 6.44772 235.061 7.63564C234.131 8.85223 234.201 10.4659 235.23 11.5163C235.493 11.7846 238.392 13.9074 241.674 16.2335L247.64 20.4629V29.509V38.5552L247.23 38.3062C247.005 38.1692 243.417 36.1286 239.258 33.7712C235.099 31.4141 231.628 29.4286 231.546 29.3588C231.463 29.2892 231.038 25.9541 230.602 21.9475C229.723 13.8799 229.698 13.7777 228.352 12.8768C226.246 11.4669 223.223 12.9714 223.223 15.4291C223.223 15.8982 223.437 18.2185 223.7 20.5851C223.962 22.9516 224.132 24.9302 224.078 24.9819C224.023 25.0337 221.966 23.9325 219.507 22.5351C214.743 19.8283 214.134 19.6008 212.779 20.0247C211.935 20.2884 210.905 21.3822 210.648 22.2851C210.338 23.3757 210.71 24.5753 211.589 25.3195C211.824 25.5185 213.967 26.7909 216.352 28.1469C218.737 29.5028 220.659 30.6401 220.623 30.6742C220.587 30.7082 218.436 31.5531 215.843 32.5519C210.115 34.7578 209.556 35.165 209.556 37.1338C209.556 38.1284 209.834 38.7405 210.588 39.4012C212.159 40.7796 212.416 40.7323 220.686 37.5402C224.537 36.054 227.773 34.8364 227.879 34.8345C228.142 34.8296 244.36 44.061 244.36 44.215C244.36 44.3691 228.142 53.6004 227.879 53.5956C227.773 53.5937 224.537 52.376 220.686 50.8899C213.272 48.0282 212.592 47.8479 211.415 48.4311C210.855 48.7085 210.063 49.475 209.76 50.0327C209.475 50.5601 209.505 52.085 209.813 52.6434C210.374 53.6617 211.104 54.0533 215.843 55.8781C218.436 56.8769 220.589 57.7236 220.627 57.7597C220.665 57.796 218.743 58.9324 216.356 60.2854C213.969 61.6386 211.824 62.9091 211.589 63.1091C210.709 63.857 210.338 65.0547 210.648 66.1449C210.905 67.0478 211.935 68.1416 212.779 68.4054C214.134 68.8292 214.743 68.6017 219.507 65.895C221.966 64.4976 224.022 63.3951 224.075 63.4454C224.128 63.4955 223.949 65.5817 223.678 68.0813C223.407 70.581 223.222 72.9923 223.268 73.4394C223.468 75.4196 225.761 76.6819 227.736 75.8995C228.537 75.5826 229.172 75.0503 229.531 74.3975C229.696 74.0971 230.085 71.2263 230.593 66.5606C231.035 62.511 231.463 59.1407 231.546 59.0711C231.628 59.0015 235.099 57.016 239.258 54.6588C243.417 52.3014 247.005 50.2608 247.23 50.1239L247.64 49.8748V58.9208V67.9668L241.37 72.4206C234.504 77.2976 234.427 77.3712 234.441 79.0579C234.459 81.2433 237.163 82.8163 239.18 81.8151C239.474 81.6694 241.477 80.2953 243.632 78.7614L247.549 75.9726L247.64 81.0352C247.74 86.5456 247.751 86.6091 248.854 87.5981C250.281 88.8774 252.535 88.6521 253.78 87.1064L254.292 86.4708L254.345 81.1485L254.398 75.8261L258.366 78.6528C260.548 80.2073 262.609 81.6143 262.945 81.7792C264.401 82.4925 266.463 81.8937 267.277 80.5213C267.839 79.5733 267.837 78.1624 267.273 77.3583C267.034 77.0179 264.24 74.9016 260.622 72.3208L254.383 67.8701V58.8739C254.383 51.5491 254.427 49.8936 254.62 49.9639C254.805 50.0311 270.587 59.0153 270.724 59.1314C270.742 59.1466 271.096 62.3057 271.511 66.1518C271.926 69.9978 272.351 73.4553 272.454 73.8353C272.695 74.717 273.827 75.764 274.711 75.921C276.487 76.2368 277.999 75.5458 278.669 74.113L279.04 73.3171L278.502 68.277C278.206 65.505 278.009 63.2623 278.063 63.2936C287.351 68.5948 287.283 68.5599 288.276 68.5599C290.686 68.5599 292.317 65.9951 291.212 63.943C290.762 63.1057 290.489 62.9222 285.394 60.0302C283.257 58.8175 281.542 57.7939 281.582 57.7557C281.623 57.7174 283.779 56.8674 286.375 55.8667C289.348 54.7205 291.289 53.874 291.621 53.5786C293.229 52.147 292.916 49.5693 291.01 48.5543C289.583 47.7938 289.282 47.8676 281.382 50.9197L274.214 53.6888L266.029 49.0194C261.528 46.451 257.845 44.2903 257.845 44.2176C257.845 44.1449 261.529 41.982 266.032 39.411L274.22 34.7365L281.339 37.4896C288.731 40.3483 289.322 40.5127 290.587 40.0583C291.724 39.6502 292.649 38.3379 292.649 37.1338C292.649 36.3407 292.172 35.3384 291.519 34.7611C291.278 34.5485 288.959 33.5564 286.366 32.5564C283.772 31.5565 281.618 30.7084 281.579 30.6716C281.541 30.6348 283.257 29.6125 285.394 28.3999C290.457 25.5256 290.763 25.3211 291.193 24.5235C291.591 23.7827 291.666 22.5795 291.361 21.8168C290.725 20.2235 288.465 19.4117 286.846 20.1946C286.304 20.4566 283.367 22.1092 278.063 25.1365C278.009 25.1677 278.206 22.925 278.502 20.153L279.04 15.1129L278.669 14.317C278.459 13.867 277.997 13.3039 277.606 13.0217C276.993 12.5783 276.769 12.5222 275.611 12.5222C274.454 12.5222 274.23 12.5783 273.617 13.0217C272.454 13.8621 272.363 14.2569 271.525 22.1043C271.104 26.0446 270.744 29.2809 270.726 29.2964C270.578 29.4177 254.8 38.4008 254.618 38.4668C254.427 38.536 254.383 36.8391 254.383 29.5738V20.595L259.799 16.7314C268.055 10.8414 267.683 11.1818 267.684 9.51493C267.686 7.16466 265.089 5.58451 262.959 6.64047C262.615 6.81111 260.548 8.22269 258.366 9.77728L254.398 12.6039L254.345 7.28158L254.292 1.95926L253.78 1.32368C252.864 0.186193 251.149 -0.303966 249.827 0.194137Z" fill="#EFF3FD" />
</svg>