<svg width="367" height="143" viewBox="0 0 367 143" fill="none" xmlns="http://www.w3.org/2000/svg">
  <path fill-rule="evenodd" clip-rule="evenodd" d="M33.6517 35.7786C33.3463 36.4531 33.2804 37.7514 33.5078 38.6167C33.6594 39.1945 34.3228 39.9585 37.8215 43.5854L41.9559 47.8713L36.3786 48.8102C33.311 49.3265 30.5024 49.8497 30.137 49.9726C28.5268 50.5145 27.3273 52.5043 27.5602 54.2471C27.7986 56.0322 29.1991 57.3156 30.9281 57.3338C31.3697 57.3383 35.5465 56.6922 40.21 55.8976L48.6891 54.453L56.2121 61.976L63.7351 69.499L63.187 69.6328C62.8855 69.7065 58.2052 70.9929 52.7858 72.4913C47.3667 73.99 42.8292 75.225 42.7024 75.2358C42.5757 75.2467 39.4491 72.8262 35.7542 69.8572C28.3142 63.8789 28.2081 63.8149 26.3399 64.1847C23.4163 64.7634 22.1528 68.5293 24.1967 70.5732C24.5868 70.9633 26.6948 72.7143 28.8812 74.4643C31.0675 76.2141 32.8543 77.7181 32.852 77.8064C32.8497 77.8948 30.2234 78.6896 27.0159 79.5728C20.8034 81.2833 20.1073 81.6011 19.3329 83.0804C18.8511 84.0009 18.9034 85.7678 19.441 86.732C20.0901 87.8967 21.3971 88.5851 22.7467 88.4733C23.1076 88.4432 25.9483 87.7188 29.0593 86.8631C32.1703 86.0074 34.7144 85.3549 34.7129 85.4131C34.7115 85.4711 33.6252 87.9627 32.2991 90.95C29.3699 97.5481 29.244 98.3514 30.8812 99.9887C31.7084 100.816 32.449 101.093 33.6247 101.016C36.0779 100.856 36.2525 100.603 40.4751 91.0707C42.4415 86.6325 44.1207 82.9281 44.207 82.8386C44.4212 82.6163 65.5861 76.8054 65.7142 76.9335C65.8423 77.0616 60.0314 98.2265 59.8091 98.4407C59.7196 98.527 56.0152 100.206 51.577 102.173C43.0317 105.958 42.3164 106.374 41.822 107.838C41.5869 108.535 41.5659 109.83 41.7783 110.546C41.9791 111.222 43.2729 112.465 43.9932 112.673C45.3068 113.053 46.2395 112.772 51.6977 110.349C54.685 109.023 57.1796 107.936 57.2413 107.934C57.3031 107.933 56.6499 110.476 55.7899 113.587C54.93 116.697 54.2025 119.538 54.1733 119.9C54.064 121.253 54.7514 122.558 55.9157 123.207C56.8799 123.744 58.6468 123.797 59.5673 123.315C61.0466 122.54 61.3644 121.844 63.0749 115.632C63.9581 112.424 64.7508 109.798 64.8366 109.796C64.9222 109.794 66.5088 111.677 68.362 113.981C70.2155 116.285 72.0671 118.444 72.4767 118.778C74.2901 120.258 77.2464 119.402 78.2385 117.108C78.6408 116.179 78.7268 115.207 78.482 114.366C78.3693 113.98 76.3056 111.268 72.8483 106.966C69.8474 103.231 67.401 100.072 67.4119 99.945C67.4227 99.8185 68.6577 95.281 70.1564 89.8619C71.6548 84.4426 72.9412 79.7622 73.0149 79.4607L73.1487 78.9126L80.6716 86.4355L88.1944 93.9583L86.6839 102.876C85.0298 112.642 85.027 112.767 86.4413 114.159C88.2735 115.961 91.8301 115.021 92.6751 112.511C92.798 112.145 93.3212 109.337 93.8375 106.269L94.7764 100.692L99.0623 104.826C103.727 109.326 103.79 109.369 105.53 109.275C107.78 109.152 109.467 107.09 109.217 104.769L109.114 103.815L104.732 99.3451L100.35 94.8749L106 93.9256C109.108 93.4036 111.992 92.8597 112.409 92.7172C114.212 92.1 115.43 89.8869 114.965 88.0688C114.644 86.8129 113.469 85.641 112.331 85.4415C111.85 85.3571 107.766 85.9209 102.611 86.7834L93.721 88.2709L86.2395 80.7894C80.1481 74.698 78.808 73.2846 79.0274 73.1821C79.2366 73.0847 99.8326 67.4315 100.044 67.4137C100.071 67.4113 102.993 69.7439 106.537 72.5973C110.08 75.4505 113.308 77.9729 113.71 78.2029C114.644 78.7362 116.456 78.665 117.321 78.061C119.061 76.8466 119.745 75.0139 119.11 73.2657L118.757 72.2949L114.118 68.5509C111.566 66.4917 109.537 64.7909 109.608 64.7716C121.741 61.4566 121.656 61.4836 122.481 60.6582C124.485 58.6542 123.709 55.1647 121.083 54.3767C120.012 54.0552 119.633 54.1295 112.99 55.9617C110.205 56.7301 107.928 57.3051 107.929 57.2397C107.931 57.1743 109.018 54.6739 110.344 51.6833C111.863 48.2573 112.773 45.9395 112.804 45.4179C112.951 42.8897 110.547 41.0064 108.118 41.7469C106.298 42.3018 106.11 42.6132 102.078 51.7217L98.4197 59.9852L87.7299 62.9086C81.8505 64.5161 76.9908 65.7822 76.9303 65.7217C76.8698 65.6613 78.1351 60.7986 79.7418 54.9156L82.6634 44.2193L90.8731 40.5886C99.3982 36.8183 100.027 36.4633 100.701 35.0334C101.307 33.7487 100.985 31.888 99.9833 30.8866C99.3237 30.2271 98.0932 29.7906 97.0699 29.8536C96.6931 29.8768 93.9397 30.9801 90.9511 32.3055C87.9626 33.631 85.466 34.7168 85.4033 34.7184C85.3404 34.7201 85.9176 32.4426 86.686 29.6573C88.5069 23.0557 88.5913 22.6312 88.2849 21.611C88.0006 20.6633 87.0623 19.6002 86.1744 19.2196C84.3198 18.4242 81.7654 19.6284 81.0699 21.626C80.8373 22.2945 79.7692 26.1111 77.8761 33.0394C77.8568 33.1107 76.156 31.0814 74.0968 28.53L70.3528 23.891L69.382 23.5381C68.8328 23.3387 67.9806 23.2545 67.4211 23.3445C66.5425 23.4858 66.3091 23.6258 65.3468 24.5881C64.3846 25.5503 64.2445 25.7837 64.1033 26.6623C63.8354 28.3281 64.0881 28.732 69.9171 35.9552C72.8438 39.582 75.2361 42.5725 75.2334 42.6011C75.2115 42.8247 69.5605 63.4167 69.4642 63.6228C69.3634 63.8388 67.9149 62.4649 61.8729 56.4229L54.406 48.9559L55.697 41.2388C57.6648 29.4744 57.6386 30.0668 56.2533 28.6797C54.3003 26.7237 50.8262 27.5696 49.9336 30.2185C49.7894 30.6465 49.2441 33.5397 48.7221 36.6473L47.7728 42.2979L43.3026 37.9159L38.8323 33.5338L37.8782 33.4308C36.1706 33.2465 34.3366 34.2653 33.6517 35.7786Z" fill="#6B84A4" />
  <path fill-rule="evenodd" clip-rule="evenodd" d="M193.047 19.5198C192.355 19.7808 191.39 20.6523 190.939 21.4249C190.638 21.9407 190.566 22.95 190.476 27.9885L190.369 33.9426L185.761 30.6627C183.227 28.8587 180.871 27.2427 180.526 27.0712C179.004 26.3158 176.749 26.8746 175.681 28.2717C174.587 29.7025 174.67 31.6003 175.88 32.8357C176.189 33.1512 179.599 35.6478 183.459 38.3835L190.476 43.3577V53.9968V64.6359L189.994 64.343C189.728 64.1819 185.509 61.782 180.617 59.0095C175.726 56.2373 171.644 53.9021 171.547 53.8201C171.45 53.7382 170.95 49.8158 170.437 45.1037C169.403 35.6155 169.374 35.4953 167.791 34.4358C165.315 32.7776 161.758 34.5471 161.758 37.4376C161.758 37.9892 162.011 40.718 162.319 43.5015C162.628 46.2847 162.828 48.6117 162.764 48.6724C162.7 48.7334 160.281 47.4383 157.388 45.7948C151.786 42.6114 151.069 42.3439 149.475 42.8423C148.484 43.1525 147.271 44.4389 146.969 45.5008C146.605 46.7834 147.042 48.1943 148.076 49.0696C148.352 49.3036 150.873 50.8 153.678 52.3947C156.483 53.9895 158.743 55.3271 158.701 55.3671C158.659 55.4071 156.129 56.4008 153.079 57.5755C146.342 60.1698 145.685 60.6487 145.685 62.9642C145.685 64.134 146.013 64.8539 146.898 65.6308C148.746 67.252 149.049 67.1963 158.775 63.4421C163.304 61.6942 167.11 60.2622 167.235 60.26C167.543 60.2543 186.618 71.1111 186.618 71.2923C186.618 71.4735 167.543 82.3304 167.235 82.3247C167.11 82.3225 163.304 80.8904 158.775 79.1425C150.056 75.777 149.256 75.5649 147.871 76.2508C147.212 76.5771 146.281 77.4785 145.926 78.1344C145.589 78.7548 145.625 80.5482 145.987 81.2049C146.648 82.4025 147.506 82.863 153.079 85.0092C156.129 86.1839 158.661 87.1796 158.706 87.2221C158.751 87.2647 156.49 88.6013 153.683 90.1926C150.875 91.7841 148.352 93.2783 148.076 93.5135C147.042 94.393 146.605 95.8017 146.969 97.0838C147.271 98.1458 148.484 99.4322 149.475 99.7423C151.069 100.241 151.786 99.9733 157.388 96.7899C160.281 95.1464 162.698 93.8499 162.76 93.909C162.823 93.9679 162.613 96.4214 162.294 99.3613C161.975 102.301 161.758 105.137 161.811 105.663C162.047 107.992 164.743 109.476 167.066 108.556C168.008 108.183 168.756 107.557 169.177 106.79C169.371 106.436 169.829 103.06 170.427 97.5728C170.946 92.8101 171.45 88.8463 171.547 88.7644C171.644 88.6825 175.726 86.3474 180.617 83.5751C185.509 80.8027 189.728 78.4028 189.994 78.2417L190.476 77.9488V88.5877V99.2266L183.102 104.465C175.026 110.2 174.936 110.287 174.952 112.271C174.973 114.841 178.153 116.691 180.526 115.513C180.871 115.342 183.227 113.726 185.761 111.922L190.369 108.642L190.476 114.596C190.592 121.077 190.606 121.152 191.903 122.315C193.581 123.819 196.232 123.554 197.696 121.736L198.298 120.989L198.36 114.729L198.423 108.47L203.09 111.794C205.656 113.623 208.08 115.277 208.476 115.471C210.187 116.31 212.613 115.606 213.57 113.992C214.231 112.877 214.229 111.218 213.565 110.272C213.284 109.871 209.998 107.383 205.743 104.347L198.405 99.1129V88.5324C198.405 79.9179 198.457 77.9709 198.685 78.0536C198.901 78.1326 217.462 88.6988 217.624 88.8353C217.645 88.8532 218.062 92.5686 218.55 97.092C219.038 101.615 219.537 105.682 219.659 106.128C219.942 107.165 221.274 108.397 222.313 108.581C224.402 108.953 226.181 108.14 226.968 106.455L227.405 105.519L226.772 99.5914C226.424 96.3313 226.192 93.6937 226.256 93.7304C237.179 99.9652 237.099 99.9241 238.267 99.9241C241.101 99.9241 243.019 96.9077 241.72 94.4942C241.19 93.5094 240.869 93.2937 234.877 89.8924C232.364 88.4662 230.347 87.2623 230.394 87.2174C230.442 87.1723 232.978 86.1727 236.031 84.9958C239.528 83.6477 241.81 82.6521 242.2 82.3048C244.092 80.6211 243.724 77.5894 241.483 76.3957C239.804 75.5013 239.45 75.588 230.158 79.1777L221.729 82.4344L212.103 76.9427C206.809 73.922 202.477 71.3809 202.477 71.2954C202.477 71.2099 206.81 68.6661 212.106 65.6424L221.736 60.1448L230.108 63.3826C238.802 66.7448 239.497 66.9381 240.985 66.4037C242.322 65.9237 243.41 64.3804 243.41 62.9642C243.41 62.0314 242.849 60.8527 242.081 60.1736C241.798 59.9236 239.071 58.7568 236.02 57.5807C232.97 56.4048 230.436 55.4073 230.391 55.364C230.345 55.3208 232.364 54.1185 234.877 52.6923C240.832 49.3119 241.192 49.0714 241.697 48.1334C242.166 47.2621 242.254 45.847 241.896 44.95C241.147 43.0761 238.489 42.1214 236.585 43.0422C235.947 43.3503 232.493 45.2939 226.256 48.8542C226.192 48.891 226.424 46.2534 226.772 42.9932L227.405 37.0656L226.968 36.1296C226.721 35.6003 226.177 34.9381 225.718 34.6062C224.997 34.0848 224.733 34.0187 223.372 34.0187C222.011 34.0187 221.747 34.0848 221.026 34.6062C219.659 35.5946 219.552 36.0589 218.566 45.2882C218.071 49.9223 217.648 53.7285 217.626 53.7467C217.452 53.8893 198.896 64.4543 198.682 64.5319C198.458 64.6134 198.405 62.6176 198.405 54.073V43.5131L204.775 38.9691C214.485 32.0419 214.048 32.4423 214.049 30.4819C214.051 27.7178 210.996 25.8594 208.492 27.1013C208.087 27.302 205.656 28.9621 203.09 30.7905L198.423 34.1148L198.36 27.8553L198.298 21.5958L197.696 20.8483C196.619 19.5105 194.602 18.934 193.047 19.5198Z" fill="#EFF3FD" />
  <path fill-rule="evenodd" clip-rule="evenodd" d="M316.276 18.8797C315.583 19.1407 314.619 20.0121 314.167 20.7848C313.866 21.3005 313.795 22.3099 313.704 27.3484L313.597 33.3024L308.989 30.0226C306.455 28.2186 304.099 26.6025 303.754 26.4311C302.232 25.6757 299.977 26.2345 298.909 27.6316C297.816 29.0624 297.899 30.9602 299.108 32.1956C299.417 32.5111 302.828 35.0077 306.687 37.7434L313.704 42.7175V53.3566V63.9958L313.222 63.7029C312.957 63.5418 308.738 61.1418 303.846 58.3694C298.954 55.5971 294.873 53.262 294.775 53.1799C294.678 53.0981 294.179 49.1757 293.666 44.4636C292.632 34.9754 292.602 34.8551 291.02 33.7956C288.543 32.1375 284.987 33.9069 284.987 36.7974C284.987 37.3491 285.239 40.0779 285.548 42.8613C285.857 45.6446 286.056 47.9716 285.992 48.0323C285.928 48.0933 283.509 46.7981 280.617 45.1546C275.014 41.9712 274.297 41.7037 272.704 42.2022C271.712 42.5124 270.5 43.7988 270.198 44.8607C269.833 46.1432 270.271 47.5542 271.304 48.4294C271.581 48.6634 274.102 50.1599 276.907 51.7546C279.711 53.3493 281.972 54.6869 281.929 54.7269C281.887 54.7669 279.358 55.7606 276.308 56.9353C269.571 59.5296 268.914 60.0086 268.914 62.324C268.914 63.4938 269.241 64.2137 270.127 64.9907C271.975 66.6118 272.278 66.5562 282.003 62.802C286.532 61.0541 290.339 59.6221 290.463 59.6198C290.772 59.6141 309.847 70.471 309.847 70.6522C309.847 70.8334 290.772 81.6903 290.463 81.6846C290.339 81.6823 286.532 80.2503 282.003 78.5024C273.284 75.1368 272.485 74.9248 271.1 75.6107C270.441 75.9369 269.51 76.8384 269.154 77.4943C268.818 78.1146 268.854 79.908 269.216 80.5647C269.876 81.7624 270.735 82.2229 276.308 84.3691C279.358 85.5438 281.89 86.5395 281.934 86.5819C281.979 86.6246 279.719 87.9612 276.911 89.5525C274.104 91.1439 271.581 92.6381 271.304 92.8734C270.27 93.7529 269.834 95.1616 270.198 96.4437C270.5 97.5056 271.712 98.792 272.704 99.1022C274.297 99.6007 275.014 99.3332 280.617 96.1498C283.509 94.5063 285.927 93.2097 285.989 93.2688C286.051 93.3277 285.841 95.7813 285.522 98.7211C285.204 101.661 284.986 104.497 285.04 105.023C285.276 107.352 287.972 108.836 290.295 107.916C291.237 107.543 291.984 106.917 292.406 106.149C292.6 105.796 293.058 102.42 293.655 96.9326C294.174 92.1699 294.678 88.2061 294.776 88.1243C294.873 88.0424 298.954 85.7073 303.846 82.935C308.738 80.1626 312.957 77.7626 313.222 77.6015L313.704 77.3086V87.9476V98.5865L306.33 103.824C298.255 109.56 298.165 109.647 298.181 111.631C298.202 114.201 301.382 116.051 303.754 114.873C304.099 114.702 306.455 113.086 308.989 111.282L313.597 108.002L313.704 113.956C313.821 120.437 313.835 120.511 315.132 121.675C316.809 123.179 319.461 122.914 320.925 121.096L321.527 120.349L321.589 114.089L321.651 107.83L326.318 111.154C328.885 112.982 331.309 114.637 331.704 114.831C333.416 115.67 335.841 114.966 336.798 113.352C337.46 112.237 337.458 110.577 336.794 109.632C336.513 109.231 333.227 106.742 328.972 103.707L321.634 98.4727V87.8923C321.634 79.2777 321.686 77.3308 321.913 77.4134C322.13 77.4925 340.691 88.0587 340.853 88.1952C340.874 88.213 341.291 91.9284 341.779 96.4518C342.267 100.975 342.766 105.041 342.888 105.488C343.17 106.525 344.502 107.757 345.541 107.941C347.63 108.313 349.409 107.5 350.196 105.815L350.633 104.879L350.001 98.9513C349.653 95.6911 349.42 93.0535 349.484 93.0903C360.407 99.325 360.328 99.284 361.495 99.284C364.329 99.284 366.248 96.2676 364.949 93.854C364.419 92.8693 364.098 92.6536 358.105 89.2522C355.593 87.8261 353.575 86.6222 353.623 86.5773C353.67 86.5322 356.207 85.5326 359.259 84.3557C362.756 83.0075 365.039 82.012 365.429 81.6647C367.321 79.981 366.952 76.9493 364.711 75.7555C363.032 74.8612 362.679 74.9479 353.387 78.5375L344.957 81.7943L335.331 76.3025C330.037 73.2819 325.706 70.7408 325.706 70.6553C325.706 70.5697 330.039 68.026 335.335 65.0023L344.964 59.5047L353.337 62.7425C362.031 66.1046 362.726 66.298 364.214 65.7636C365.551 65.2836 366.639 63.7402 366.639 62.324C366.639 61.3913 366.077 60.2125 365.309 59.5335C365.026 59.2835 362.299 58.1167 359.249 56.9406C356.198 55.7647 353.665 54.7672 353.62 54.7239C353.574 54.6806 355.593 53.4783 358.105 52.0522C364.061 48.6718 364.421 48.4312 364.926 47.4932C365.395 46.622 365.483 45.2068 365.124 44.3098C364.375 42.436 361.718 41.4813 359.813 42.4021C359.176 42.7102 355.722 44.6537 349.484 48.2141C349.42 48.2509 349.653 45.6133 350.001 42.3531L350.633 36.4255L350.196 35.4895C349.949 34.9601 349.406 34.298 348.947 33.966C348.226 33.4446 347.962 33.3786 346.601 33.3786C345.24 33.3786 344.976 33.4446 344.255 33.966C342.887 34.9545 342.78 35.4188 341.795 44.648C341.3 49.2821 340.877 53.0883 340.854 53.1066C340.681 53.2492 322.124 63.8142 321.91 63.8918C321.686 63.9732 321.634 61.9775 321.634 53.4328V42.8729L328.003 38.329C337.714 31.4018 337.276 31.8021 337.277 29.8418C337.28 27.0776 334.225 25.2192 331.721 26.4612C331.316 26.6618 328.885 28.322 326.318 30.1503L321.651 33.4747L321.589 27.2152L321.527 20.9556L320.925 20.2081C319.848 18.8703 317.83 18.2939 316.276 18.8797Z" fill="#EFF3FD" />
</svg>