<svg width="56" height="56" viewBox="0 0 56 56" fill="none" xmlns="http://www.w3.org/2000/svg">
  <path opacity="0.5" d="M32.5 51.75H51.5V32.25" stroke="#0A459E" stroke-width="2" />
  <path opacity="0.5" d="M23.5 51.75H4.5V32.25" stroke="#0A459E" stroke-width="2" />
  <path opacity="0.5" d="M23.5 4.25H4.5V23.75" stroke="#0A459E" stroke-width="2" />
  <path opacity="0.5" d="M32.5 4.25H51.5V23.75" stroke="#0A459E" stroke-width="2" />
  <path fill-rule="evenodd" clip-rule="evenodd" d="M27.5019 16.5284C26.439 16.6308 25.2637 16.8883 24.3814 17.212C20.6285 18.5889 17.795 21.7283 16.8363 25.5716C16.5603 26.678 16.5 27.2035 16.5 28.5025C16.5 29.8014 16.5603 30.3269 16.8363 31.4333C17.9047 35.7164 21.2943 39.0963 25.578 40.1499C26.5146 40.3803 27.1011 40.4603 28.0884 40.4925C29.5614 40.5405 30.8552 40.3596 32.1981 39.918C32.7386 39.7401 32.9249 39.6019 33.0601 39.2779C33.2641 38.789 32.9578 38.168 32.442 38.0248C32.1882 37.9544 32.1637 37.9577 31.5798 38.1406C27.9238 39.2862 24.0188 38.3355 21.3259 35.6444C19.79 34.1095 18.8006 32.1428 18.462 29.9517C18.3487 29.2186 18.3487 27.7863 18.462 27.0532C18.9755 23.7304 21.0042 20.9328 23.974 19.4526C25.3992 18.7422 26.6557 18.4429 28.4714 18.3815L29.4175 18.3495L29.5976 18.2063C30.1695 17.7515 30.0979 16.9349 29.4582 16.6163C29.2295 16.5024 29.1877 16.4979 28.4429 16.505C28.0157 16.5092 27.5922 16.5197 27.5019 16.5284ZM32.19 16.6067C32.0762 16.6666 31.9198 16.8057 31.8424 16.9155L31.7016 17.1153L31.7025 20.5228L31.7035 23.9303L31.8318 24.3988C32.2738 26.0132 33.3029 26.9959 34.9042 27.3329L35.1506 27.3848V33.587V39.7892L35.2598 39.9959C35.3198 40.1096 35.4589 40.2659 35.5688 40.3433C35.7437 40.4663 35.8088 40.4839 36.0891 40.4839C36.3694 40.4839 36.4345 40.4663 36.6093 40.3433C36.7193 40.2659 36.8584 40.1096 36.9184 39.9959L37.0276 39.7892V33.5917V27.3942L37.3912 27.31C38.9013 26.9606 39.9626 25.9319 40.3297 24.4619C40.4832 23.8475 40.4982 23.4842 40.4991 20.3619L40.5 17.2157L40.3908 17.009C40.057 16.3771 39.202 16.3272 38.7873 16.9154L38.6465 17.1151L38.6188 20.4055C38.5984 22.8213 38.5753 23.7581 38.5318 23.9303C38.253 25.0326 37.473 25.5481 36.0839 25.5481C35.417 25.5481 35.1396 25.4956 34.6973 25.2859C34.1859 25.0434 33.8636 24.633 33.6675 23.9746C33.5928 23.7236 33.5819 23.368 33.5581 20.4055L33.5317 17.1151L33.3909 16.9155C33.1098 16.5168 32.6059 16.3872 32.19 16.6067ZM35.6668 16.603C35.5506 16.665 35.3923 16.8056 35.3148 16.9155L35.1741 17.1152L35.1613 20.1735L35.1486 23.2318L35.2588 23.4404C35.3194 23.5551 35.4589 23.7122 35.5688 23.7896C35.7437 23.9127 35.8088 23.9303 36.0891 23.9303C36.3694 23.9303 36.4345 23.9127 36.6093 23.7896C36.7193 23.7122 36.8584 23.5559 36.9184 23.4422L37.0276 23.2355V20.2256V17.2157L36.9184 17.009C36.6765 16.5511 36.1087 16.3669 35.6668 16.603ZM27.4327 21.3083C25.0599 21.6768 23.0419 23.1362 21.9916 25.2433C21.1957 26.8399 21.0057 28.6441 21.4524 30.3605C22.2398 33.3854 24.9829 35.6067 28.1119 35.753C28.6705 35.7791 28.7086 35.775 28.9096 35.6666C29.5303 35.3321 29.5991 34.4855 29.0386 34.0797C28.8341 33.9317 28.8055 33.9254 28.0181 33.8545C27.3785 33.797 26.8988 33.6769 26.331 33.4323C25.1284 32.9142 24.0727 31.8592 23.5543 30.6573C22.6677 28.6022 23.1091 26.2761 24.6843 24.7019C25.5965 23.7902 26.7205 23.2671 28.0181 23.1504C28.8055 23.0796 28.8341 23.0732 29.0386 22.9252C29.5971 22.5209 29.5299 21.6679 28.914 21.343C28.7387 21.2505 28.6421 21.2346 28.2805 21.2384C28.0458 21.2409 27.6643 21.2724 27.4327 21.3083Z" fill="#155288" />
</svg>