<svg width="56" height="56" viewBox="0 0 56 56" fill="none" xmlns="http://www.w3.org/2000/svg">
  <path opacity="0.5" d="M32.5 51.75H51.5V32.25" stroke="#0A459E" stroke-width="2" />
  <path fill-rule="evenodd" clip-rule="evenodd" d="M27.8487 15.9985C27.7025 16.0627 16.832 24.3202 16.5552 24.5773C16.0445 25.0517 16.1423 25.8012 16.756 26.1164C17.0192 26.2517 17.4406 26.2201 17.6956 26.046L17.8827 25.9182L17.9061 32.6191L17.9295 39.32L18.0699 39.5196C18.1471 39.6295 18.303 39.7684 18.4164 39.8284L18.6227 39.9375H28.1996H37.7766L37.9828 39.8284C38.0962 39.7684 38.2522 39.6295 38.3294 39.5196L38.4697 39.32L38.4931 32.6191L38.5165 25.9182L38.7037 26.046C38.9587 26.2201 39.38 26.2517 39.6433 26.1164C39.8714 25.9993 39.9987 25.8614 40.1255 25.5941C40.2208 25.3935 40.2645 24.9982 40.186 25.0468C40.165 25.0598 40.1232 25.0023 40.0931 24.919C40.063 24.8357 39.9592 24.6917 39.8623 24.599C39.5784 24.3273 28.7057 16.0663 28.5403 15.9966C28.3514 15.917 28.0323 15.9179 27.8487 15.9985ZM23.9653 21.273L19.8011 24.4495L19.7892 31.2558L19.7773 38.0622H28.1996H36.6219L36.61 31.2558L36.5982 24.4495L32.434 21.273C30.1437 19.5259 28.2382 18.0965 28.1996 18.0965C28.161 18.0965 26.2556 19.5259 23.9653 21.273ZM23.5632 25.1377C23.4498 25.1976 23.2938 25.3366 23.2166 25.4465L23.0763 25.6461V30.1858V34.7254L23.2166 34.9251C23.2938 35.0349 23.4498 35.1739 23.5632 35.2338L23.7694 35.3429H28.1996H32.6298L32.8361 35.2338C32.9495 35.1739 33.1054 35.0349 33.1826 34.9251L33.323 34.7254V30.1858V25.6461L33.1826 25.4465C33.1054 25.3366 32.9495 25.1976 32.8361 25.1377L32.6298 25.0286H28.1996H23.7694L23.5632 25.1377ZM16.2351 25.2864C16.2355 25.4154 16.2446 25.4625 16.2553 25.3913C16.266 25.32 16.2658 25.2145 16.2547 25.1569C16.2436 25.0992 16.2348 25.1575 16.2351 25.2864ZM24.9244 28.076V29.2481H26.0941H27.2639V28.076V26.9039H26.0941H24.9244V28.076ZM29.1354 28.076V29.2481H30.3051H31.4748V28.076V26.9039H30.3051H29.1354V28.076ZM24.9244 32.2955V33.4676H26.0941H27.2639V32.2955V31.1234H26.0941H24.9244V32.2955ZM29.1354 32.2955V33.4676H30.3051H31.4748V32.2955V31.1234H30.3051H29.1354V32.2955Z" fill="#155288" />
  <path opacity="0.5" d="M23.5 51.75H4.5V32.25" stroke="#0A459E" stroke-width="2" />
  <path opacity="0.5" d="M23.5 4.25H4.5V23.75" stroke="#0A459E" stroke-width="2" />
  <path opacity="0.5" d="M32.5 4.25H51.5V23.75" stroke="#0A459E" stroke-width="2" />
</svg>