<svg width="56" height="56" viewBox="0 0 56 56" fill="none" xmlns="http://www.w3.org/2000/svg">
  <path opacity="0.5" d="M32.5 51.75H51.5V32.25" stroke="#0A459E" stroke-width="2" />
  <path opacity="0.5" d="M23.5 51.75H4.5V32.25" stroke="#0A459E" stroke-width="2" />
  <path opacity="0.5" d="M23.5 4.25H4.5V23.75" stroke="#0A459E" stroke-width="2" />
  <path opacity="0.5" d="M32.5 4.25H51.5V23.75" stroke="#0A459E" stroke-width="2" />
  <path fill-rule="evenodd" clip-rule="evenodd" d="M30.4917 16.5098C26.7186 16.9099 22.7013 18.5168 19.9379 20.7313C19.3374 21.2126 18.3725 22.1607 17.9476 22.687C16.793 24.1174 16.0509 25.7361 15.7613 27.4563C15.5919 28.4624 15.6253 30.3021 15.8369 31.631C16.1482 33.5852 16.8366 35.2071 17.9376 36.5797C19.0188 37.9277 20.0985 38.8402 21.3686 39.4792C23.0895 40.345 24.9307 40.6587 26.9241 40.4255C29.1981 40.1595 31.1909 39.238 32.6834 37.7625C33.6685 36.7887 34.3434 35.7141 34.8526 34.3088C35.0521 33.7581 35.2098 33.4698 35.5346 33.0617C35.7718 32.7634 36.4536 32.0901 37.0307 31.5839C37.5291 31.1468 38.1668 30.4167 38.5349 29.8618C39.0455 29.092 39.3848 28.2169 39.5486 27.2467C39.6506 26.643 39.6865 25.3792 39.6185 24.7827C39.4176 23.0163 38.6221 21.2829 37.2831 19.6933C36.2735 18.4949 35.1862 17.5968 34.1581 17.112C33.2219 16.6707 32.5847 16.5265 31.4767 16.5052C31.0382 16.4968 30.5949 16.4988 30.4917 16.5098ZM30.4917 18.4079C28.294 18.6361 25.503 19.5363 23.3855 20.6999C21.352 21.8174 19.7045 23.2778 18.7536 24.8061C17.2867 27.1636 17.131 29.9905 18.3506 32.1236C19.2771 33.7439 20.8021 34.856 22.635 35.2477C23.2756 35.3846 24.4501 35.398 25.1111 35.2758C26.0793 35.0969 27.1022 34.67 27.8462 34.1343C28.5929 33.5967 29.3544 32.6981 29.7245 31.9181C30.571 30.1339 30.9358 29.5609 31.7308 28.766C32.2877 28.2093 32.9091 27.6917 33.6418 27.1741C34.6369 26.4712 35.1044 25.982 35.4906 25.2396C36.5327 23.2365 36.0361 20.8006 34.3029 19.4138C33.2418 18.5647 32.0388 18.2472 30.4917 18.4079ZM30.3846 20.2538C29.6045 20.4427 28.836 21.0689 28.5025 21.7874C28.2893 22.2465 28.2168 22.5543 28.2168 23.0002C28.2168 23.4551 28.2898 23.7597 28.5091 24.2198C28.964 25.1741 29.9769 25.8146 31.0311 25.8146C32.3051 25.8146 33.4521 24.9035 33.7744 23.6353C34.084 22.4174 33.4161 21.0336 32.2507 20.4781C32.0314 20.3736 31.7401 20.2651 31.6034 20.2369C31.2789 20.1702 30.6967 20.1782 30.3846 20.2538ZM30.6042 22.1927C30.4018 22.2984 30.3293 22.3709 30.2236 22.5733C30.148 22.718 30.093 22.8978 30.093 23.0002C30.093 23.1026 30.148 23.2824 30.2236 23.4271C30.3293 23.6295 30.4018 23.702 30.6042 23.8077C30.7489 23.8833 30.9287 23.9383 31.0311 23.9383C31.1335 23.9383 31.3134 23.8833 31.458 23.8077C31.6604 23.702 31.7329 23.6295 31.8387 23.4271C31.9142 23.2824 31.9692 23.1026 31.9692 23.0002C31.9692 22.8978 31.9142 22.718 31.8387 22.5733C31.7329 22.3709 31.6604 22.2984 31.458 22.1927C31.1387 22.0259 30.9236 22.0259 30.6042 22.1927ZM37.558 25.2048C37.1172 26.4695 36.3019 27.5592 35.1823 28.3804C32.902 30.0529 32.3365 30.6833 31.5931 32.3815C31.1938 33.2935 30.7172 34.0002 29.9999 34.7439C28.7843 36.0043 27.211 36.8186 25.3556 37.1478C24.6707 37.2694 23.1837 37.2692 22.5178 37.1476C21.9358 37.0413 21.3718 36.8805 20.854 36.6733C20.6355 36.5859 20.4499 36.5212 20.4415 36.5295C20.4332 36.5379 20.5909 36.6817 20.7919 36.8491C22.3466 38.1436 24.2895 38.7514 26.3281 38.5811C27.8659 38.4525 29.171 38.0217 30.3041 37.2684C31.6173 36.3955 32.4839 35.2827 33.0446 33.7491C33.5377 32.4003 34.0117 31.7793 35.7929 30.1479C36.8955 29.138 37.4256 28.2704 37.6513 27.1064C37.756 26.5662 37.8106 25.4538 37.7528 25.0406L37.7133 24.7592L37.558 25.2048Z" fill="#155288" />
</svg>