<svg width="56" height="56" viewBox="0 0 56 56" fill="none" xmlns="http://www.w3.org/2000/svg">
  <path fill-rule="evenodd" clip-rule="evenodd" d="M21.8236 16.5579C21.5867 16.6424 21.2892 16.9356 21.2282 17.1445C21.1975 17.25 21.1853 18.0741 21.1944 19.4272L21.2088 21.5448L21.3538 21.725C21.7521 22.2199 22.3 22.2902 22.7301 21.9015C23.0695 21.5947 23.0604 21.6658 23.0604 19.326C23.0604 16.9866 23.0694 17.0571 22.7308 16.7511C22.4561 16.5028 22.1569 16.4391 21.8236 16.5579ZM25.5737 17.9647C25.337 18.0492 25.0394 18.3422 24.978 18.5513C24.9479 18.6541 24.9351 19.2503 24.9443 20.1306L24.9589 21.5449L25.1039 21.725C25.5022 22.2199 26.0501 22.2902 26.4802 21.9015C26.8073 21.6058 26.8105 21.5879 26.8105 20.0294C26.8105 18.4712 26.8073 18.4529 26.4809 18.1579C26.2062 17.9096 25.9069 17.8459 25.5737 17.9647ZM29.3242 19.3245C29.1037 19.4032 28.8381 19.6472 28.7503 19.852C28.6613 20.0595 28.6601 21.3081 28.7487 21.5197C28.8373 21.7316 29.1597 22.0076 29.3913 22.07C29.7649 22.1706 30.1019 22.0386 30.3922 21.6782L30.5371 21.4981L30.5521 20.7541C30.569 19.9082 30.5402 19.7973 30.2309 19.5178C29.9564 19.2697 29.657 19.2058 29.3242 19.3245ZM17.1935 24.0371C16.9702 24.1055 16.7793 24.2443 16.649 24.4329L16.5212 24.618L16.5273 26.1221C16.5377 28.7115 16.809 31.6566 17.2707 34.1931C17.5959 35.9801 18.1656 37.1754 19.2086 38.2592L19.5132 38.5758L18.4391 38.576C17.8265 38.5762 17.288 38.5977 17.1858 38.626C16.9676 38.6867 16.6467 38.9671 16.5609 39.1722C16.48 39.3655 16.48 39.7087 16.5609 39.902C16.6467 40.1071 16.9676 40.3875 17.1858 40.4481C17.4235 40.5142 34.264 40.5187 34.4937 40.4528C34.715 40.3893 34.9317 40.2316 35.0649 40.0371C35.1584 39.9007 35.1779 39.8143 35.1779 39.5371C35.1779 39.1606 35.0795 38.9595 34.8024 38.7696C34.5525 38.5983 34.3762 38.5758 33.2873 38.5758H32.2398L32.5318 38.2592C32.8723 37.8902 33.2392 37.4029 33.4763 37.0048C34.0541 36.0351 34.2736 35.3279 34.5897 33.4175C34.6431 33.0951 34.6967 32.7867 34.7089 32.7323C34.7305 32.636 34.7613 32.6324 35.7749 32.6069C36.9711 32.5767 37.3382 32.5093 38.0016 32.1983C39.2468 31.6146 40.1347 30.4993 40.4096 29.1736C40.8734 26.9367 39.5156 24.7615 37.2672 24.1395L36.8186 24.0153L27.0683 24.0071C21.7057 24.0026 17.262 24.0161 17.1935 24.0371ZM18.4028 26.4421C18.4931 28.977 18.6279 30.5355 18.939 32.6437C19.14 34.0057 19.3184 34.8351 19.5127 35.3119C20.1258 36.8163 21.4532 37.9877 23.038 38.4228L23.5057 38.5512L25.873 38.5511C28.5226 38.5509 28.4451 38.5591 29.3725 38.1808C30.9602 37.5333 32.1457 36.0812 32.5015 34.3481C32.9487 32.17 33.2192 29.6229 33.3435 26.4186L33.3631 25.9145H25.8736H18.384L18.4028 26.4421ZM35.2292 26.7469C35.1853 27.9057 35.1152 29.0451 35.0352 29.9005C34.9978 30.3002 34.9672 30.6431 34.9671 30.6625C34.9668 30.7324 36.5263 30.7015 36.8166 30.6259C37.248 30.5135 37.6104 30.2938 37.9386 29.9458C38.2734 29.5907 38.458 29.2426 38.5555 28.7827C38.6452 28.3592 38.64 28.1519 38.5287 27.7165C38.3122 26.8699 37.6537 26.2045 36.8166 25.9863C36.6343 25.9388 36.3245 25.9145 35.9009 25.9145H35.2607L35.2292 26.7469Z" fill="#155288" />
  <rect opacity="0.5" x="5.49988" y="6.5" width="44" height="44" stroke="#0A459E" stroke-width="2" />
</svg>