<svg width="56" height="56" viewBox="0 0 56 56" fill="none" xmlns="http://www.w3.org/2000/svg">
  <path opacity="0.5" d="M32.5 51.75H51.5V32.25" stroke="#0A459E" stroke-width="2" />
  <path d="M28.2264 31.6685C30.2871 31.6685 31.9576 29.998 31.9576 27.9373C31.9576 25.8766 30.2871 24.2061 28.2264 24.2061C26.1656 24.2061 24.4951 25.8766 24.4951 27.9373C24.4951 29.998 26.1656 31.6685 28.2264 31.6685Z" stroke="#0A459E" stroke-width="2" />
  <path d="M30.422 15.6893C29.9648 15.5 29.3853 15.5 28.2263 15.5C27.0673 15.5 26.4878 15.5 26.0306 15.6893C25.4211 15.9418 24.9369 16.4261 24.6844 17.0356C24.5692 17.3138 24.524 17.6374 24.5064 18.1094C24.4805 18.803 24.1248 19.445 23.5236 19.7921C22.9225 20.1391 22.1887 20.1262 21.575 19.8018C21.1574 19.5811 20.8546 19.4584 20.5561 19.4191C19.902 19.3329 19.2405 19.5102 18.7171 19.9118C18.3245 20.213 18.0348 20.7149 17.4553 21.7186C16.8757 22.7224 16.586 23.2243 16.5214 23.7148C16.4353 24.3689 16.6125 25.0304 17.0142 25.5538C17.1975 25.7927 17.4551 25.9935 17.8549 26.2447C18.4428 26.6141 18.821 27.2433 18.8209 27.9374C18.8209 28.6316 18.4427 29.2607 17.8549 29.6299C17.455 29.8813 17.1974 30.0822 17.014 30.3211C16.6124 30.8445 16.4352 31.5059 16.5213 32.16C16.5859 32.6505 16.8756 33.1525 17.4551 34.1562C18.0347 35.1599 18.3244 35.6618 18.7169 35.963C19.2403 36.3646 19.9018 36.5418 20.5559 36.4557C20.8545 36.4164 21.1573 36.2937 21.5748 36.073C22.1885 35.7487 22.9224 35.7357 23.5236 36.0827C24.1247 36.4299 24.4805 37.0719 24.5064 37.7656C24.5241 38.2375 24.5692 38.5611 24.6844 38.8394C24.9369 39.4488 25.4211 39.9331 26.0306 40.1856C26.4878 40.3749 27.0673 40.3749 28.2263 40.3749C29.3853 40.3749 29.9648 40.3749 30.422 40.1856C31.0314 39.9331 31.5158 39.4488 31.7681 38.8394C31.8834 38.5611 31.9286 38.2375 31.9462 37.7655C31.9721 37.0719 32.3278 36.4299 32.9289 36.0827C33.53 35.7356 34.2639 35.7487 34.8777 36.073C35.2952 36.2937 35.598 36.4163 35.8965 36.4556C36.5506 36.5418 37.2121 36.3646 37.7355 35.963C38.128 35.6617 38.4178 35.1599 38.9973 34.156C39.5768 33.1523 39.8666 32.6505 39.9312 32.16C40.0172 31.5059 39.84 30.8443 39.4384 30.321C39.2551 30.082 38.9974 29.8812 38.5975 29.6299C38.0098 29.2607 37.6316 28.6315 37.6316 27.9373C37.6316 27.2432 38.0098 26.6142 38.5975 26.245C38.9975 25.9936 39.2552 25.7929 39.4385 25.5538C39.8401 25.0305 40.0174 24.369 39.9313 23.7149C39.8668 23.2243 39.577 22.7225 38.9974 21.7187C38.4179 20.715 38.1281 20.2131 37.7356 19.9119C37.2122 19.5103 36.5507 19.333 35.8966 19.4192C35.5981 19.4585 35.2954 19.5812 34.8777 19.8019C34.2641 20.1262 33.5301 20.1392 32.929 19.7921C32.3278 19.445 31.9721 18.803 31.9462 18.1093C31.9286 17.6374 31.8834 17.3138 31.7681 17.0356C31.5158 16.4261 31.0314 15.9418 30.422 15.6893Z" stroke="#0A459E" stroke-width="2" />
  <path opacity="0.5" d="M23.5 51.75H4.5V32.25" stroke="#0A459E" stroke-width="2" />
  <path opacity="0.5" d="M23.5 4.25H4.5V23.75" stroke="#0A459E" stroke-width="2" />
  <path opacity="0.5" d="M32.5 4.25H51.5V23.75" stroke="#0A459E" stroke-width="2" />
</svg>