<svg width="56" height="56" viewBox="0 0 56 56" fill="none" xmlns="http://www.w3.org/2000/svg">
  <path opacity="0.5" d="M32.5 51.75H51.5V32.25" stroke="#0A459E" stroke-width="2" />
  <path opacity="0.5" d="M23.5 51.75H4.5V32.25" stroke="#0A459E" stroke-width="2" />
  <path opacity="0.5" d="M23.5 4.25H4.5V23.75" stroke="#0A459E" stroke-width="2" />
  <path opacity="0.5" d="M32.5 4.25H51.5V23.75" stroke="#0A459E" stroke-width="2" />
  <path d="M27.6537 16.5V35.7M27.6537 35.7V40.5M27.6537 35.7L31.2537 39.3M27.6537 35.7L24.0537 39.3M31.2537 17.7L27.6537 21.3L24.0537 17.7" stroke="#0A459E" stroke-width="2" stroke-linecap="round" />
  <path d="M17.2618 22.5001L21.4187 24.9001M21.4187 24.9001L33.8894 32.1001M21.4187 24.9001L20.101 19.9824M21.4187 24.9001L16.501 26.2178M33.8894 32.1001L38.0463 34.5001M33.8894 32.1001L38.8071 30.7824M33.8894 32.1001L35.2071 37.0178" stroke="#0A459E" stroke-width="2" stroke-linecap="round" />
  <path d="M38.0453 22.5001L33.8884 24.9001M33.8884 24.9001L21.4177 32.1001M33.8884 24.9001L35.2061 19.9824M33.8884 24.9001L38.8061 26.2178M21.4177 32.1001L17.2608 34.5001M21.4177 32.1001L16.5 30.7824M21.4177 32.1001L20.1 37.0178" stroke="#0A459E" stroke-width="2" stroke-linecap="round" />
</svg>