<svg width="23" height="23" viewBox="0 0 23 23" fill="none" xmlns="http://www.w3.org/2000/svg">
  <path d="M15.1965 12.3216C16.4989 12.3216 17.5991 13.1876 17.9525 14.3753L19.7144 14.3751C20.168 14.3751 20.5358 14.7429 20.5358 15.1966C20.5358 15.6502 20.168 16.018 19.7144 16.018L17.9522 16.0187C17.5986 17.2059 16.4986 18.0716 15.1965 18.0716C13.8944 18.0716 12.7944 17.2059 12.4408 16.0187L3.28578 16.018C2.83212 16.018 2.46436 15.6502 2.46436 15.1966C2.46436 14.7429 2.83212 14.3751 3.28578 14.3751L12.4405 14.3753C12.7939 13.1876 13.8941 12.3216 15.1965 12.3216ZM15.1965 13.7591C14.4026 13.7591 13.759 14.4027 13.759 15.1966C13.759 15.9905 14.4026 16.6341 15.1965 16.6341C15.9904 16.6341 16.634 15.9905 16.634 15.1966C16.634 14.4027 15.9904 13.7591 15.1965 13.7591ZM8.62507 4.92871C9.9275 4.92871 11.0277 5.79477 11.3811 6.98242L19.7144 6.98228C20.168 6.98228 20.5358 7.35005 20.5358 7.80371C20.5358 8.25737 20.168 8.62514 19.7144 8.62514L11.3808 8.62583C11.0271 9.81305 9.9272 10.6787 8.62507 10.6787C7.32294 10.6787 6.22299 9.81305 5.86933 8.62583L3.28578 8.62514C2.83212 8.62514 2.46436 8.25737 2.46436 7.80371C2.46436 7.35005 2.83212 6.98228 3.28578 6.98228L5.86909 6.98242C6.22248 5.79477 7.32264 4.92871 8.62507 4.92871ZM8.62507 6.36621C7.83116 6.36621 7.18757 7.0098 7.18757 7.80371C7.18757 8.59762 7.83116 9.24121 8.62507 9.24121C9.41898 9.24121 10.0626 8.59762 10.0626 7.80371C10.0626 7.0098 9.41898 6.36621 8.62507 6.36621Z" fill="#004277" />
</svg>