<svg width="61" height="61" viewBox="0 0 61 61" fill="none" xmlns="http://www.w3.org/2000/svg">
  <rect x="0.5" y="0.5" width="60" height="60" stroke="white" stroke-opacity="0.04" />
  <path fill-rule="evenodd" clip-rule="evenodd" d="M32.3382 25.9599V29.9351C32.3338 30.0008 32.3455 30.0665 32.3725 30.1269C32.3995 30.1873 32.4409 30.2407 32.4934 30.2825C32.5459 30.3244 32.6079 30.3535 32.6743 30.3676C32.7408 30.3817 32.8097 30.3803 32.8755 30.3635C33.2538 30.3379 34.1089 26.9461 34.4885 26.2064C34.69 25.7894 35.0137 25.4389 35.4194 25.1983C35.5471 25.0863 35.7102 25.0192 35.8822 25.0079H39.512C39.6099 25.0239 39.7021 25.0637 39.7798 25.1237C39.8574 25.1836 39.918 25.2617 39.9558 25.3506C39.9937 25.4395 40.0076 25.5362 39.9961 25.6317C39.9846 25.7272 39.9482 25.8183 39.8903 25.8964C39.6066 26.5067 37.1724 30.3025 37.0463 30.4563C36.8945 30.6547 36.7922 30.8845 36.7474 31.1275C36.797 31.4148 36.934 31.6813 37.1409 31.8928C37.3931 32.1686 39.4312 34.3399 39.6217 34.523C39.8012 34.7224 39.9212 34.9655 39.9685 35.226C39.9231 35.4481 39.7956 35.6466 39.6099 35.7843C39.4242 35.922 39.193 35.9895 38.9596 35.9742C38.1701 35.9742 36.2278 35.9742 36.0058 35.9742C35.5621 35.8239 35.154 35.5895 34.8052 35.2846C34.5214 35.0405 33.4695 33.8786 33.3119 33.726C33.2585 33.6639 33.1903 33.6153 33.1132 33.5845C33.036 33.5537 32.9523 33.5415 32.8692 33.549C32.68 33.549 32.3205 33.5673 32.3369 34.263C32.382 34.745 32.2775 35.229 32.0368 35.6532C31.9137 35.7674 31.7677 35.8562 31.6079 35.9139C31.448 35.9716 31.2777 35.9971 31.1073 35.9888C29.8172 36.0645 28.5343 35.7548 27.4321 35.1015C25.447 33.9091 23.1869 30.7224 22.135 28.689C21.5076 27.6795 21.12 26.5476 21 25.3753C21.0631 25.1605 21.063 25.0091 21.285 25.0091C21.5069 25.0091 24.298 25.0091 24.5642 25.0091C24.7487 25.0971 24.9026 25.2354 25.0069 25.407C25.1014 25.5291 25.8228 27.6186 26.0435 27.986C26.2642 28.3533 27.3526 30.366 27.9429 30.366C28.1389 30.3287 28.3117 30.218 28.4237 30.058C28.5357 29.8979 28.5777 29.7015 28.5407 29.5116C28.5407 29.0234 28.5407 27.0962 28.5407 26.8509C28.3008 26.3097 27.861 25.8745 27.3073 25.6304C27.4452 25.4531 27.6211 25.3068 27.8229 25.2015C28.0247 25.0962 28.2476 25.0343 28.4764 25.0201C29.2331 24.9896 31.1312 24.9896 31.5411 25.0494C31.7611 25.0909 31.96 25.2037 32.1048 25.3693C32.2497 25.5348 32.3321 25.7431 32.3382 25.9599Z" fill="white" />
</svg>