<svg width="61" height="61" viewBox="0 0 61 61" fill="none" xmlns="http://www.w3.org/2000/svg">
  <rect x="0.5" y="0.5" width="60" height="60" stroke="white" stroke-opacity="0.04" />
  <path fill-rule="evenodd" clip-rule="evenodd" d="M31.1719 38.9543C29.6017 38.9543 28.872 38.7241 27.6036 37.8032C26.8013 38.8392 24.2607 39.6488 24.1499 38.2637C24.1499 37.2238 23.9207 36.3452 23.6609 35.3859C23.3515 34.2041 23 32.888 23 30.981C23 26.4265 26.7211 23 31.1299 23C35.5425 23 39 26.5953 39 31.0232C39.0148 35.3827 35.5125 38.9311 31.1719 38.9543ZM31.2368 26.9368C29.0898 26.8255 27.4164 28.3181 27.0458 30.6587C26.7402 32.5964 27.2827 34.9562 27.745 35.0789C27.9666 35.1327 28.5243 34.6799 28.872 34.3307C29.4469 34.7296 30.1163 34.9691 30.8128 35.0252C33.0375 35.1327 34.9384 33.4317 35.0878 31.1997C35.1748 28.9631 33.4619 27.0686 31.2368 26.9406L31.2368 26.9368Z" fill="white" />
</svg>