<svg width="61" height="61" viewBox="0 0 61 61" fill="none" xmlns="http://www.w3.org/2000/svg">
  <rect x="0.5" y="0.5" width="60" height="60" stroke="white" stroke-opacity="0.04" />
  <path fill-rule="evenodd" clip-rule="evenodd" d="M36.697 36.8826C36.6761 37.1134 36.5877 37.3326 36.4431 37.5118C36.2985 37.691 36.1044 37.8221 35.8858 37.8881C35.6672 37.9542 35.4343 37.9521 35.2168 37.8822C34.9994 37.8124 34.8075 37.6779 34.666 37.4961C33.4223 36.4905 31.4827 35.0431 31.4827 35.0431C31.4827 35.0431 30.0792 37.5564 29.8281 37.8139C29.7453 37.8849 29.6489 37.9375 29.5448 37.9683C29.4408 37.9992 29.3315 38.0076 29.2241 37.9931C29.1167 37.9786 29.0135 37.9414 28.921 37.884C28.8285 37.8265 28.7489 37.7501 28.6871 37.6596C28.6743 37.62 28.6592 37.5813 28.6416 37.5437L29.4288 33.54L35.0426 27.9346L27.3864 32.3755C27.3864 32.3755 23.9292 31.3247 23.4157 31.1195C23.2833 31.0459 23.1741 30.9357 23.1007 30.8016C23.0273 30.6676 22.9929 30.5152 23.0012 30.362C23.0096 30.2088 23.0604 30.0612 23.1479 29.9362C23.2354 29.8112 23.356 29.7139 23.4957 29.6557C24.2259 29.2776 37.1077 24.2766 37.5413 24.1478C37.9749 24.0191 39.1159 23.6839 38.9904 24.8124C38.8649 25.9409 36.8225 36.2632 36.697 36.8826Z" fill="white" />
</svg>