<svg width="61" height="61" viewBox="0 0 61 61" fill="none" xmlns="http://www.w3.org/2000/svg">
<rect x="0.5" y="0.5" width="60" height="60" stroke="white" stroke-opacity="0.04"/>
<path fill-rule="evenodd" clip-rule="evenodd" d="M30.5003 39C28.8977 38.9959 27.3292 38.5351 25.9782 37.6715L22 39L23.3261 35.0134C22.327 33.4162 21.8862 31.5315 22.073 29.6559C22.2599 27.7802 23.0639 26.02 24.3583 24.6521C25.6528 23.2841 27.3643 22.386 29.2239 22.0991C31.0835 21.8121 32.9856 22.1526 34.6309 23.0669C36.2763 23.9811 37.5716 25.4174 38.3132 27.1498C39.0548 28.8821 39.2005 30.8123 38.7275 32.6367C38.2546 34.4612 37.1897 36.0763 35.7004 37.2282C34.2111 38.3801 32.3818 39.0034 30.5003 39ZM32.3477 31.774C32.913 31.9591 33.4882 32.1126 34.0705 32.2338C34.1317 32.2428 34.1905 32.2642 34.2433 32.2965C34.2961 32.3288 34.3419 32.3715 34.3779 32.422C34.4139 32.4724 34.4394 32.5296 34.4528 32.5902C34.4661 32.6507 34.4671 32.7133 34.4558 32.7743V33.0956C34.4614 33.2123 34.4398 33.3287 34.3926 33.4356C34.3453 33.5424 34.2738 33.6368 34.1838 33.7111C33.9045 33.9951 33.5737 34.2232 33.2091 34.3832C32.6713 34.4473 32.126 34.3998 31.6073 34.2435C31.0886 34.0872 30.6076 33.8256 30.1943 33.4749C29.6611 33.1171 29.164 32.7083 28.7096 32.2543C28.2572 31.7965 27.8474 31.2982 27.4855 30.7657C27.1382 30.3514 26.8796 29.87 26.7255 29.3515C26.5715 28.8329 26.5255 28.2882 26.5902 27.751C26.7502 27.3879 26.977 27.0581 27.2589 26.7791C27.3307 26.6871 27.4242 26.6144 27.531 26.5676C27.6379 26.5209 27.7548 26.5014 27.8709 26.5112H28.1995C28.3235 26.494 28.4493 26.5268 28.5491 26.6024C28.649 26.6779 28.7148 26.7901 28.7322 26.9142C28.9022 27.5864 29.0269 28.0724 29.1969 28.6174C29.2649 28.8445 29.1857 28.899 29.0043 29.0353C28.891 29.1227 28.8003 29.1863 28.7096 29.2544C28.6571 29.2772 28.6099 29.3108 28.5711 29.3531C28.5324 29.3954 28.503 29.4454 28.4848 29.4998C28.4666 29.5542 28.4602 29.6118 28.4657 29.6689C28.4712 29.726 28.4887 29.7813 28.5169 29.8312C28.8064 30.3893 29.1768 30.9013 29.6163 31.3504C30.0639 31.7915 30.5762 32.1618 31.1351 32.4484C31.1851 32.4763 31.2402 32.4934 31.2972 32.4988C31.3542 32.5041 31.4117 32.4976 31.466 32.4796C31.5203 32.4615 31.5704 32.4324 31.6129 32.394C31.6555 32.3556 31.6894 32.3088 31.713 32.2565C31.781 32.1646 31.8377 32.0794 31.9284 31.9602C31.9427 31.9194 31.965 31.882 31.994 31.8501C32.0229 31.8181 32.0579 31.7923 32.097 31.7742C32.1361 31.7561 32.1785 31.7461 32.2216 31.7447C32.2646 31.7433 32.3075 31.7505 32.3477 31.766V31.774Z" fill="white"/>
</svg>
