<svg width="14" height="14" viewBox="0 0 14 14" fill="none" xmlns="http://www.w3.org/2000/svg">
  <path d="M6.26268 0C9.72147 0 12.5254 2.78914 12.5254 6.22971C12.5254 7.63996 12.0543 8.94076 11.2601 9.98491L13.747 12.5331C14.0843 12.8687 14.0843 13.4128 13.747 13.7483C13.4097 14.0839 12.8627 14.0839 12.5254 13.7483L10.0378 11.2008C8.98808 11.9908 7.6804 12.4594 6.26268 12.4594C2.8039 12.4594 0 9.67028 0 6.22971C0 2.78914 2.8039 0 6.26268 0ZM6.26268 1.71854C3.75805 1.71854 1.72764 3.73826 1.72764 6.22971C1.72764 8.72116 3.75805 10.7409 6.26268 10.7409C8.76732 10.7409 10.7977 8.72116 10.7977 6.22971C10.7977 3.73826 8.76732 1.71854 6.26268 1.71854Z" fill="white" />
</svg>