<svg width="14" height="14" viewBox="0 0 14 14" fill="none" xmlns="http://www.w3.org/2000/svg">
  <path d="M0.256282 0.256282C0.597991 -0.085427 1.15201 -0.085427 1.49372 0.256282L7 5.76188L12.5063 0.256282C12.8217 -0.0591417 13.318 -0.0834054 13.6613 0.183491L13.7437 0.256282C14.0854 0.597991 14.0854 1.15201 13.7437 1.49372L8.23812 7L13.7437 12.5063C14.0591 12.8217 14.0834 13.318 13.8165 13.6613L13.7437 13.7437C13.402 14.0854 12.848 14.0854 12.5063 13.7437L7 8.23812L1.49372 13.7437C1.17829 14.0591 0.681968 14.0834 0.338713 13.8165L0.256282 13.7437C-0.085427 13.402 -0.085427 12.848 0.256282 12.5063L5.76188 7L0.256282 1.49372C-0.0591417 1.17829 -0.0834054 0.681968 0.183491 0.338713L0.256282 0.256282Z" fill="white" />
</svg>