<svg width="43" height="43" viewBox="0 0 43 43" fill="none" xmlns="http://www.w3.org/2000/svg">
<rect width="43" height="43" fill="white"/>
<rect x="0.6" y="0.6" width="41.8" height="41.8" stroke="#0A459E" stroke-opacity="0.1" stroke-width="1.2"/>
<path d="M15.1693 15.1693C15.4901 14.8485 16.0102 14.8485 16.331 15.1693L21.5001 20.3378L26.6693 15.1693C26.9654 14.8732 27.4314 14.8504 27.7536 15.101L27.831 15.1693C28.1518 15.4901 28.1518 16.0102 27.831 16.331L22.6625 21.5001L27.831 26.6693C28.1271 26.9654 28.1499 27.4314 27.8993 27.7536L27.831 27.831C27.5102 28.1518 26.9901 28.1518 26.6693 27.831L21.5001 22.6625L16.331 27.831C16.0349 28.1271 15.5689 28.1499 15.2467 27.8993L15.1693 27.831C14.8485 27.5102 14.8485 26.9901 15.1693 26.6693L20.3378 21.5001L15.1693 16.331C14.8732 16.0349 14.8504 15.5689 15.101 15.2467L15.1693 15.1693Z" fill="#004277"/>
</svg>
