<svg width="22" height="22" viewBox="0 0 22 22" fill="none" xmlns="http://www.w3.org/2000/svg">
  <path d="M10.2147 3.53564C13.9032 3.53564 16.8933 6.52574 16.8933 10.2142C16.8933 11.7754 16.3576 13.2115 15.46 14.3487L19.0203 17.9086C19.3271 18.2155 19.3271 18.713 19.0203 19.0198C18.7134 19.3266 18.216 19.3266 17.9091 19.0198L14.3492 15.4595C13.212 16.3571 11.7759 16.8928 10.2147 16.8928C6.52623 16.8928 3.53613 13.9027 3.53613 10.2142C3.53613 6.52574 6.52623 3.53564 10.2147 3.53564ZM10.2147 5.10707C7.39411 5.10707 5.10756 7.39362 5.10756 10.2142C5.10756 13.0348 7.39411 15.3214 10.2147 15.3214C13.0353 15.3214 15.3218 13.0348 15.3218 10.2142C15.3218 7.39362 13.0353 5.10707 10.2147 5.10707Z" fill="#66768C" />
</svg>