<svg width="43" height="43" viewBox="0 0 43 43" fill="none" xmlns="http://www.w3.org/2000/svg">
<rect width="43" height="43" fill="white"/>
<rect x="0.6" y="0.6" width="41.8" height="41.8" stroke="#0A459E" stroke-opacity="0.1" stroke-width="1.2"/>
<path d="M12.8752 20.5418H30.1252C30.6544 20.5418 31.0835 20.9709 31.0835 21.5002C31.0835 22.0294 30.6544 22.4585 30.1252 22.4585H12.8752C12.3459 22.4585 11.9168 22.0294 11.9168 21.5002C11.9168 20.9709 12.3459 20.5418 12.8752 20.5418ZM12.8752 13.8335H30.1252C30.6544 13.8335 31.0835 14.2626 31.0835 14.7918C31.0835 15.3211 30.6544 15.7502 30.1252 15.7502H12.8752C12.3459 15.7502 11.9168 15.3211 11.9168 14.7918C11.9168 14.2626 12.3459 13.8335 12.8752 13.8335ZM30.1252 29.1668H20.5418C20.0126 29.1668 19.5835 28.7378 19.5835 28.2085C19.5835 27.6792 20.0126 27.2502 20.5418 27.2502H30.1252C30.6544 27.2502 31.0835 27.6792 31.0835 28.2085C31.0835 28.7378 30.6544 29.1668 30.1252 29.1668Z" fill="#0A459E"/>
</svg>
