<svg width="18" height="12" viewBox="0 0 18 12" fill="none" xmlns="http://www.w3.org/2000/svg">
  <path d="M0.799805 5.09111C0.357977 5.09111 -0.000195324 5.44929 -0.000195324 5.89111C-0.000195324 6.33294 0.357977 6.69111 0.799805 6.69111V5.89111V5.09111ZM16.9218 6.4568C17.2343 6.14438 17.2343 5.63785 16.9218 5.32543L11.8307 0.234259C11.5183 -0.0781603 11.0117 -0.0781603 10.6993 0.234259C10.3869 0.546679 10.3869 1.05321 10.6993 1.36563L15.2248 5.89111L10.6993 10.4166C10.3869 10.729 10.3869 11.2355 10.6993 11.548C11.0117 11.8604 11.5183 11.8604 11.8307 11.548L16.9218 6.4568ZM0.799805 5.89111V6.69111L16.3562 6.69111V5.89111V5.09111L0.799805 5.09111V5.89111Z" fill="#0A459E" />
</svg>