<svg width="24" height="24" viewBox="0 0 24 24" fill="none" xmlns="http://www.w3.org/2000/svg">
  <path d="M11.9996 4.6001C17.1993 4.6001 22.3996 8.83737 22.3996 12.0001C22.3996 15.1628 17.1993 19.4001 11.9996 19.4001C6.79989 19.4001 1.59961 15.1628 1.59961 12.0001C1.59961 8.83737 6.79989 4.6001 11.9996 4.6001ZM11.9996 6.4001C7.72205 6.4001 3.39961 9.92209 3.39961 12.0001C3.39961 14.0781 7.72205 17.6001 11.9996 17.6001C16.2772 17.6001 20.5996 14.0781 20.5996 12.0001C20.5996 9.92209 16.2772 6.4001 11.9996 6.4001ZM11.9996 8.6001C13.8774 8.6001 15.3996 10.1223 15.3996 12.0001C15.3996 13.8779 13.8774 15.4001 11.9996 15.4001C10.1218 15.4001 8.59961 13.8779 8.59961 12.0001C8.59961 10.1223 10.1218 8.6001 11.9996 8.6001ZM11.9996 10.4001C11.116 10.4001 10.3996 11.1164 10.3996 12.0001C10.3996 12.8838 11.116 13.6001 11.9996 13.6001C12.8833 13.6001 13.5996 12.8838 13.5996 12.0001C13.5996 11.1164 12.8833 10.4001 11.9996 10.4001Z" fill="#66768C" />
</svg>