<svg width="56" height="56" viewBox="0 0 56 56" fill="none" xmlns="http://www.w3.org/2000/svg">
  <path opacity="0.5" d="M32.5 51.75H51.5V32.25" stroke="#0A459E" stroke-width="2" />
  <path opacity="0.5" d="M23.5 51.75H4.5V32.25" stroke="#0A459E" stroke-width="2" />
  <path opacity="0.5" d="M23.5 4.25H4.5V23.75" stroke="#0A459E" stroke-width="2" />
  <path opacity="0.5" d="M32.5 4.25H51.5V23.75" stroke="#0A459E" stroke-width="2" />
  <path d="M17.7002 26.6C17.7002 22.7629 17.7002 20.8443 18.1532 20.1989C18.6062 19.5534 20.4102 18.936 24.0181 17.7009L24.7055 17.4657C26.5862 16.8219 27.5265 16.5 28.5002 16.5C29.4739 16.5 30.4142 16.8219 32.295 17.4657L32.9823 17.7009C36.5902 18.936 38.3942 19.5534 38.8472 20.1989C39.3002 20.8443 39.3002 22.7629 39.3002 26.6C39.3002 27.1795 39.3002 27.8081 39.3002 28.4897C39.3002 35.2553 34.2134 38.5386 31.0219 39.9328C30.1562 40.3109 29.7234 40.5 28.5002 40.5C27.277 40.5 26.8442 40.3109 25.9785 39.9328C22.7869 38.5386 17.7002 35.2553 17.7002 28.4897C17.7002 27.8081 17.7002 27.1795 17.7002 26.6Z" stroke="#155288" stroke-width="1.8" />
  <path d="M25.5 28.9801L27.2143 30.9001L31.5 26.1001" stroke="#155288" stroke-width="2" stroke-linecap="round" stroke-linejoin="round" />
</svg>