<svg width="56" height="56" viewBox="0 0 56 56" fill="none" xmlns="http://www.w3.org/2000/svg">
  <path opacity="0.5" d="M32.5 51.75H51.5V32.25" stroke="#0A459E" stroke-width="2" />
  <path opacity="0.5" d="M23.5 51.75H4.5V32.25" stroke="#0A459E" stroke-width="2" />
  <path opacity="0.5" d="M23.5 4.25H4.5V23.75" stroke="#0A459E" stroke-width="2" />
  <path opacity="0.5" d="M32.5 4.25H51.5V23.75" stroke="#0A459E" stroke-width="2" />
  <path d="M35.3154 23.7472L35.8716 23.1911C36.793 22.2696 38.287 22.2696 39.2084 23.1911C40.1298 24.1125 40.1298 25.6064 39.2084 26.5278L38.6523 27.084M35.3154 23.7472C35.3154 23.7472 35.385 24.929 36.4277 25.9717C37.4705 27.0144 38.6523 27.084 38.6523 27.084M35.3154 23.7472L30.2027 28.8599C29.8564 29.2062 29.6832 29.3794 29.5343 29.5703C29.3588 29.7955 29.2082 30.0392 29.0853 30.297C28.9811 30.5156 28.9036 30.7478 28.7488 31.2125L28.253 32.7L28.0925 33.1812M38.6523 27.084L33.5396 32.1967C33.1932 32.543 33.0201 32.7162 32.8292 32.8651C32.6039 33.0407 32.3602 33.1913 32.1024 33.3142C31.8838 33.4183 31.6516 33.4958 31.187 33.6506L29.6994 34.1465L29.2182 34.3069M28.0925 33.1812L27.9321 33.6625C27.8559 33.8911 27.9154 34.1432 28.0858 34.3136C28.2562 34.484 28.5083 34.5436 28.7369 34.4674L29.2182 34.3069M28.0925 33.1812L29.2182 34.3069" stroke="#155288" stroke-width="2" />
  <path d="M23.0996 29.7002H26.0996" stroke="#155288" stroke-width="2" stroke-linecap="round" />
  <path d="M23.0996 24.9004H30.8996" stroke="#155288" stroke-width="2" stroke-linecap="round" />
  <path d="M23.0996 34.5H24.8996" stroke="#155288" stroke-width="2" stroke-linecap="round" />
  <path d="M37.2937 17.9059C35.8879 16.5 33.625 16.5 29.0996 16.5H26.6996C22.1741 16.5 19.9114 16.5 18.5055 17.9059C17.0996 19.3118 17.0996 21.5745 17.0996 26.1V30.9C17.0996 35.4254 17.0996 37.6883 18.5055 39.0941C19.9114 40.5 22.1741 40.5 26.6996 40.5H29.0996C33.625 40.5 35.8879 40.5 37.2937 39.0941C38.4254 37.9624 38.6461 36.2755 38.6892 33.3" stroke="#155288" stroke-width="2" stroke-linecap="round" />
</svg>