<svg width="56" height="56" viewBox="0 0 56 56" fill="none" xmlns="http://www.w3.org/2000/svg">
  <path opacity="0.5" d="M32.5 51.75H51.5V32.25" stroke="#0A459E" stroke-width="2" />
  <path opacity="0.5" d="M23.5 51.75H4.5V32.25" stroke="#0A459E" stroke-width="2" />
  <path opacity="0.5" d="M23.5 4.25H4.5V23.75" stroke="#0A459E" stroke-width="2" />
  <path opacity="0.5" d="M32.5 4.25H51.5V23.75" stroke="#0A459E" stroke-width="2" />
  <path d="M24.9004 32.0999L32.1004 24.8999" stroke="#155288" stroke-width="2" stroke-linecap="round" />
  <path d="M32.7008 31.4998C32.7008 32.1626 32.1635 32.6998 31.5008 32.6998C30.838 32.6998 30.3008 32.1626 30.3008 31.4998C30.3008 30.837 30.838 30.2998 31.5008 30.2998C32.1635 30.2998 32.7008 30.837 32.7008 31.4998Z" fill="#155288" />
  <path d="M26.6998 25.4998C26.6998 26.1626 26.1626 26.6998 25.4998 26.6998C24.8371 26.6998 24.2998 26.1626 24.2998 25.4998C24.2998 24.8371 24.8371 24.2998 25.4998 24.2998C26.1626 24.2998 26.6998 24.8371 26.6998 25.4998Z" fill="#155288" />
  <path d="M16.5 28.5C16.5 22.8431 16.5 20.0147 18.2574 18.2574C20.0147 16.5 22.8431 16.5 28.5 16.5C34.1568 16.5 36.9853 16.5 38.7426 18.2574C40.5 20.0147 40.5 22.8431 40.5 28.5C40.5 34.1568 40.5 36.9853 38.7426 38.7426C36.9853 40.5 34.1568 40.5 28.5 40.5C22.8431 40.5 20.0147 40.5 18.2574 38.7426C16.5 36.9853 16.5 34.1568 16.5 28.5Z" stroke="#155288" stroke-width="2" />
</svg>