<svg width="56" height="56" viewBox="0 0 56 56" fill="none" xmlns="http://www.w3.org/2000/svg">
  <path opacity="0.5" d="M32.5 51.75H51.5V32.25" stroke="#0A459E" stroke-width="2" />
  <path opacity="0.5" d="M23.5 51.75H4.5V32.25" stroke="#0A459E" stroke-width="2" />
  <path opacity="0.5" d="M23.5 4.25H4.5V23.75" stroke="#0A459E" stroke-width="2" />
  <path opacity="0.5" d="M32.5 4.25H51.5V23.75" stroke="#0A459E" stroke-width="2" />
  <path d="M30.1748 16.2998C31.9814 16.2998 33.4092 16.2987 34.5508 16.4072C35.708 16.5173 36.6785 16.7475 37.54 17.2754C38.4304 17.821 39.179 18.5697 39.7246 19.46C40.2524 20.3214 40.4828 21.292 40.5928 22.4492C40.7013 23.5908 40.7002 25.0186 40.7002 26.8252V27.9424C40.7002 29.2283 40.7006 30.2447 40.6445 31.0664C40.5878 31.8976 40.4698 32.6054 40.1963 33.2656C39.5245 34.8873 38.2359 36.1759 36.6143 36.8477C35.6773 37.2357 34.6192 37.3177 33.2178 37.3418C32.9707 37.3461 32.7722 37.3497 32.6074 37.3555L32.1992 37.3809C31.993 37.4038 31.938 37.4354 31.9209 37.4453C31.9006 37.4571 31.8473 37.4895 31.7314 37.6484C31.6672 37.7366 31.5981 37.8422 31.5146 37.9775L31.2109 38.4854L30.6055 39.5078C29.6644 41.0974 27.3356 41.0974 26.3945 39.5078L25.7891 38.4854C25.5444 38.072 25.3971 37.8249 25.2686 37.6484C25.1527 37.4895 25.0994 37.4571 25.0791 37.4453C25.0619 37.4353 25.006 37.4037 24.8008 37.3809C24.5755 37.356 24.276 37.3503 23.7822 37.3418C22.3808 37.3177 21.3228 37.2358 20.3857 36.8477C18.764 36.1759 17.4755 34.8873 16.8037 33.2656C16.5302 32.6054 16.4122 31.8976 16.3555 31.0664C16.2994 30.2447 16.2998 29.2283 16.2998 27.9424V26.8252C16.2998 25.0186 16.2987 23.5908 16.4072 22.4492C16.5173 21.292 16.7475 20.3214 17.2754 19.46C17.821 18.5697 18.5697 17.821 19.46 17.2754C20.3214 16.7475 21.292 16.5173 22.4492 16.4072C23.5908 16.2987 25.0186 16.2998 26.8252 16.2998H30.1748ZM26.8252 18.374C24.9784 18.374 23.6662 18.3756 22.6455 18.4727C21.6401 18.5682 21.0247 18.7494 20.5439 19.0439C19.9327 19.4186 19.4186 19.9327 19.0439 20.5439C18.7494 21.0247 18.5682 21.6401 18.4727 22.6455C18.3756 23.6662 18.374 24.9784 18.374 26.8252V27.9424C18.374 29.2564 18.3747 30.1901 18.4248 30.9248C18.4743 31.6504 18.5694 32.1063 18.7207 32.4717C19.1819 33.585 20.0663 34.4694 21.1797 34.9307C21.7166 35.1531 22.4166 35.2433 23.8184 35.2676C24.2737 35.2754 24.6859 35.2814 25.0293 35.3193C25.392 35.3595 25.7624 35.4422 26.1221 35.6514C26.4785 35.8587 26.7321 36.1344 26.9453 36.4268C27.1456 36.7016 27.3496 37.0491 27.5742 37.4287L28.1797 38.4512C28.3175 38.6837 28.6826 38.6836 28.8203 38.4512L29.4258 37.4287C29.6505 37.0492 29.8544 36.7016 30.0547 36.4268C30.2678 36.1343 30.5215 35.8587 30.8779 35.6514C31.2377 35.4422 31.608 35.3595 31.9707 35.3193C32.3143 35.2814 32.7271 35.2754 33.1826 35.2676C34.584 35.2433 35.2835 35.153 35.8203 34.9307C36.9337 34.4694 37.818 33.5851 38.2793 32.4717C38.4306 32.1063 38.5257 31.6504 38.5752 30.9248C38.6253 30.1901 38.626 29.2564 38.626 27.9424V26.8252C38.626 24.9784 38.6243 23.6662 38.5273 22.6455C38.4317 21.6401 38.2507 21.0247 37.9561 20.5439C37.5814 19.9327 37.0674 19.4186 36.4561 19.0439C35.9754 18.7494 35.3599 18.5682 34.3545 18.4727C33.3338 18.3756 32.0215 18.374 30.1748 18.374H26.8252Z" fill="#155288" />
  <path d="M24.0352 27.3838H24.0452M28.4902 27.3838H28.5003M32.9554 27.3838H32.9654" stroke="#155288" stroke-width="2.23256" stroke-linecap="round" stroke-linejoin="round" />
</svg>