<svg width="56" height="56" viewBox="0 0 56 56" fill="none" xmlns="http://www.w3.org/2000/svg">
  <path opacity="0.5" d="M32.5 51.75H51.5V32.25" stroke="#0A459E" stroke-width="2" />
  <path opacity="0.5" d="M23.5 51.75H4.5V32.25" stroke="#0A459E" stroke-width="2" />
  <path opacity="0.5" d="M23.5 4.25H4.5V23.75" stroke="#0A459E" stroke-width="2" />
  <path opacity="0.5" d="M32.5 4.25H51.5V23.75" stroke="#0A459E" stroke-width="2" />
  <path d="M23.7 20.1C23.7 22.0882 22.0882 23.7 20.1 23.7C18.1118 23.7 16.5 22.0882 16.5 20.1C16.5 18.1118 18.1118 16.5 20.1 16.5C22.0882 16.5 23.7 18.1118 23.7 20.1Z" stroke="#155288" stroke-width="2" />
  <path d="M40.4998 20.1C40.4998 22.0882 38.8881 23.7 36.8998 23.7C34.9115 23.7 33.2998 22.0882 33.2998 20.1C33.2998 18.1118 34.9115 16.5 36.8998 16.5C38.8881 16.5 40.4998 18.1118 40.4998 20.1Z" stroke="#155288" stroke-width="2" />
  <path d="M23.7 36.8998C23.7 38.8881 22.0882 40.4998 20.1 40.4998C18.1118 40.4998 16.5 38.8881 16.5 36.8998C16.5 34.9115 18.1118 33.2998 20.1 33.2998C22.0882 33.2998 23.7 34.9115 23.7 36.8998Z" stroke="#155288" stroke-width="2" />
  <path d="M40.4998 36.8998C40.4998 38.8881 38.8881 40.4998 36.8998 40.4998C34.9115 40.4998 33.2998 38.8881 33.2998 36.8998C33.2998 34.9115 34.9115 33.2998 36.8998 33.2998C38.8881 33.2998 40.4998 34.9115 40.4998 36.8998Z" stroke="#155288" stroke-width="2" />
  <path d="M23.7002 36.8999H33.3002" stroke="#155288" stroke-width="2" stroke-linecap="round" />
  <path d="M23.7002 20.1001H33.3002" stroke="#155288" stroke-width="2" stroke-linecap="round" />
  <path d="M36.9004 33.3002V23.7002" stroke="#155288" stroke-width="2" stroke-linecap="round" />
  <path d="M20.0996 33.3002V23.7002" stroke="#155288" stroke-width="2" stroke-linecap="round" />
</svg>