<svg width="56" height="56" viewBox="0 0 56 56" fill="none" xmlns="http://www.w3.org/2000/svg">
  <path opacity="0.5" d="M32.5 51.75H51.5V32.25" stroke="#0A459E" stroke-width="2" />
  <path opacity="0.5" d="M23.5 51.75H4.5V32.25" stroke="#0A459E" stroke-width="2" />
  <path opacity="0.5" d="M23.5 4.25H4.5V23.75" stroke="#0A459E" stroke-width="2" />
  <path opacity="0.5" d="M32.5 4.25H51.5V23.75" stroke="#0A459E" stroke-width="2" />
  <path fill-rule="evenodd" clip-rule="evenodd" d="M27.5706 16.1061C27.4562 16.1661 27.2988 16.305 27.2209 16.4148L27.0792 16.6144L27.0556 17.9889L27.032 19.3634L25.7852 18.6321C24.6395 17.9603 24.5171 17.8995 24.2742 17.8831C23.5673 17.8352 23.0637 18.5755 23.3724 19.2088C23.4305 19.3278 23.5409 19.4715 23.6178 19.5281C23.6947 19.5847 24.4943 20.0636 25.3948 20.5924L27.032 21.5538L27.0437 22.6321L27.0554 23.7105L25.9277 24.3534C25.3074 24.707 24.7803 25.0024 24.7563 25.0099C24.7106 25.024 22.1921 23.5993 22.1921 23.5593C22.1921 23.5467 22.2993 22.7631 22.4305 21.8181C22.5808 20.7344 22.6584 20.0277 22.6406 19.9045C22.6042 19.6521 22.3851 19.3542 22.1473 19.2337C21.9403 19.1288 21.5727 19.1077 21.357 19.1884C21.1722 19.2574 20.8806 19.5497 20.8249 19.7219C20.7993 19.8008 20.7028 20.4246 20.6105 21.1081C20.5182 21.7915 20.4326 22.3965 20.4202 22.4524C20.3994 22.5469 20.336 22.5187 19.536 22.0585C18.5277 21.4785 18.4352 21.4363 18.1712 21.4363C17.5762 21.4363 17.1205 22.0254 17.2742 22.596C17.3716 22.9576 17.4984 23.0696 18.3735 23.5676C18.8246 23.8243 19.2541 24.0701 19.3281 24.1138L19.4625 24.1933L18.329 25.0654C17.3892 25.7884 17.1785 25.9721 17.0967 26.1399C16.9822 26.3748 16.9679 26.7151 17.0632 26.9357C17.1426 27.1196 17.3992 27.3679 17.5795 27.4354C17.7765 27.5091 18.1625 27.4957 18.331 27.4092C18.4123 27.3674 19.0802 26.8711 19.8152 26.3061C20.5502 25.7412 21.1794 25.2684 21.2134 25.2554C21.2475 25.2424 21.8375 25.5546 22.5246 25.9491L23.7739 26.6664V27.9995V29.3325L22.7823 29.9074C22.2369 30.2237 21.7767 30.4833 21.7595 30.4842C21.7423 30.4853 21.0199 30.0883 20.154 29.6021C18.1528 28.4784 18.2309 28.5167 17.9427 28.5167C17.6278 28.5167 17.4374 28.6011 17.2249 28.835C17.0323 29.047 16.9733 29.252 17.0106 29.58C17.058 29.9982 17.1809 30.1021 18.509 30.8469C19.1712 31.2184 19.741 31.5387 19.7753 31.5588C19.8164 31.5829 19.4473 31.8188 18.6892 32.2529C17.3435 33.0237 17.26 33.102 17.2585 33.5954C17.2569 34.1314 17.59 34.5132 18.0955 34.5548C18.4175 34.5813 18.4577 34.5636 19.7058 33.8459C20.2731 33.5196 20.7459 33.2526 20.7564 33.2526C20.7669 33.2526 20.7755 33.9054 20.7755 34.7032C20.7755 35.6119 20.7942 36.203 20.8256 36.2857C20.8936 36.4648 21.1436 36.7196 21.3288 36.7984C21.4124 36.8341 21.593 36.8629 21.7302 36.8625C22.0461 36.8615 22.3027 36.723 22.497 36.4485L22.6406 36.2456L22.6743 34.2016C22.7002 32.6296 22.722 32.1448 22.7687 32.1026C22.8022 32.0723 23.257 31.8042 23.7796 31.5067L24.7296 30.9659L25.8919 31.6286L27.0542 32.2914L27.0549 33.6566L27.0556 35.0217L25.4148 35.6882C24.5123 36.0547 23.707 36.4052 23.6252 36.467C23.1054 36.86 23.197 37.7076 23.7931 38.0201C24.1622 38.2136 24.2918 38.1854 25.7335 37.598L27.032 37.0688L27.0556 38.2282L27.0792 39.3875L27.2209 39.5871C27.6117 40.1376 28.3883 40.1376 28.7791 39.5871L28.9208 39.3875L28.9444 38.2279L28.968 37.0684L30.2665 37.5975C31.7083 38.1849 31.8385 38.2132 32.2069 38.0201C32.7737 37.723 32.8923 36.9849 32.4445 36.5413C32.3015 36.3995 31.9921 36.2571 30.6084 35.6956L28.9444 35.0205L28.9458 33.6559L28.9472 32.2914L30.104 31.6349C30.7403 31.2739 31.2773 30.9824 31.2975 30.9871C31.3596 31.0018 33.1668 32.0442 33.2313 32.1025C33.278 32.1448 33.2998 32.6296 33.3257 34.2016L33.3594 36.2456L33.503 36.4485C33.7234 36.7599 33.9517 36.8701 34.3377 36.8519C34.6889 36.8353 34.8109 36.7703 35.0565 36.469L35.2009 36.292L35.2146 34.7723C35.2221 33.9365 35.236 33.2526 35.2455 33.2526C35.2549 33.2526 35.7269 33.5196 36.2942 33.8459C37.4818 34.5289 37.5602 34.5656 37.8288 34.5656C38.4238 34.5656 38.8795 33.9764 38.7258 33.4059C38.6929 33.2839 38.617 33.1203 38.5572 33.0425C38.4892 32.954 38.0198 32.6558 37.3058 32.2473C36.2318 31.633 36.1697 31.5901 36.2723 31.5343C36.3323 31.5017 36.902 31.1821 37.5383 30.8241C38.8149 30.1058 38.9421 29.9967 38.9894 29.58C39.0267 29.252 38.9677 29.047 38.7751 28.835C38.5607 28.5991 38.3721 28.5167 38.0463 28.5167C37.7677 28.5167 37.94 28.4302 35.5387 29.7758C34.8415 30.1665 34.2571 30.4851 34.2401 30.4839C34.2232 30.4826 33.7631 30.223 33.2177 29.9069L32.2261 29.3322V28.0004V26.6685L33.4302 25.9757C34.0924 25.5947 34.6697 25.2711 34.713 25.2567C34.7665 25.2389 35.2279 25.5667 36.1552 26.2812C36.9051 26.8591 37.5901 27.3687 37.6775 27.4135C37.8931 27.5242 38.382 27.4962 38.562 27.3627C38.8405 27.1562 38.9713 26.9377 38.9928 26.643C39.0297 26.1356 38.9665 26.06 37.6724 25.0635L36.5419 24.1931L37.4948 23.647C38.0712 23.3167 38.4909 23.0449 38.5569 22.9594C39.0288 22.3473 38.5933 21.4363 37.8288 21.4363C37.5648 21.4363 37.4723 21.4785 36.464 22.0585C35.664 22.5187 35.6006 22.5469 35.5798 22.4524C35.5674 22.3965 35.4818 21.7915 35.3895 21.1081C35.2972 20.4246 35.2007 19.8008 35.1751 19.7219C35.1194 19.5497 34.8278 19.2574 34.643 19.1884C34.4273 19.1077 34.0597 19.1288 33.8527 19.2337C33.6149 19.3542 33.3958 19.6521 33.3594 19.9045C33.3416 20.0278 33.4197 20.7384 33.5713 21.8308C33.7034 22.7827 33.7947 23.5765 33.7743 23.5947C33.7255 23.6381 31.341 25.0048 31.2958 25.0153C31.2766 25.0197 30.74 24.728 30.1034 24.3669L28.9458 23.7105L28.9569 22.6329L28.968 21.5553L30.6056 20.5931C31.5063 20.064 32.306 19.5847 32.3826 19.5281C32.4593 19.4715 32.5695 19.3278 32.6276 19.2088C32.9363 18.5755 32.4327 17.8352 31.7258 17.8831C31.4829 17.8995 31.3605 17.9603 30.2148 18.6321L28.968 19.3634L28.9444 17.9889L28.9208 16.6144L28.7791 16.4148C28.4962 16.0162 27.9892 15.8867 27.5706 16.1061ZM26.808 26.0206L25.6869 26.6646L25.6866 28.0019L25.6863 29.3391L26.8125 29.983C27.432 30.3371 27.9663 30.6268 28 30.6268C28.0337 30.6268 28.568 30.3371 29.1875 29.983L30.3137 29.3391V28.0004V26.6616L29.1882 26.0183C28.5691 25.6645 28.0326 25.3754 27.9959 25.3758C27.9592 25.3762 27.4247 25.6664 26.808 26.0206Z" fill="#155288" />
</svg>