<svg width="56" height="56" viewBox="0 0 56 56" fill="none" xmlns="http://www.w3.org/2000/svg">
  <path opacity="0.5" d="M32.5 51.75H51.5V32.25" stroke="#0A459E" stroke-width="2" />
  <path opacity="0.5" d="M23.5 51.75H4.5V32.25" stroke="#0A459E" stroke-width="2" />
  <path opacity="0.5" d="M23.5 4.25H4.5V23.75" stroke="#0A459E" stroke-width="2" />
  <path opacity="0.5" d="M32.5 4.25H51.5V23.75" stroke="#0A459E" stroke-width="2" />
  <path d="M31.9308 33.8999L28.977 30.9462L28.0751 31.8482C27.1517 32.7716 26.6899 33.2333 26.1937 33.1243C25.6974 33.0154 25.4717 32.4026 25.0202 31.1772L23.5145 27.0904C22.6139 24.6458 22.1636 23.4235 22.7936 22.7936C23.4235 22.1636 24.6458 22.6139 27.0904 23.5145L31.1772 25.0202C32.4026 25.4717 33.0154 25.6974 33.1243 26.1937C33.2333 26.6899 32.7716 27.1517 31.8482 28.0751L30.9462 28.977L33.8999 31.9308C34.2058 32.2366 34.3586 32.3896 34.4293 32.5601C34.5235 32.7876 34.5235 33.0431 34.4293 33.2706C34.3586 33.4411 34.2058 33.5941 33.8999 33.8999C33.5941 34.2058 33.4411 34.3586 33.2706 34.4293C33.0431 34.5235 32.7876 34.5235 32.5601 34.4293C32.3896 34.3586 32.2366 34.2058 31.9308 33.8999Z" stroke="#155288" stroke-width="2" stroke-linecap="round" stroke-linejoin="round" />
  <path d="M16.5 28.5C16.5 22.8431 16.5 20.0147 18.2574 18.2574C20.0147 16.5 22.8431 16.5 28.5 16.5C34.1568 16.5 36.9853 16.5 38.7426 18.2574C40.5 20.0147 40.5 22.8431 40.5 28.5C40.5 34.1568 40.5 36.9853 38.7426 38.7426C36.9853 40.5 34.1568 40.5 28.5 40.5C22.8431 40.5 20.0147 40.5 18.2574 38.7426C16.5 36.9853 16.5 34.1568 16.5 28.5Z" stroke="#155288" stroke-width="2" />
</svg>