<svg width="47" height="47" viewBox="0 0 47 47" fill="none" xmlns="http://www.w3.org/2000/svg">
  <rect x="0.5" y="0.5" width="46" height="46" rx="23" stroke="#0A599E" stroke-opacity="0.1" />
  <path fill-rule="evenodd" clip-rule="evenodd" d="M29.197 29.3826C29.1761 29.6134 29.0877 29.8326 28.9431 30.0118C28.7985 30.191 28.6044 30.3221 28.3858 30.3881C28.1672 30.4542 27.9343 30.4521 27.7168 30.3822C27.4994 30.3124 27.3075 30.1779 27.166 29.9961C25.9223 28.9905 23.9827 27.5431 23.9827 27.5431C23.9827 27.5431 22.5792 30.0564 22.3281 30.3139C22.2453 30.3849 22.1489 30.4375 22.0448 30.4683C21.9408 30.4992 21.8315 30.5076 21.7241 30.4931C21.6167 30.4786 21.5135 30.4414 21.421 30.384C21.3285 30.3265 21.2489 30.2501 21.1871 30.1596C21.1743 30.12 21.1592 30.0813 21.1416 30.0437L21.9288 26.04L27.5426 20.4346L19.8864 24.8755C19.8864 24.8755 16.4292 23.8247 15.9157 23.6195C15.7833 23.5459 15.6741 23.4357 15.6007 23.3016C15.5273 23.1676 15.4929 23.0152 15.5012 22.862C15.5096 22.7088 15.5604 22.5612 15.6479 22.4362C15.7354 22.3112 15.856 22.2139 15.9957 22.1557C16.7259 21.7776 29.6077 16.7766 30.0413 16.6478C30.4749 16.5191 31.6159 16.1839 31.4904 17.3124C31.3649 18.4409 29.3225 28.7632 29.197 29.3826Z" fill="#6B84A4" />
</svg>