<svg width="47" height="47" viewBox="0 0 47 47" fill="none" xmlns="http://www.w3.org/2000/svg">
  <rect x="0.5" y="0.5" width="46" height="46" rx="23" stroke="#0A599E" stroke-opacity="0.1" />
  <path fill-rule="evenodd" clip-rule="evenodd" d="M23.5003 32C21.8977 31.9959 20.3292 31.5351 18.9782 30.6715L15 32L16.3261 28.0134C15.327 26.4162 14.8862 24.5315 15.073 22.6559C15.2599 20.7802 16.0639 19.02 17.3583 17.6521C18.6528 16.2841 20.3643 15.386 22.2239 15.0991C24.0835 14.8121 25.9856 15.1526 27.6309 16.0669C29.2763 16.9811 30.5716 18.4174 31.3132 20.1498C32.0548 21.8821 32.2005 23.8123 31.7275 25.6367C31.2546 27.4612 30.1897 29.0763 28.7004 30.2282C27.2111 31.3801 25.3818 32.0034 23.5003 32ZM25.3477 24.774C25.913 24.9591 26.4882 25.1126 27.0705 25.2338C27.1317 25.2428 27.1905 25.2642 27.2433 25.2965C27.2961 25.3288 27.3419 25.3715 27.3779 25.422C27.4139 25.4724 27.4394 25.5296 27.4528 25.5902C27.4661 25.6507 27.4671 25.7133 27.4558 25.7743V26.0956C27.4614 26.2123 27.4398 26.3287 27.3926 26.4356C27.3453 26.5424 27.2738 26.6368 27.1838 26.7111C26.9045 26.9951 26.5737 27.2232 26.2091 27.3832C25.6713 27.4473 25.126 27.3998 24.6073 27.2435C24.0886 27.0872 23.6076 26.8256 23.1943 26.4749C22.6611 26.1171 22.164 25.7083 21.7096 25.2543C21.2572 24.7965 20.8474 24.2982 20.4855 23.7657C20.1382 23.3514 19.8796 22.87 19.7255 22.3515C19.5715 21.8329 19.5255 21.2882 19.5902 20.751C19.7502 20.3879 19.977 20.0581 20.2589 19.7791C20.3307 19.6871 20.4242 19.6144 20.531 19.5676C20.6379 19.5209 20.7548 19.5014 20.8709 19.5112H21.1995C21.3235 19.494 21.4493 19.5268 21.5491 19.6024C21.649 19.6779 21.7148 19.7901 21.7322 19.9142C21.9022 20.5864 22.0269 21.0724 22.1969 21.6174C22.2649 21.8445 22.1857 21.899 22.0043 22.0353C21.891 22.1227 21.8003 22.1863 21.7096 22.2544C21.6571 22.2772 21.6099 22.3108 21.5711 22.3531C21.5324 22.3954 21.503 22.4454 21.4848 22.4998C21.4666 22.5542 21.4602 22.6118 21.4657 22.6689C21.4712 22.726 21.4887 22.7813 21.5169 22.8312C21.8064 23.3893 22.1768 23.9013 22.6163 24.3504C23.0639 24.7915 23.5762 25.1618 24.1351 25.4484C24.1851 25.4763 24.2402 25.4934 24.2972 25.4988C24.3542 25.5041 24.4117 25.4976 24.466 25.4796C24.5203 25.4615 24.5704 25.4324 24.6129 25.394C24.6555 25.3556 24.6894 25.3088 24.713 25.2565C24.781 25.1646 24.8377 25.0794 24.9284 24.9602C24.9427 24.9194 24.965 24.882 24.994 24.8501C25.0229 24.8181 25.0579 24.7923 25.097 24.7742C25.1361 24.7561 25.1785 24.7461 25.2216 24.7447C25.2646 24.7433 25.3075 24.7505 25.3477 24.766V24.774Z" fill="#6B84A4" />
</svg>