<svg width="56" height="56" viewBox="0 0 56 56" fill="none" xmlns="http://www.w3.org/2000/svg">
  <path opacity="0.5" d="M32.5 51.75H51.5V32.25" stroke="#0A459E" stroke-width="2" />
  <path fill-rule="evenodd" clip-rule="evenodd" d="M22.2563 16.0374C22.1405 16.0997 21.9826 16.2404 21.9053 16.3502C21.7697 16.5429 21.7644 16.5702 21.7497 17.1486L21.7344 17.7474L20.9542 17.7751C20.0863 17.8059 19.5384 17.916 18.9718 18.1735C18.2863 18.485 17.6033 19.0321 17.1441 19.6374C16.8426 20.0349 16.4835 20.7778 16.3506 21.2788L16.2449 21.6775L16.23 28.6419C16.2193 33.6173 16.2301 35.712 16.2676 35.9762C16.3369 36.464 16.4681 36.884 16.6924 37.3365C17.3638 38.6906 18.6063 39.6177 20.095 39.8751C20.4543 39.9373 21.51 39.9446 28.3892 39.9327L36.2718 39.9191L36.6675 39.813C37.9965 39.4565 39.1021 38.5555 39.7064 37.3365C39.9099 36.9262 40.0758 36.4074 40.1181 36.0493C40.1334 35.9203 40.1639 35.8035 40.186 35.7898C40.208 35.7762 40.2261 32.631 40.2261 28.8005C40.2261 24.1695 40.2104 21.8458 40.1793 21.8651C40.1533 21.8812 40.1323 21.8459 40.1322 21.7858C40.1309 21.3642 39.766 20.3944 39.3998 19.8394C39.1244 19.422 38.5647 18.8616 38.1409 18.579C37.2997 18.0181 36.6245 17.817 35.4412 17.7749L34.6573 17.7471V17.1989C34.6573 16.7155 34.6445 16.6262 34.5484 16.4439C34.4886 16.3302 34.3498 16.1739 34.24 16.0965C34.0654 15.9734 34.0007 15.9558 33.721 15.956C33.4416 15.9562 33.3763 15.9739 33.2023 16.0967C33.0928 16.174 32.9542 16.3302 32.8944 16.4439C32.7981 16.6266 32.7855 16.7151 32.7855 17.206V17.7614H28.2041H23.6228L23.6064 17.1635C23.5918 16.6321 23.5776 16.5456 23.479 16.3865C23.2237 15.975 22.6678 15.8163 22.2563 16.0374ZM20.1321 19.7557C19.6748 19.8815 19.2991 20.1074 18.9228 20.4828C18.3201 21.0841 18.0938 21.7004 18.0922 22.7444L18.0914 23.2955H28.1994H38.3074L38.3066 22.7444C38.3062 22.4413 38.2749 22.0456 38.237 21.8651C38.0359 20.9048 37.3065 20.0949 36.3783 19.801C36.0563 19.6991 35.9239 19.6843 35.3334 19.6843H34.6573L34.6563 20.6809C34.6551 21.805 34.6276 21.9279 34.3147 22.2032C34.1221 22.3727 33.9152 22.426 33.5765 22.3934C33.2892 22.3657 33.0413 22.1829 32.8908 21.8876C32.7913 21.6925 32.7855 21.6256 32.7855 20.6827V19.6843H28.1994H23.6134V20.6827C23.6134 21.6256 23.6076 21.6925 23.5081 21.8876C23.3576 22.1829 23.1097 22.3657 22.8224 22.3934C22.4837 22.426 22.2768 22.3727 22.0842 22.2032C21.7713 21.9279 21.7437 21.805 21.7426 20.6809L21.7415 19.6843L21.0513 19.6885C20.6315 19.691 20.2714 19.7173 20.1321 19.7557ZM16.2424 28.853C16.2424 32.6963 16.2479 34.2617 16.2547 32.3315C16.2614 30.4014 16.2614 27.2568 16.2547 25.3436C16.2479 23.4304 16.2424 25.0096 16.2424 28.853ZM18.102 30.5061L18.1148 35.8409L18.241 36.187C18.4948 36.8837 18.9748 37.4298 19.6087 37.7429C20.3128 38.0908 19.7813 38.0717 28.3524 38.0576L36.0378 38.0451L36.4014 37.9162C37.3135 37.5927 37.85 37.0383 38.2055 36.0519C38.2737 35.8626 38.283 35.2904 38.2956 30.5061L38.3097 25.1714H28.1994H18.0891L18.102 30.5061ZM21.316 28.0476C21.0643 28.1809 20.8512 28.5038 20.8175 28.8031C20.7847 29.0954 20.9683 29.4707 21.2348 29.6559L21.4291 29.7909L22.5785 29.8051C23.8866 29.8211 24.0041 29.7992 24.2859 29.4867C24.4348 29.3215 24.5488 29.0568 24.5488 28.8764C24.5488 28.559 24.2819 28.1703 23.9648 28.0259C23.8002 27.951 23.639 27.9404 22.6497 27.9395C21.5587 27.9385 21.5156 27.942 21.316 28.0476ZM26.9427 27.9886C26.5674 28.1393 26.297 28.572 26.3399 28.9534C26.3732 29.2494 26.5873 29.5725 26.838 29.7052C27.0372 29.8107 27.0821 29.8144 28.1615 29.8144C29.3772 29.8144 29.4947 29.7944 29.7596 29.5422C29.9602 29.3513 30.0396 29.1625 30.0396 28.8764C30.0396 28.5904 29.9602 28.4016 29.7596 28.2106C29.4941 27.9578 29.3779 27.9382 28.1658 27.9414C27.5537 27.943 27.0033 27.9643 26.9427 27.9886ZM32.4064 28.0306C32.0984 28.196 31.8501 28.5735 31.8501 28.8764C31.8501 29.0568 31.9641 29.3215 32.113 29.4867C32.3957 29.8003 32.5155 29.8226 33.8222 29.8058L34.9698 29.7909L35.163 29.6567C35.3889 29.4996 35.5932 29.1291 35.5932 28.8764C35.5932 28.6237 35.3889 28.2532 35.163 28.0962L34.9697 27.9619L33.7723 27.9511C32.6672 27.941 32.5619 27.9472 32.4064 28.0306ZM21.326 33.573C21.0998 33.6866 20.8731 33.9947 20.8244 34.2546C20.7534 34.6335 20.9728 35.0488 21.341 35.2327C21.5679 35.346 21.5959 35.3484 22.6749 35.3474C23.9162 35.3462 24.0224 35.3239 24.3021 35.0047C24.6699 34.5848 24.583 33.9526 24.1123 33.6256L23.9258 33.4959L22.7284 33.483C21.5759 33.4707 21.5233 33.474 21.326 33.573ZM26.8519 33.5723C26.5405 33.7268 26.3276 34.0757 26.3276 34.4317C26.3276 34.6291 26.5295 35.0259 26.6899 35.1437C26.9392 35.3268 27.0997 35.3484 28.2079 35.3484C29.0701 35.3484 29.3127 35.3342 29.4527 35.2756C29.6601 35.1888 29.8647 35.0028 29.966 34.8091C30.0611 34.6273 30.061 34.1933 29.9659 34.0118C29.8686 33.8264 29.6128 33.5845 29.4482 33.5222C29.3685 33.4922 28.8689 33.4725 28.1847 33.4725C27.1247 33.4726 27.0402 33.4789 26.8519 33.5723ZM32.4345 33.5381C32.2701 33.6107 32.054 33.8189 31.9662 33.989C31.7268 34.453 31.9415 35.0367 32.4341 35.261C32.5983 35.3357 32.7591 35.3465 33.7239 35.3474C34.8177 35.3484 34.828 35.3475 35.07 35.2266C35.7323 34.8959 35.7399 33.9294 35.0828 33.5817C34.8828 33.4758 34.8421 33.4725 33.7257 33.4743C32.8769 33.4757 32.5381 33.4924 32.4345 33.5381Z" fill="#155288" />
  <path opacity="0.5" d="M23.5 51.75H4.5V32.25" stroke="#0A459E" stroke-width="2" />
  <path opacity="0.5" d="M23.5 4.25H4.5V23.75" stroke="#0A459E" stroke-width="2" />
  <path opacity="0.5" d="M32.5 4.25H51.5V23.75" stroke="#0A459E" stroke-width="2" />
</svg>