<svg width="56" height="56" viewBox="0 0 56 56" fill="none" xmlns="http://www.w3.org/2000/svg">
  <path fill-rule="evenodd" clip-rule="evenodd" d="M27.3013 16.5286C22.6839 17.0097 18.8086 20.0261 17.2108 24.3827C16.9693 25.0412 16.7107 26.0571 16.606 26.759C16.4888 27.5449 16.4641 28.961 16.5542 29.7335C16.7416 31.342 17.1937 32.829 17.8952 34.1452L18.0733 34.4793L17.3022 36.8728C16.878 38.1892 16.5198 39.3719 16.5063 39.501C16.4476 40.0617 16.9369 40.5523 17.4961 40.4934C17.6248 40.4799 18.8042 40.1207 20.117 39.6954L22.504 38.9221L22.8372 39.1007C24.1498 39.8042 25.6326 40.2575 27.2367 40.4454C28.0071 40.5357 29.4193 40.511 30.2031 40.3934C34.571 39.7382 38.2063 36.7682 39.732 32.6082C40.0787 31.6629 40.4061 30.158 40.4061 29.5102C40.4061 29.3909 40.4272 29.2933 40.453 29.2933C40.4824 29.2933 40.4998 28.9873 40.4998 28.4692C40.4998 27.9318 40.4835 27.6552 40.453 27.6742C40.4243 27.6919 40.4061 27.618 40.4061 27.4835C40.4061 27.1234 40.274 26.3098 40.1013 25.6073C39.1477 21.7266 36.3406 18.5934 32.5729 17.2039C31.9181 16.9625 30.906 16.7032 30.2031 16.5969C29.6238 16.5093 27.8806 16.4682 27.3013 16.5286ZM27.5119 18.4074C24.4442 18.7235 21.7591 20.355 20.0234 22.9575C18.8247 24.7547 18.2278 27.0762 18.4064 29.2464C18.5377 30.8426 18.9504 32.178 19.7623 33.6333C19.9957 34.0516 20.023 34.1289 20.0188 34.3607C20.0147 34.5949 19.743 35.4974 18.9495 37.9127L18.8854 38.1078L19.08 38.0435C21.4886 37.2479 22.3886 36.9754 22.6222 36.9712C22.8534 36.9671 22.9305 36.9945 23.3477 37.2285C24.3931 37.8149 25.4367 38.2132 26.4588 38.416C30.5518 39.2277 34.5809 37.5397 36.9194 34.0334C37.6892 32.8792 38.2441 31.417 38.4707 29.9458C38.5837 29.2122 38.5837 27.7787 38.4707 27.0451C37.7864 22.602 34.3594 19.1489 29.9682 18.4782C29.3647 18.3861 28.0787 18.3489 27.5119 18.4074ZM23.4048 27.3862C23.143 27.4843 22.9195 27.6741 22.7741 27.9221C22.6632 28.1114 22.6444 28.195 22.6444 28.4991C22.6444 28.813 22.6611 28.882 22.7862 29.0858C23.246 29.8349 24.3099 29.8552 24.7726 29.1236C25.2462 28.3747 24.7543 27.3965 23.8755 27.3396C23.692 27.3277 23.514 27.3454 23.4048 27.3862ZM28.0852 27.3862C27.8233 27.4843 27.5999 27.6741 27.4544 27.9221C27.3435 28.1114 27.3247 28.195 27.3247 28.4991C27.3247 28.813 27.3414 28.882 27.4665 29.0858C27.9263 29.8349 28.9902 29.8552 29.4529 29.1236C29.9265 28.3747 29.4346 27.3965 28.5558 27.3396C28.3723 27.3277 28.1943 27.3454 28.0852 27.3862ZM32.7655 27.3862C32.5036 27.4843 32.2802 27.6741 32.1347 27.9221C32.0238 28.1114 32.005 28.195 32.005 28.4991C32.005 28.813 32.0217 28.882 32.1468 29.0858C32.6066 29.8349 33.6705 29.8552 34.1332 29.1236C34.6068 28.3747 34.1149 27.3965 33.2361 27.3396C33.0526 27.3277 32.8746 27.3454 32.7655 27.3862ZM16.5091 28.5189C16.5092 28.9835 16.5162 29.1673 16.5247 28.9272C16.5332 28.6871 16.5332 28.307 16.5246 28.0824C16.516 27.8579 16.5091 28.0543 16.5091 28.5189Z" fill="#155288" />
  <rect opacity="0.5" x="5.49988" y="6.5" width="44" height="44" stroke="#0A459E" stroke-width="2" />
</svg>