<svg width="14" height="9" viewBox="0 0 14 9" fill="none" xmlns="http://www.w3.org/2000/svg">
  <path d="M0.600098 3.81846C0.268727 3.81846 9.76614e-05 4.08709 9.76324e-05 4.41846C9.76034e-05 4.74983 0.268727 5.01846 0.600098 5.01846L0.600098 4.41846L0.600098 3.81846ZM13.0244 4.84272C13.2587 4.60841 13.2587 4.22851 13.0244 3.99419L9.20599 0.175817C8.97167 -0.0584977 8.59177 -0.0584977 8.35746 0.175817C8.12314 0.410132 8.12314 0.79003 8.35746 1.02435L11.7516 4.41846L8.35746 7.81257C8.12314 8.04688 8.12314 8.42678 8.35746 8.6611C8.59177 8.89541 8.97167 8.89541 9.20598 8.6611L13.0244 4.84272ZM0.600098 4.41846L0.600098 5.01846L12.6001 5.01846L12.6001 4.41846L12.6001 3.81846L0.600098 3.81846L0.600098 4.41846Z" fill="white" />
</svg>