<svg width="14" height="9" viewBox="0 0 14 9" fill="none" xmlns="http://www.w3.org/2000/svg">
  <path d="M12.6001 3.81846C12.9315 3.81846 13.2001 4.08709 13.2001 4.41846C13.2001 4.74983 12.9315 5.01846 12.6001 5.01846L12.6001 4.41846L12.6001 3.81846ZM0.175834 4.84272C-0.0584812 4.60841 -0.0584812 4.22851 0.175834 3.99419L3.99421 0.175817C4.22852 -0.0584977 4.60842 -0.0584977 4.84274 0.175817C5.07705 0.410132 5.07705 0.79003 4.84274 1.02435L1.44863 4.41846L4.84274 7.81257C5.07705 8.04688 5.07705 8.42678 4.84274 8.6611C4.60842 8.89541 4.22853 8.89541 3.99421 8.6611L0.175834 4.84272ZM12.6001 4.41846L12.6001 5.01846L0.600098 5.01846L0.600098 4.41846L0.600098 3.81846L12.6001 3.81846L12.6001 4.41846Z" fill="white" />
</svg>