<svg width="1432" height="212" viewBox="0 0 1432 212" fill="none" xmlns="http://www.w3.org/2000/svg">
<path d="M3.57 30.724H120.19V58.0941H76.16V180.664H47.6V58.0941H3.57V30.724ZM241.458 153.294V180.664H135.548V30.724H239.078V58.0941H164.108V90.2241H233.128V117.594H164.108V153.294H241.458ZM317.6 30.724C324.74 30.724 331.404 32.0727 337.592 34.7701C343.78 37.3087 349.175 40.8787 353.776 45.4801C358.536 49.9227 362.185 55.2381 364.724 61.4261C367.421 67.4554 368.77 73.8814 368.77 80.7041C368.77 87.5267 367.421 94.0321 364.724 100.22C362.185 106.249 358.536 111.565 353.776 116.166C349.175 120.609 343.78 124.179 337.592 126.876C331.404 129.415 324.74 130.684 317.6 130.684H290.23V180.664H261.67V30.724H317.6ZM317.6 103.314C320.615 103.314 323.471 102.679 326.168 101.41C328.865 100.141 331.245 98.4747 333.308 96.4121C335.371 94.3494 337.037 91.9694 338.306 89.2721C339.575 86.5747 340.21 83.7187 340.21 80.7041C340.21 77.6894 339.575 74.8334 338.306 72.1361C337.037 69.4387 335.371 67.0587 333.308 64.9961C331.245 62.9334 328.865 61.2674 326.168 59.9981C323.471 58.7287 320.615 58.0941 317.6 58.0941H290.23V103.314H317.6ZM443.721 30.724C450.861 30.724 457.525 32.0727 463.713 34.7701C469.901 37.3087 475.296 40.8787 479.897 45.4801C484.657 49.9227 488.307 55.2381 490.845 61.4261C493.543 67.4554 494.891 73.8814 494.891 80.7041C494.891 87.5267 493.543 94.0321 490.845 100.22C488.307 106.249 484.657 111.565 479.897 116.166C475.296 120.609 469.901 124.179 463.713 126.876C457.525 129.415 450.861 130.684 443.721 130.684H416.351V180.664H387.791V30.724H443.721ZM443.721 103.314C446.736 103.314 449.592 102.679 452.289 101.41C454.987 100.141 457.367 98.4747 459.429 96.4121C461.492 94.3494 463.158 91.9694 464.427 89.2721C465.697 86.5747 466.331 83.7187 466.331 80.7041C466.331 77.6894 465.697 74.8334 464.427 72.1361C463.158 69.4387 461.492 67.0587 459.429 64.9961C457.367 62.9334 454.987 61.2674 452.289 59.9981C449.592 58.7287 446.736 58.0941 443.721 58.0941H416.351V103.314H443.721ZM519.798 180.664H490.048L545.978 30.724H572.158L628.088 180.664H598.338L587.628 149.724H530.508L519.798 180.664ZM578.108 123.544L559.068 68.8041L540.028 123.544H578.108ZM700.808 131.874H629.408V108.074H700.808V131.874ZM778.186 69.9941C766.286 70.6287 756.924 74.1194 750.102 80.4661C743.438 86.6541 740.106 94.2701 740.106 103.314C740.106 112.358 743.438 120.053 750.102 126.4C756.924 132.588 766.286 135.999 778.186 136.634V69.9941ZM806.746 43.8141C817.218 44.4487 826.579 46.4321 834.83 49.7641C843.08 52.9374 850.062 57.1421 855.774 62.3781C861.486 67.6141 865.849 73.7227 868.864 80.7041C871.878 87.6854 873.386 95.2221 873.386 103.314C873.386 111.406 871.878 118.943 868.864 125.924C865.849 132.905 861.486 139.014 855.774 144.25C850.062 149.486 843.08 153.77 834.83 157.102C826.579 160.275 817.218 162.179 806.746 162.814V181.854H778.186V162.814C767.714 162.179 758.352 160.275 750.102 157.102C741.851 153.77 734.87 149.486 729.158 144.25C723.446 139.014 719.082 132.905 716.068 125.924C713.053 118.943 711.546 111.406 711.546 103.314C711.546 95.2221 713.053 87.6854 716.068 80.7041C719.082 73.7227 723.446 67.6141 729.158 62.3781C734.87 57.1421 741.851 52.9374 750.102 49.7641C758.352 46.4321 767.714 44.4487 778.186 43.8141V29.5341H806.746V43.8141ZM806.746 136.634C818.646 135.999 827.928 132.588 834.592 126.4C841.414 120.053 844.826 112.358 844.826 103.314C844.826 94.2701 841.414 86.6541 834.592 80.4661C827.928 74.1194 818.646 70.6287 806.746 69.9941V136.634ZM947.277 30.724C954.417 30.724 961.081 32.0727 967.269 34.7701C973.457 37.3087 978.852 40.8787 983.453 45.4801C988.213 49.9227 991.863 55.2381 994.401 61.4261C997.099 67.4554 998.447 73.8814 998.447 80.7041C998.447 87.5267 997.099 94.0321 994.401 100.22C991.863 106.249 988.213 111.565 983.453 116.166C978.852 120.609 973.457 124.179 967.269 126.876C961.081 129.415 954.417 130.684 947.277 130.684H919.907V180.664H891.347V30.724H947.277ZM947.277 103.314C950.292 103.314 953.148 102.679 955.845 101.41C958.543 100.141 960.923 98.4747 962.985 96.4121C965.048 94.3494 966.714 91.9694 967.983 89.2721C969.253 86.5747 969.887 83.7187 969.887 80.7041C969.887 77.6894 969.253 74.8334 967.983 72.1361C966.714 69.4387 965.048 67.0587 962.985 64.9961C960.923 62.9334 958.543 61.2674 955.845 59.9981C953.148 58.7287 950.292 58.0941 947.277 58.0941H919.907V103.314H947.277ZM1037.7 105.694C1037.7 112.834 1038.89 119.419 1041.27 125.448C1043.65 131.319 1046.82 136.475 1050.79 140.918C1054.76 145.202 1059.36 148.534 1064.59 150.914C1069.99 153.294 1075.7 154.484 1081.73 154.484C1087.6 154.484 1093.23 153.294 1098.63 150.914C1104.02 148.534 1108.7 145.202 1112.67 140.918C1116.64 136.475 1119.81 131.319 1122.19 125.448C1124.57 119.419 1125.76 112.834 1125.76 105.694C1125.76 98.5541 1124.57 92.0487 1122.19 86.1781C1119.81 80.1487 1116.64 74.9921 1112.67 70.7081C1108.7 66.2654 1104.02 62.8541 1098.63 60.4741C1093.23 58.0941 1087.6 56.9041 1081.73 56.9041C1075.7 56.9041 1069.99 58.0941 1064.59 60.4741C1059.36 62.8541 1054.76 66.2654 1050.79 70.7081C1046.82 74.9921 1043.65 80.1487 1041.27 86.1781C1038.89 92.0487 1037.7 98.5541 1037.7 105.694ZM1154.32 105.694C1154.32 116.483 1152.34 126.479 1148.37 135.682C1144.56 144.885 1139.32 152.977 1132.66 159.958C1126.16 166.781 1118.46 172.175 1109.57 176.142C1100.85 179.95 1091.57 181.854 1081.73 181.854C1071.89 181.854 1062.53 179.95 1053.64 176.142C1044.92 172.175 1037.22 166.781 1030.56 159.958C1024.05 152.977 1018.82 144.885 1014.85 135.682C1011.04 126.479 1009.14 116.483 1009.14 105.694C1009.14 95.0634 1011.04 85.1467 1014.85 75.9441C1018.82 66.5827 1024.05 58.4907 1030.56 51.668C1037.22 44.6867 1044.92 39.2921 1053.64 35.4841C1062.53 31.5174 1071.89 29.5341 1081.73 29.5341C1091.57 29.5341 1100.85 31.5174 1109.57 35.4841C1118.46 39.2921 1126.16 44.6867 1132.66 51.668C1139.32 58.4907 1144.56 66.5827 1148.37 75.9441C1152.34 85.1467 1154.32 95.0634 1154.32 105.694ZM1193.57 105.694C1193.57 112.834 1194.76 119.419 1197.14 125.448C1199.52 131.319 1202.69 136.475 1206.66 140.918C1210.63 145.202 1215.23 148.534 1220.46 150.914C1225.86 153.294 1231.57 154.484 1237.6 154.484C1242.68 154.484 1247.28 153.77 1251.4 152.342C1255.53 150.755 1259.18 148.772 1262.35 146.392C1265.68 143.853 1268.38 141.077 1270.44 138.062C1272.67 134.889 1274.41 131.636 1275.68 128.304H1305.43C1303.68 135.444 1300.83 142.267 1296.86 148.772C1292.9 155.277 1287.98 160.989 1282.11 165.908C1276.39 170.668 1269.73 174.555 1262.11 177.57C1254.66 180.426 1246.49 181.854 1237.6 181.854C1227.76 181.854 1218.4 179.95 1209.52 176.142C1200.79 172.175 1193.09 166.781 1186.43 159.958C1179.92 152.977 1174.69 144.885 1170.72 135.682C1166.91 126.479 1165.01 116.483 1165.01 105.694C1165.01 95.0634 1166.91 85.1467 1170.72 75.9441C1174.69 66.5827 1179.92 58.4907 1186.43 51.668C1193.09 44.6867 1200.79 39.2921 1209.52 35.4841C1218.4 31.5174 1227.76 29.5341 1237.6 29.5341C1246.17 29.5341 1254.1 31.0414 1261.4 34.056C1268.86 36.9121 1275.44 40.7994 1281.15 45.7181C1286.87 50.4781 1291.71 56.1107 1295.67 62.6161C1299.64 69.1214 1302.49 75.9441 1304.24 83.0841H1274.49C1273.54 79.7521 1272.03 76.5787 1269.97 73.5641C1267.91 70.3907 1265.29 67.6141 1262.11 65.2341C1259.1 62.6954 1255.53 60.7121 1251.4 59.2841C1247.28 57.6974 1242.68 56.9041 1237.6 56.9041C1231.57 56.9041 1225.86 58.0941 1220.46 60.4741C1215.23 62.8541 1210.63 66.2654 1206.66 70.7081C1202.69 74.9921 1199.52 80.1487 1197.14 86.1781C1194.76 92.0487 1193.57 98.5541 1193.57 105.694ZM1311.27 30.724H1427.89V58.0941H1383.86V180.664H1355.3V58.0941H1311.27V30.724Z" fill="url(#paint0_linear_2635_67164)"/>
<defs>
<linearGradient id="paint0_linear_2635_67164" x1="961.975" y1="30.6641" x2="961.975" y2="221.086" gradientUnits="userSpaceOnUse">
<stop stop-color="#EFF3FD"/>
<stop offset="1" stop-color="#FCFDFE"/>
</linearGradient>
</defs>
</svg>
