<svg width="90" height="13" viewBox="0 0 90 13" fill="none" xmlns="http://www.w3.org/2000/svg">
  <g clip-path="url(#clip0_2635_65591)">
    <path d="M9.16148 2.69611C8.57348 2.31071 7.96148 2.02476 7.32548 1.83827C6.70148 1.63935 6.12548 1.53989 5.59748 1.53989C4.86548 1.53989 4.27748 1.68908 3.83348 1.98746C3.40148 2.27341 3.18548 2.67125 3.18548 3.18098C3.18548 3.64098 3.31748 4.02016 3.58148 4.31854C3.84548 4.60449 4.16948 4.83449 4.55348 5.00854C4.93748 5.17016 5.47148 5.36287 6.15548 5.58665C7.00748 5.86016 7.69748 6.12125 8.22548 6.36989C8.75348 6.61854 9.20348 6.99152 9.57548 7.48881C9.94748 7.97368 10.1335 8.62016 10.1335 9.42827C10.1335 10.1742 9.93548 10.8269 9.53948 11.3864C9.15548 11.9458 8.60948 12.381 7.90148 12.6918C7.20548 12.9902 6.40148 13.1394 5.48948 13.1394C4.56548 13.1394 3.66548 12.9529 2.78948 12.5799C1.91348 12.2069 1.15748 11.7096 0.521484 11.088L1.29548 9.54016C1.89548 10.1494 2.56748 10.6218 3.31148 10.9575C4.06748 11.2807 4.79948 11.4423 5.50748 11.4423C6.34748 11.4423 7.00748 11.2745 7.48748 10.9388C7.97948 10.5907 8.22548 10.1245 8.22548 9.54016C8.22548 9.08016 8.09348 8.70097 7.82948 8.4026C7.56548 8.10422 7.22948 7.868 6.82148 7.69395C6.42548 7.51989 5.88548 7.32719 5.20148 7.11584C4.36148 6.85476 3.67748 6.59989 3.14948 6.35125C2.62148 6.1026 2.17148 5.73584 1.79948 5.25098C1.43948 4.76611 1.25948 4.12584 1.25948 3.33016C1.25948 2.63395 1.44548 2.01854 1.81748 1.48395C2.18948 0.949354 2.71148 0.539083 3.38348 0.253137C4.05548 -0.0328085 4.83548 -0.175781 5.72348 -0.175781C6.47948 -0.175781 7.21748 -0.0576733 7.93748 0.178543C8.66948 0.402327 9.31748 0.706921 9.88148 1.09233L9.16148 2.69611ZM12.8913 -0.0265922H21.6393V1.59584H14.6193V5.62395H20.9013V7.24638H14.6193V11.405H21.8553V13.0275H12.8913V-0.0265922ZM30.159 -0.138484C31.371 -0.138484 32.481 0.153678 33.489 0.738002C34.509 1.32233 35.313 2.12422 35.901 3.14368C36.489 4.15071 36.783 5.26341 36.783 6.48179C36.783 7.70016 36.489 8.8253 35.901 9.85719C35.313 10.8767 34.509 11.6848 33.489 12.2815C32.481 12.8658 31.371 13.158 30.159 13.158C28.947 13.158 27.831 12.8658 26.811 12.2815C25.803 11.6848 25.005 10.8767 24.417 9.85719C23.829 8.8253 23.535 7.70016 23.535 6.48179C23.535 5.26341 23.829 4.15071 24.417 3.14368C25.005 2.12422 25.803 1.32233 26.811 0.738002C27.819 0.153678 28.935 -0.138484 30.159 -0.138484ZM30.177 1.4653C29.301 1.4653 28.485 1.68908 27.729 2.13665C26.985 2.58422 26.391 3.19341 25.947 3.96422C25.503 4.7226 25.281 5.56179 25.281 6.48179C25.281 7.40179 25.503 8.24719 25.947 9.018C26.391 9.78881 26.985 10.4042 27.729 10.8642C28.485 11.3118 29.301 11.5356 30.177 11.5356C31.053 11.5356 31.857 11.3118 32.589 10.8642C33.333 10.4042 33.921 9.78881 34.353 9.018C34.797 8.24719 35.019 7.40179 35.019 6.48179C35.019 5.56179 34.797 4.7226 34.353 3.96422C33.921 3.19341 33.333 2.58422 32.589 2.13665C31.857 1.68908 31.053 1.4653 30.177 1.4653ZM68.5345 -0.045241C69.8545 -0.045241 71.0185 0.228273 72.0265 0.7753C73.0465 1.32233 73.8385 2.09314 74.4025 3.08773C74.9665 4.06989 75.2485 5.20125 75.2485 6.48179C75.2485 7.76233 74.9605 8.89989 74.3845 9.89449C73.8205 10.8891 73.0165 11.6599 71.9725 12.2069C70.9405 12.7539 69.7525 13.0275 68.4085 13.0275H63.0985V-0.045241H68.5345ZM68.6245 10.2675C69.2605 10.2675 69.8245 10.1121 70.3165 9.80124C70.8085 9.49043 71.1925 9.04908 71.4685 8.47719C71.7445 7.9053 71.8825 7.2526 71.8825 6.51908C71.8825 5.77314 71.7325 5.11422 71.4325 4.54233C71.1445 3.97044 70.7425 3.52908 70.2265 3.21827C69.7105 2.89503 69.1225 2.73341 68.4625 2.73341H66.3925V10.2675H68.6245Z" fill="white" />
    <path d="M37.6035 -0.0274747H47.8815V2.19171H43.9575V13.0266H41.5275V2.19171H37.6035V-0.0274747ZM54.5929 -0.195312C55.8409 -0.195312 56.9749 0.0968499 57.9949 0.681174C59.0269 1.2655 59.8369 2.06739 60.4248 3.08685C61.0128 4.10631 61.3068 5.23766 61.3068 6.4809C61.3068 7.72415 61.0128 8.86172 60.4248 9.89361C59.8369 10.9131 59.0269 11.7212 57.9949 12.3179C56.9749 12.9147 55.8409 13.2131 54.5929 13.2131C53.3449 13.2131 52.2049 12.9147 51.1729 12.3179C50.1529 11.7212 49.3489 10.9131 48.7609 9.89361C48.1729 8.86172 47.8789 7.72415 47.8789 6.4809C47.8789 5.23766 48.1729 4.10631 48.7609 3.08685C49.3489 2.06739 50.1529 1.2655 51.1729 0.681174C52.2049 0.0968499 53.3449 -0.195312 54.5929 -0.195312ZM54.6289 2.04253C53.8609 2.04253 53.1469 2.24144 52.4869 2.63928C51.8269 3.02469 51.3049 3.55928 50.9209 4.24307C50.5369 4.91442 50.3449 5.66036 50.3449 6.4809C50.3449 7.30144 50.5369 8.05361 50.9209 8.73739C51.3169 9.42118 51.8389 9.96199 52.4869 10.3598C53.1469 10.7577 53.8609 10.9566 54.6289 10.9566C55.3849 10.9566 56.0869 10.7577 56.7349 10.3598C57.3829 9.96199 57.8929 9.42118 58.2649 8.73739C58.6489 8.05361 58.8409 7.30144 58.8409 6.4809C58.8409 5.66036 58.6489 4.91442 58.2649 4.24307C57.8929 3.55928 57.3829 3.02469 56.7349 2.63928C56.0869 2.24144 55.3849 2.04253 54.6289 2.04253Z" fill="#8D8D8D" />
    <path d="M83.1008 13.0267C86.5802 13.0267 89.4008 10.1045 89.4008 6.49968C89.4008 2.89491 86.5802 -0.0273438 83.1008 -0.0273438C79.6214 -0.0273438 76.8008 2.89491 76.8008 6.49968C76.8008 10.1045 79.6214 13.0267 83.1008 13.0267Z" fill="#AB1818" />
    <path d="M81.2386 6.80859H79.1992V9.91981H81.2386V6.80859Z" fill="white" />
    <path d="M83.891 5.25195H81.8516V9.91878H83.891V5.25195Z" fill="white" />
    <path d="M86.5408 3.71513H86.9998L85.5214 1.83789L84.043 3.71513H84.502V9.91897H86.5408V3.71513Z" fill="white" />
  </g>
  <defs>
    <clipPath id="clip0_2635_65591">
      <rect width="90" height="13" fill="white" />
    </clipPath>
  </defs>
</svg>