<svg width="180" height="27" viewBox="0 0 180 27" fill="none" xmlns="http://www.w3.org/2000/svg">
  <path d="M0 0.165H16.17V3.96H10.065V20.955H6.105V3.96H0V0.165Z" fill="#004277" />
  <path d="M30.5005 16.335C30.3025 16.907 29.9945 17.479 29.5765 18.051C29.1805 18.623 28.6855 19.14 28.0915 19.602C27.5195 20.042 26.8595 20.405 26.1115 20.691C25.3855 20.977 24.5935 21.12 23.7355 21.12C22.7015 21.12 21.7225 20.922 20.7985 20.526C19.8965 20.108 19.0935 19.547 18.3895 18.843C17.7075 18.139 17.1575 17.325 16.7395 16.401C16.3435 15.455 16.1455 14.443 16.1455 13.365C16.1455 12.287 16.3435 11.286 16.7395 10.362C17.1575 9.416 17.7075 8.591 18.3895 7.887C19.0935 7.183 19.8965 6.633 20.7985 6.237C21.7225 5.819 22.7015 5.61 23.7355 5.61C24.7255 5.61 25.6605 5.797 26.5405 6.171C27.4205 6.545 28.1905 7.073 28.8505 7.755C29.5105 8.437 30.0275 9.262 30.4015 10.23C30.7975 11.176 30.9955 12.221 30.9955 13.365C30.9955 13.541 30.9845 13.717 30.9625 13.893C30.9405 14.047 30.9185 14.201 30.8965 14.355C30.8745 14.531 30.8525 14.696 30.8305 14.85H20.2705C20.4465 15.598 20.8205 16.225 21.3925 16.731C21.9645 17.237 22.7455 17.49 23.7355 17.49C24.2415 17.49 24.6595 17.435 24.9895 17.325C25.3415 17.215 25.6385 17.083 25.8805 16.929C26.1445 16.753 26.3645 16.555 26.5405 16.335H30.5005ZM23.7355 9.24C22.7455 9.24 21.9315 9.526 21.2935 10.098C20.6775 10.67 20.2815 11.374 20.1055 12.21H27.3655C27.1895 11.374 26.7825 10.67 26.1445 10.098C25.5285 9.526 24.7255 9.24 23.7355 9.24Z" fill="#004277" />
  <path d="M41.0528 5.61C41.9988 5.61 42.9008 5.808 43.7588 6.204C44.6168 6.578 45.3648 7.117 46.0028 7.821C46.6628 8.503 47.1798 9.317 47.5538 10.263C47.9498 11.209 48.1478 12.243 48.1478 13.365C48.1478 14.487 47.9498 15.521 47.5538 16.467C47.1798 17.413 46.6628 18.238 46.0028 18.942C45.3648 19.624 44.6168 20.163 43.7588 20.559C42.9008 20.933 41.9988 21.12 41.0528 21.12C40.4148 21.12 39.8538 21.043 39.3698 20.889C38.9078 20.735 38.5008 20.57 38.1488 20.394C37.7528 20.174 37.4008 19.921 37.0928 19.635V26.235H33.2978V5.775H36.1028L36.7628 7.26C37.0928 6.952 37.4778 6.677 37.9178 6.435C38.2918 6.237 38.7428 6.05 39.2708 5.874C39.7988 5.698 40.3928 5.61 41.0528 5.61ZM36.7628 13.365C36.7628 14.619 37.1258 15.62 37.8518 16.368C38.5778 17.116 39.4798 17.49 40.5578 17.49C41.6358 17.49 42.5378 17.116 43.2638 16.368C43.9898 15.62 44.3528 14.619 44.3528 13.365C44.3528 12.111 43.9898 11.11 43.2638 10.362C42.5378 9.614 41.6358 9.24 40.5578 9.24C39.4798 9.24 38.5778 9.614 37.8518 10.362C37.1258 11.11 36.7628 12.111 36.7628 13.365Z" fill="#004277" />
  <path d="M58.2179 5.61C59.1639 5.61 60.0659 5.808 60.9239 6.204C61.7819 6.578 62.5299 7.117 63.1679 7.821C63.8279 8.503 64.3449 9.317 64.7189 10.263C65.1149 11.209 65.3129 12.243 65.3129 13.365C65.3129 14.487 65.1149 15.521 64.7189 16.467C64.3449 17.413 63.8279 18.238 63.1679 18.942C62.5299 19.624 61.7819 20.163 60.9239 20.559C60.0659 20.933 59.1639 21.12 58.2179 21.12C57.5799 21.12 57.0189 21.043 56.5349 20.889C56.0729 20.735 55.6659 20.57 55.3139 20.394C54.9179 20.174 54.5659 19.921 54.2579 19.635V26.235H50.4629V5.775H53.2679L53.9279 7.26C54.2579 6.952 54.6429 6.677 55.0829 6.435C55.4569 6.237 55.9079 6.05 56.4359 5.874C56.9639 5.698 57.5579 5.61 58.2179 5.61ZM53.9279 13.365C53.9279 14.619 54.2909 15.62 55.0169 16.368C55.7429 17.116 56.6449 17.49 57.7229 17.49C58.8009 17.49 59.7029 17.116 60.4289 16.368C61.1549 15.62 61.5179 14.619 61.5179 13.365C61.5179 12.111 61.1549 11.11 60.4289 10.362C59.7029 9.614 58.8009 9.24 57.7229 9.24C56.6449 9.24 55.7429 9.614 55.0169 10.362C54.2909 11.11 53.9279 12.111 53.9279 13.365Z" fill="#004277" />
  <path d="M73.8981 5.61C74.7561 5.61 75.5481 5.764 76.2741 6.072C77.0001 6.358 77.6271 6.765 78.1551 7.293C78.6831 7.821 79.0901 8.448 79.3761 9.174C79.6841 9.9 79.8381 10.692 79.8381 11.55V20.955H77.0331L76.3731 19.47C76.0211 19.778 75.6361 20.053 75.2181 20.295C74.8441 20.515 74.3931 20.713 73.8651 20.889C73.3371 21.043 72.7431 21.12 72.0831 21.12C70.4331 21.12 69.1681 20.724 68.2881 19.932C67.4081 19.118 66.9681 18.084 66.9681 16.83C66.9681 16.082 67.1111 15.4 67.3971 14.784C67.7051 14.146 68.2111 13.607 68.9151 13.167C69.6191 12.705 70.5431 12.353 71.6871 12.111C72.8531 11.847 74.3051 11.715 76.0431 11.715C76.0431 10.879 75.8121 10.23 75.3501 9.768C74.9101 9.306 74.3161 9.075 73.5681 9.075C73.0621 9.075 72.6551 9.163 72.3471 9.339C72.0611 9.515 71.8301 9.702 71.6541 9.9C71.4561 10.142 71.3241 10.417 71.2581 10.725H67.4631C67.5511 10.021 67.7491 9.361 68.0571 8.745C68.3871 8.129 68.8271 7.59 69.3771 7.128C69.9271 6.666 70.5761 6.303 71.3241 6.039C72.0941 5.753 72.9521 5.61 73.8981 5.61ZM72.7431 18.15C73.7331 18.15 74.5251 17.864 75.1191 17.292C75.7351 16.698 76.0431 15.939 76.0431 15.015V14.355C74.9211 14.355 74.0191 14.41 73.3371 14.52C72.6551 14.608 72.1161 14.751 71.7201 14.949C71.3461 15.125 71.0931 15.345 70.9611 15.609C70.8291 15.873 70.7631 16.17 70.7631 16.5C70.7631 16.918 70.9501 17.303 71.3241 17.655C71.6981 17.985 72.1711 18.15 72.7431 18.15Z" fill="#004277" />
  <path d="M92.0352 14.19H82.1352V10.89H92.0352V14.19Z" fill="#004277" />
  <path d="M102.764 5.61C101.114 5.698 99.8161 6.182 98.8701 7.062C97.9461 7.92 97.4841 8.976 97.4841 10.23C97.4841 11.484 97.9461 12.551 98.8701 13.431C99.8161 14.289 101.114 14.762 102.764 14.85V5.61ZM106.724 1.98C108.176 2.068 109.474 2.343 110.618 2.805C111.762 3.245 112.73 3.828 113.522 4.554C114.314 5.28 114.919 6.127 115.337 7.095C115.755 8.063 115.964 9.108 115.964 10.23C115.964 11.352 115.755 12.397 115.337 13.365C114.919 14.333 114.314 15.18 113.522 15.906C112.73 16.632 111.762 17.226 110.618 17.688C109.474 18.128 108.176 18.392 106.724 18.48V21.12H102.764V18.48C101.312 18.392 100.014 18.128 98.8701 17.688C97.7261 17.226 96.7581 16.632 95.9661 15.906C95.1741 15.18 94.5691 14.333 94.1511 13.365C93.7331 12.397 93.5241 11.352 93.5241 10.23C93.5241 9.108 93.7331 8.063 94.1511 7.095C94.5691 6.127 95.1741 5.28 95.9661 4.554C96.7581 3.828 97.7261 3.245 98.8701 2.805C100.014 2.343 101.312 2.068 102.764 1.98V0H106.724V1.98ZM106.724 14.85C108.374 14.762 109.661 14.289 110.585 13.431C111.531 12.551 112.004 11.484 112.004 10.23C112.004 8.976 111.531 7.92 110.585 7.062C109.661 6.182 108.374 5.698 106.724 5.61V14.85Z" fill="#004277" />
  <path d="M125.88 5.61C126.826 5.61 127.728 5.808 128.586 6.204C129.444 6.578 130.192 7.117 130.83 7.821C131.49 8.503 132.007 9.317 132.381 10.263C132.777 11.209 132.975 12.243 132.975 13.365C132.975 14.487 132.777 15.521 132.381 16.467C132.007 17.413 131.49 18.238 130.83 18.942C130.192 19.624 129.444 20.163 128.586 20.559C127.728 20.933 126.826 21.12 125.88 21.12C125.242 21.12 124.681 21.043 124.197 20.889C123.735 20.735 123.328 20.57 122.976 20.394C122.58 20.174 122.228 19.921 121.92 19.635V26.235H118.125V5.775H120.93L121.59 7.26C121.92 6.952 122.305 6.677 122.745 6.435C123.119 6.237 123.57 6.05 124.098 5.874C124.626 5.698 125.22 5.61 125.88 5.61ZM121.59 13.365C121.59 14.619 121.953 15.62 122.679 16.368C123.405 17.116 124.307 17.49 125.385 17.49C126.463 17.49 127.365 17.116 128.091 16.368C128.817 15.62 129.18 14.619 129.18 13.365C129.18 12.111 128.817 11.11 128.091 10.362C127.365 9.614 126.463 9.24 125.385 9.24C124.307 9.24 123.405 9.614 122.679 10.362C121.953 11.11 121.59 12.111 121.59 13.365Z" fill="#004277" />
  <path d="M138.26 13.365C138.26 14.619 138.623 15.62 139.349 16.368C140.075 17.116 140.977 17.49 142.055 17.49C143.133 17.49 144.035 17.116 144.761 16.368C145.487 15.62 145.85 14.619 145.85 13.365C145.85 12.111 145.487 11.11 144.761 10.362C144.035 9.614 143.133 9.24 142.055 9.24C140.977 9.24 140.075 9.614 139.349 10.362C138.623 11.11 138.26 12.111 138.26 13.365ZM149.645 13.365C149.645 14.443 149.436 15.455 149.018 16.401C148.622 17.325 148.072 18.139 147.368 18.843C146.686 19.547 145.883 20.108 144.959 20.526C144.057 20.922 143.089 21.12 142.055 21.12C141.021 21.12 140.042 20.922 139.118 20.526C138.216 20.108 137.413 19.547 136.709 18.843C136.027 18.139 135.477 17.325 135.059 16.401C134.663 15.455 134.465 14.443 134.465 13.365C134.465 12.287 134.663 11.286 135.059 10.362C135.477 9.416 136.027 8.591 136.709 7.887C137.413 7.183 138.216 6.633 139.118 6.237C140.042 5.819 141.021 5.61 142.055 5.61C143.089 5.61 144.057 5.819 144.959 6.237C145.883 6.633 146.686 7.183 147.368 7.887C148.072 8.591 148.622 9.416 149.018 10.362C149.436 11.286 149.645 12.287 149.645 13.365Z" fill="#004277" />
  <path d="M165.799 15.345C165.623 16.093 165.326 16.819 164.908 17.523C164.49 18.205 163.973 18.821 163.357 19.371C162.741 19.899 162.037 20.328 161.245 20.658C160.453 20.966 159.606 21.12 158.704 21.12C157.67 21.12 156.691 20.922 155.767 20.526C154.865 20.108 154.062 19.547 153.358 18.843C152.676 18.139 152.126 17.325 151.708 16.401C151.312 15.455 151.114 14.443 151.114 13.365C151.114 12.287 151.312 11.286 151.708 10.362C152.126 9.416 152.676 8.591 153.358 7.887C154.062 7.183 154.865 6.633 155.767 6.237C156.691 5.819 157.67 5.61 158.704 5.61C159.606 5.61 160.453 5.775 161.245 6.105C162.037 6.413 162.741 6.842 163.357 7.392C163.973 7.92 164.49 8.536 164.908 9.24C165.326 9.922 165.623 10.637 165.799 11.385H162.004C161.828 10.989 161.586 10.637 161.278 10.329C161.014 10.065 160.673 9.823 160.255 9.603C159.837 9.361 159.32 9.24 158.704 9.24C157.626 9.24 156.724 9.614 155.998 10.362C155.272 11.11 154.909 12.111 154.909 13.365C154.909 14.619 155.272 15.62 155.998 16.368C156.724 17.116 157.626 17.49 158.704 17.49C159.32 17.49 159.837 17.38 160.255 17.16C160.673 16.94 161.014 16.698 161.278 16.434C161.586 16.126 161.828 15.763 162.004 15.345H165.799Z" fill="#004277" />
  <path d="M166.624 5.775H179.329V9.405H174.874V20.955H171.079V9.405H166.624V5.775Z" fill="#004277" />
</svg>