<svg width="1430" height="75" viewBox="0 0 1430 75" fill="none" xmlns="http://www.w3.org/2000/svg">
  <g opacity="0.06">
    <path d="M0 0.585937H57.2723V14.0625H35.6491V74.4141H21.6232V14.0625H0V0.585937Z" fill="url(#paint0_linear_2635_65561)" />
    <path d="M189.879 60.9375V74.4141H137.866V0.585937H188.71V14.0625H151.892V29.8828H185.788V43.3594H151.892V60.9375H189.879Z" fill="url(#paint1_linear_2635_65561)" />
    <path d="M300.324 0.585937C303.83 0.585937 307.103 1.25 310.142 2.57813C313.181 3.82813 315.83 5.58594 318.09 7.85157C320.427 10.0391 322.22 12.6563 323.466 15.7031C324.791 18.6719 325.453 21.8359 325.453 25.1953C325.453 28.5547 324.791 31.7578 323.466 34.8047C322.22 37.7734 320.427 40.3906 318.09 42.6563C315.83 44.8438 313.181 46.6016 310.142 47.9297C307.103 49.1797 303.83 49.8047 300.324 49.8047H286.882V74.4141H272.856V0.585937H300.324ZM300.324 36.3281C301.804 36.3281 303.207 36.0156 304.531 35.3906C305.856 34.7656 307.025 33.9453 308.038 32.9297C309.051 31.9141 309.869 30.7422 310.492 29.4141C311.116 28.0859 311.427 26.6797 311.427 25.1953C311.427 23.7109 311.116 22.3047 310.492 20.9766C309.869 19.6484 309.051 18.4766 308.038 17.4609C307.025 16.4453 305.856 15.625 304.531 15C303.207 14.375 301.804 14.0625 300.324 14.0625H286.882V36.3281H300.324Z" fill="url(#paint2_linear_2635_65561)" />
    <path d="M435.313 0.585937C438.82 0.585937 442.093 1.25 445.132 2.57813C448.171 3.82813 450.82 5.58594 453.08 7.85157C455.417 10.0391 457.209 12.6563 458.456 15.7031C459.781 18.6719 460.443 21.8359 460.443 25.1953C460.443 28.5547 459.781 31.7578 458.456 34.8047C457.209 37.7734 455.417 40.3906 453.08 42.6563C450.82 44.8438 448.171 46.6016 445.132 47.9297C442.093 49.1797 438.82 49.8047 435.313 49.8047H421.872V74.4141H407.846V0.585937H435.313ZM435.313 36.3281C436.794 36.3281 438.197 36.0156 439.521 35.3906C440.846 34.7656 442.015 33.9453 443.028 32.9297C444.041 31.9141 444.859 30.7422 445.482 29.4141C446.106 28.0859 446.417 26.6797 446.417 25.1953C446.417 23.7109 446.106 22.3047 445.482 20.9766C444.859 19.6484 444.041 18.4766 443.028 17.4609C442.015 16.4453 440.846 15.625 439.521 15C438.197 14.375 436.794 14.0625 435.313 14.0625H421.872V36.3281H435.313Z" fill="url(#paint3_linear_2635_65561)" />
    <path d="M545.726 74.4141H531.116L558.583 0.585937H571.44L598.908 74.4141H584.297L579.038 59.1797H550.986L545.726 74.4141ZM574.362 46.2891L565.012 19.3359L555.661 46.2891H574.362Z" fill="url(#paint4_linear_2635_65561)" />
    <path d="M707.672 50.3906H672.607V38.6719H707.672V50.3906Z" fill="url(#paint5_linear_2635_65561)" />
    <path d="M818.724 19.9219C812.88 20.2344 808.282 21.9531 804.932 25.0781C801.659 28.125 800.023 31.875 800.023 36.3281C800.023 40.7813 801.659 44.5703 804.932 47.6953C808.282 50.7422 812.88 52.4219 818.724 52.7344V19.9219ZM832.75 7.03125C837.893 7.34375 842.49 8.32031 846.542 9.96094C850.594 11.5234 854.022 13.5938 856.828 16.1719C859.633 18.75 861.776 21.7578 863.256 25.1953C864.737 28.6328 865.477 32.3438 865.477 36.3281C865.477 40.3125 864.737 44.0234 863.256 47.4609C861.776 50.8984 859.633 53.9063 856.828 56.4844C854.022 59.0625 850.594 61.1719 846.542 62.8125C842.49 64.375 837.893 65.3125 832.75 65.625V75H818.724V65.625C813.581 65.3125 808.984 64.375 804.932 62.8125C800.88 61.1719 797.451 59.0625 794.646 56.4844C791.841 53.9063 789.698 50.8984 788.218 47.4609C786.737 44.0234 785.997 40.3125 785.997 36.3281C785.997 32.3438 786.737 28.6328 788.218 25.1953C789.698 21.7578 791.841 18.75 794.646 16.1719C797.451 13.5938 800.88 11.5234 804.932 9.96094C808.984 8.32031 813.581 7.34375 818.724 7.03125V0H832.75V7.03125ZM832.75 52.7344C838.594 52.4219 843.152 50.7422 846.425 47.6953C849.776 44.5703 851.451 40.7813 851.451 36.3281C851.451 31.875 849.776 28.125 846.425 25.0781C843.152 21.9531 838.594 20.2344 832.75 19.9219V52.7344Z" fill="url(#paint6_linear_2635_65561)" />
    <path d="M974.817 0.585937C978.323 0.585937 981.596 1.25 984.635 2.57813C987.674 3.82813 990.323 5.58594 992.583 7.85157C994.92 10.0391 996.712 12.6563 997.959 15.7031C999.284 18.6719 999.946 21.8359 999.946 25.1953C999.946 28.5547 999.284 31.7578 997.959 34.8047C996.712 37.7734 994.92 40.3906 992.583 42.6563C990.323 44.8438 987.674 46.6016 984.635 47.9297C981.596 49.1797 978.323 49.8047 974.817 49.8047H961.375V74.4141H947.349V0.585937H974.817ZM974.817 36.3281C976.297 36.3281 977.7 36.0156 979.024 35.3906C980.349 34.7656 981.518 33.9453 982.531 32.9297C983.544 31.9141 984.362 30.7422 984.985 29.4141C985.609 28.0859 985.92 26.6797 985.92 25.1953C985.92 23.7109 985.609 22.3047 984.985 20.9766C984.362 19.6484 983.544 18.4766 982.531 17.4609C981.518 16.4453 980.349 15.625 979.024 15C977.7 14.375 976.297 14.0625 974.817 14.0625H961.375V36.3281H974.817Z" fill="url(#paint7_linear_2635_65561)" />
    <path d="M1092.27 37.5C1092.27 41.0156 1092.86 44.2578 1094.03 47.2266C1095.2 50.1172 1096.75 52.6563 1098.7 54.8438C1100.65 56.9531 1102.91 58.5938 1105.48 59.7656C1108.13 60.9375 1110.94 61.5234 1113.9 61.5234C1116.78 61.5234 1119.55 60.9375 1122.2 59.7656C1124.85 58.5938 1127.14 56.9531 1129.09 54.8438C1131.04 52.6563 1132.6 50.1172 1133.77 47.2266C1134.94 44.2578 1135.52 41.0156 1135.52 37.5C1135.52 33.9844 1134.94 30.7813 1133.77 27.8906C1132.6 24.9219 1131.04 22.3828 1129.09 20.2734C1127.14 18.0859 1124.85 16.4063 1122.2 15.2344C1119.55 14.0625 1116.78 13.4766 1113.9 13.4766C1110.94 13.4766 1108.13 14.0625 1105.48 15.2344C1102.91 16.4063 1100.65 18.0859 1098.7 20.2734C1096.75 22.3828 1095.2 24.9219 1094.03 27.8906C1092.86 30.7813 1092.27 33.9844 1092.27 37.5ZM1149.55 37.5C1149.55 42.8125 1148.57 47.7344 1146.62 52.2656C1144.75 56.7969 1142.18 60.7813 1138.91 64.2188C1135.72 67.5781 1131.94 70.2344 1127.57 72.1875C1123.29 74.0625 1118.73 75 1113.9 75C1109.07 75 1104.47 74.0625 1100.11 72.1875C1095.82 70.2344 1092.04 67.5781 1088.77 64.2188C1085.57 60.7813 1083 56.7969 1081.05 52.2656C1079.18 47.7344 1078.25 42.8125 1078.25 37.5C1078.25 32.2656 1079.18 27.3828 1081.05 22.8516C1083 18.2422 1085.57 14.2578 1088.77 10.8984C1092.04 7.46094 1095.82 4.80469 1100.11 2.92969C1104.47 0.976564 1109.07 0 1113.9 0C1118.73 0 1123.29 0.976564 1127.57 2.92969C1131.94 4.80469 1135.72 7.46094 1138.91 10.8984C1142.18 14.2578 1144.75 18.2422 1146.62 22.8516C1148.57 27.3828 1149.55 32.2656 1149.55 37.5Z" fill="url(#paint8_linear_2635_65561)" />
    <path d="M1241.87 37.5C1241.87 41.0156 1242.46 44.2578 1243.63 47.2266C1244.8 50.1172 1246.35 52.6563 1248.3 54.8438C1250.25 56.9531 1252.51 58.5938 1255.08 59.7656C1257.73 60.9375 1260.54 61.5234 1263.5 61.5234C1265.99 61.5234 1268.25 61.1719 1270.28 60.4688C1272.3 59.6875 1274.09 58.7109 1275.65 57.5391C1277.29 56.2891 1278.61 54.9219 1279.63 53.4375C1280.72 51.875 1281.58 50.2734 1282.2 48.6328H1296.81C1295.95 52.1484 1294.55 55.5078 1292.6 58.7109C1290.65 61.9141 1288.24 64.7266 1285.35 67.1484C1282.55 69.4922 1279.28 71.4062 1275.54 72.8906C1271.87 74.2969 1267.86 75 1263.5 75C1258.67 75 1254.07 74.0625 1249.71 72.1875C1245.42 70.2344 1241.64 67.5781 1238.37 64.2188C1235.17 60.7813 1232.6 56.7969 1230.65 52.2656C1228.78 47.7344 1227.85 42.8125 1227.85 37.5C1227.85 32.2656 1228.78 27.3828 1230.65 22.8516C1232.6 18.2422 1235.17 14.2578 1238.37 10.8984C1241.64 7.46094 1245.42 4.80469 1249.71 2.92969C1254.07 0.976564 1258.67 0 1263.5 0C1267.71 0 1271.6 0.742187 1275.19 2.22656C1278.85 3.63281 1282.08 5.54688 1284.89 7.96875C1287.69 10.3125 1290.07 13.0859 1292.02 16.2891C1293.96 19.4922 1295.37 22.8516 1296.22 26.3672H1281.61C1281.15 24.7266 1280.41 23.1641 1279.39 21.6797C1278.38 20.1172 1277.09 18.75 1275.54 17.5781C1274.06 16.3281 1272.3 15.3516 1270.28 14.6484C1268.25 13.8672 1265.99 13.4766 1263.5 13.4766C1260.54 13.4766 1257.73 14.0625 1255.08 15.2344C1252.51 16.4063 1250.25 18.0859 1248.3 20.2734C1246.35 22.3828 1244.8 24.9219 1243.63 27.8906C1242.46 30.7813 1241.87 33.9844 1241.87 37.5Z" fill="url(#paint9_linear_2635_65561)" />
    <path d="M1372.73 0.585937H1430V14.0625H1408.38V74.4141H1394.35V14.0625H1372.73V0.585937Z" fill="url(#paint10_linear_2635_65561)" />
  </g>
  <defs>
    <linearGradient id="paint0_linear_2635_65561" x1="961.282" y1="0.72826" x2="961.282" y2="94.2713" gradientUnits="userSpaceOnUse">
      <stop stop-color="#EFF3FD" />
      <stop offset="1" stop-color="#FCFDFE" />
    </linearGradient>
    <linearGradient id="paint1_linear_2635_65561" x1="961.282" y1="0.72826" x2="961.282" y2="94.2713" gradientUnits="userSpaceOnUse">
      <stop stop-color="#EFF3FD" />
      <stop offset="1" stop-color="#FCFDFE" />
    </linearGradient>
    <linearGradient id="paint2_linear_2635_65561" x1="961.282" y1="0.72826" x2="961.282" y2="94.2713" gradientUnits="userSpaceOnUse">
      <stop stop-color="#EFF3FD" />
      <stop offset="1" stop-color="#FCFDFE" />
    </linearGradient>
    <linearGradient id="paint3_linear_2635_65561" x1="961.282" y1="0.72826" x2="961.282" y2="94.2713" gradientUnits="userSpaceOnUse">
      <stop stop-color="#EFF3FD" />
      <stop offset="1" stop-color="#FCFDFE" />
    </linearGradient>
    <linearGradient id="paint4_linear_2635_65561" x1="961.282" y1="0.72826" x2="961.282" y2="94.2713" gradientUnits="userSpaceOnUse">
      <stop stop-color="#EFF3FD" />
      <stop offset="1" stop-color="#FCFDFE" />
    </linearGradient>
    <linearGradient id="paint5_linear_2635_65561" x1="961.282" y1="0.72826" x2="961.282" y2="94.2713" gradientUnits="userSpaceOnUse">
      <stop stop-color="#EFF3FD" />
      <stop offset="1" stop-color="#FCFDFE" />
    </linearGradient>
    <linearGradient id="paint6_linear_2635_65561" x1="961.282" y1="0.72826" x2="961.282" y2="94.2713" gradientUnits="userSpaceOnUse">
      <stop stop-color="#EFF3FD" />
      <stop offset="1" stop-color="#FCFDFE" />
    </linearGradient>
    <linearGradient id="paint7_linear_2635_65561" x1="961.282" y1="0.72826" x2="961.282" y2="94.2713" gradientUnits="userSpaceOnUse">
      <stop stop-color="#EFF3FD" />
      <stop offset="1" stop-color="#FCFDFE" />
    </linearGradient>
    <linearGradient id="paint8_linear_2635_65561" x1="961.282" y1="0.72826" x2="961.282" y2="94.2713" gradientUnits="userSpaceOnUse">
      <stop stop-color="#EFF3FD" />
      <stop offset="1" stop-color="#FCFDFE" />
    </linearGradient>
    <linearGradient id="paint9_linear_2635_65561" x1="961.282" y1="0.72826" x2="961.282" y2="94.2713" gradientUnits="userSpaceOnUse">
      <stop stop-color="#EFF3FD" />
      <stop offset="1" stop-color="#FCFDFE" />
    </linearGradient>
    <linearGradient id="paint10_linear_2635_65561" x1="961.282" y1="0.72826" x2="961.282" y2="94.2713" gradientUnits="userSpaceOnUse">
      <stop stop-color="#EFF3FD" />
      <stop offset="1" stop-color="#FCFDFE" />
    </linearGradient>
  </defs>
</svg>