<svg width="128" height="25" viewBox="0 0 128 25" fill="none" xmlns="http://www.w3.org/2000/svg">
  <path fill-rule="evenodd" clip-rule="evenodd" d="M61.4916 18.2702C61.3414 18.396 61.1763 18.5125 60.9964 18.6195C59.8997 19.2883 58.2867 19.6068 56.1415 19.6068C55.0605 19.6068 54.109 19.4895 53.2862 19.2549C52.4638 19.0211 51.7863 18.7026 51.2214 18.2847C50.6731 17.8831 50.2539 17.3976 49.9634 16.8453C49.7216 16.3598 49.5763 15.8581 49.5441 15.3058C49.5441 15.2501 49.5656 15.1944 49.6007 15.1516C49.6192 15.1285 49.6415 15.1097 49.6663 15.0951C49.6931 15.0797 49.7228 15.0711 49.7538 15.0711H53.4153C53.5123 15.0711 53.6089 15.1551 53.625 15.2552C53.641 15.4059 53.6893 15.5395 53.738 15.674C53.8185 15.8581 53.9476 16.025 54.1251 16.1757C54.3186 16.3264 54.5608 16.4266 54.8991 16.5105C55.0217 16.5431 55.1611 16.5696 55.315 16.591C55.3906 16.6013 55.4698 16.6099 55.5523 16.6176C55.686 16.6296 55.8283 16.6381 55.9785 16.6415L56.1737 16.6441C56.6251 16.6441 56.98 16.6107 57.2544 16.561C57.5283 16.5105 57.7545 16.4266 57.8993 16.3427C58.0606 16.2596 58.1576 16.1595 58.222 16.0422L58.2405 16.001L58.25 15.9771L58.2706 15.918C58.2909 15.8521 58.3028 15.7853 58.3028 15.7236C58.3028 15.6517 58.2966 15.5926 58.281 15.5352L58.2678 15.4933C58.2595 15.4702 58.2496 15.4462 58.2381 15.4222C58.1898 15.3392 58.1254 15.2552 58.0123 15.1713C57.962 15.1362 57.8989 15.1011 57.8267 15.066C57.7602 15.0343 57.6868 15.0026 57.6092 14.971C57.4318 14.9204 57.2222 14.8537 56.98 14.8031L53.5284 14.1173C52.8348 13.9837 52.2538 13.7825 51.7863 13.5478C51.3184 13.3141 50.9314 13.0289 50.657 12.6941C50.3669 12.3765 50.1734 12.0083 50.0442 11.6067C49.9151 11.2051 49.8668 10.7864 49.8668 10.318C49.8668 10.181 49.8759 10.0431 49.8928 9.90614C49.9023 9.82651 49.9147 9.74687 49.9295 9.66724C49.9481 9.5662 49.9704 9.46516 49.996 9.36412C50.0376 9.19886 50.0929 9.03788 50.1635 8.88119C50.2283 8.73733 50.3063 8.59691 50.3991 8.4599C50.5926 8.17562 50.8344 7.90761 51.141 7.67385C51.4476 7.43923 51.8346 7.22174 52.2864 7.05477C52.7378 6.87067 53.2701 6.73624 53.8833 6.63605C54.496 6.53587 55.2057 6.48535 55.9963 6.48535C56.203 6.48535 56.4048 6.48963 56.6012 6.4982C56.994 6.51446 57.3662 6.547 57.7161 6.59495C57.8952 6.61979 58.0685 6.64804 58.236 6.68058C58.4448 6.72168 58.6445 6.76792 58.8351 6.82015C59.6253 7.03764 60.2867 7.35532 60.8029 7.74064C61.3191 8.14223 61.7061 8.59434 61.964 9.1295C62.1901 9.58161 62.3189 10.0834 62.3676 10.586C62.3836 10.7196 62.2867 10.8198 62.1579 10.8198H58.7703C58.7464 10.8198 58.7237 10.8164 58.7027 10.8086C58.6771 10.8001 58.6536 10.7855 58.6342 10.7675C58.6049 10.741 58.5842 10.7067 58.5768 10.6691C58.5285 10.5192 58.4803 10.3848 58.4155 10.2675C58.3189 10.1005 58.1898 9.94981 57.9963 9.8325C57.8027 9.71519 57.5609 9.61501 57.2383 9.54822C57.0538 9.50798 56.8347 9.48057 56.5876 9.46431C56.4238 9.45317 56.2472 9.44804 56.0607 9.44804C55.6897 9.44804 55.3831 9.48143 55.1413 9.53109C55.0477 9.55079 54.9639 9.57305 54.8876 9.59703C54.7885 9.62871 54.7027 9.66467 54.6264 9.70492L54.5769 9.73232C54.5084 9.77684 54.4485 9.82137 54.4007 9.87103C54.3586 9.9147 54.3252 9.9618 54.3025 10.0166L54.2752 10.0782C54.2645 10.1039 54.255 10.1296 54.2472 10.1553C54.2311 10.2093 54.2216 10.2641 54.2216 10.318C54.2216 10.4353 54.2381 10.5355 54.2864 10.6194C54.3347 10.7196 54.3994 10.8035 54.5121 10.8874C54.6251 10.9705 54.7704 11.0373 54.9478 11.1049C55.1252 11.1717 55.367 11.2214 55.6414 11.2719L58.4155 11.8079C58.7109 11.8704 58.9882 11.9346 59.2486 12.0031C59.6847 12.117 60.0726 12.2403 60.4159 12.3765C60.9481 12.594 61.3835 12.862 61.7222 13.1634C62.0449 13.4648 62.2867 13.8159 62.4319 14.2174C62.5611 14.6524 62.6415 15.1045 62.6415 15.6063C62.6415 16.0362 62.5862 16.4309 62.4761 16.7897C62.3655 17.1502 62.1996 17.4755 61.978 17.765C61.8881 17.8823 61.7895 17.9936 61.681 18.0989C61.6207 18.158 61.5576 18.2154 61.4916 18.2702ZM33.317 19.022L38.4785 6.95459C38.4934 6.91605 38.5193 6.88437 38.5507 6.86125C38.5862 6.83556 38.6291 6.82101 38.672 6.82101H43.8661C43.9465 6.82101 44.0274 6.87153 44.0596 6.95459L49.2211 19.022C49.2858 19.1727 49.1889 19.3234 49.0275 19.3234H45.092C45.0111 19.3234 44.9306 19.2728 44.8985 19.1889L44.1887 17.3146C44.1566 17.2306 44.0757 17.181 43.9952 17.181H38.5433C38.4624 17.181 38.3819 17.2306 38.3493 17.3146L37.6401 19.1889C37.6075 19.2728 37.527 19.3234 37.4461 19.3234H33.5106C33.3492 19.3234 33.2527 19.1727 33.317 19.022ZM42.7206 14.2183C42.8659 14.2183 42.9629 14.0676 42.9142 13.9169L41.4626 10.068C41.4304 9.98406 41.3499 9.93354 41.269 9.93354C41.1886 9.93354 41.1077 9.98406 41.0755 10.068L39.6239 13.9169C39.6041 13.9726 39.6091 14.0342 39.6318 14.0864C39.664 14.1609 39.7325 14.2183 39.8175 14.2183H42.7206ZM64.174 7.05477V19.105C64.174 19.2386 64.2706 19.3225 64.3836 19.3396H68.2387C68.3518 19.3396 68.4483 19.2386 68.4483 19.1221V7.05477C68.4483 7.00254 68.4294 6.95373 68.398 6.91605C68.3592 6.8681 68.3014 6.83728 68.2387 6.83728H64.3836C64.2706 6.83728 64.174 6.93746 64.174 7.05477ZM69.6738 19.022L74.8353 6.95459C74.8679 6.87153 74.9483 6.82101 75.0288 6.82101H80.2229C80.3033 6.82101 80.3842 6.87153 80.4164 6.95459L85.5778 19.022C85.643 19.1727 85.5457 19.3234 85.3843 19.3234H81.4488C81.4145 19.3234 81.3807 19.3139 81.3501 19.2977C81.3085 19.2746 81.2738 19.2377 81.2552 19.1889L80.5455 17.3146C80.5414 17.3034 80.5365 17.2932 80.5307 17.2837L80.5154 17.2623L80.5022 17.2461C80.4626 17.2041 80.4073 17.181 80.352 17.181H74.9001C74.8856 17.181 74.8712 17.1827 74.8571 17.1853L74.8336 17.1921C74.8027 17.2024 74.7738 17.2204 74.7503 17.2452C74.7321 17.2649 74.7169 17.288 74.7065 17.3146L73.9968 19.1889C73.9647 19.2728 73.8838 19.3234 73.8033 19.3234H69.8673C69.8178 19.3234 69.772 19.3062 69.7357 19.2771C69.666 19.2206 69.6313 19.1213 69.6738 19.022ZM79.0774 14.2183C79.2227 14.2183 79.3196 14.0676 79.2714 13.9169L77.8193 10.068C77.7872 9.98406 77.7067 9.93354 77.6258 9.93354C77.5833 9.93354 77.5404 9.94724 77.5049 9.97293C77.4897 9.98406 77.476 9.9969 77.4641 10.0123L77.4443 10.0414L77.4323 10.068L75.9807 13.9169C75.932 14.0513 76.029 14.2183 76.1742 14.2183H79.0774ZM99.9977 13.4982C100.24 12.963 100.369 12.3268 100.369 11.6238H100.386V10.854C100.386 10.5038 100.344 10.1699 100.261 9.85476C100.198 9.61244 100.11 9.3821 99.9977 9.16376C99.7402 8.66113 99.3854 8.24327 98.9179 7.89134C98.4495 7.55654 97.8851 7.28939 97.2397 7.10529C96.5948 6.92119 95.869 6.83728 95.0788 6.83728H87.0138C86.9003 6.83728 86.8042 6.93746 86.8042 7.05477V19.105C86.8042 19.2223 86.9003 19.3225 87.0138 19.3225H90.8528C90.9151 19.3225 90.9729 19.2917 91.0116 19.2446C91.043 19.2061 91.0624 19.1573 91.0624 19.105V16.1766C91.0624 16.0593 91.1585 15.9582 91.272 15.9582H95.2563C96.0142 15.9582 96.7083 15.8581 97.3367 15.674C97.6635 15.5781 97.9643 15.4599 98.2412 15.3169C98.497 15.1842 98.733 15.0309 98.95 14.8537C99.4014 14.4855 99.7563 14.0342 99.9977 13.4982ZM95.9173 10.5697C95.9982 10.7367 96.0303 10.9379 96.0303 11.1717V11.5399C96.0303 11.6452 96.0204 11.7437 96.0023 11.8362C95.9804 11.9492 95.9458 12.0511 95.9012 12.1427C95.8719 12.2035 95.8385 12.2617 95.8009 12.3165C95.7345 12.4124 95.6549 12.4972 95.562 12.5614C95.4176 12.6616 95.2563 12.7455 95.0627 12.7952C95.007 12.8097 94.9513 12.8217 94.8952 12.8311C94.8395 12.8406 94.7834 12.8474 94.7265 12.8517C94.6415 12.8594 94.5548 12.862 94.4653 12.862H91.272C91.2559 12.862 91.2402 12.8603 91.225 12.856C91.1878 12.8466 91.154 12.8269 91.1272 12.7995C91.1127 12.7849 91.1004 12.7686 91.0905 12.7507C91.0727 12.7198 91.0624 12.683 91.0624 12.6445V10.151C91.0624 10.0337 91.1585 9.93354 91.272 9.93354H94.5466C94.7723 9.93354 94.9815 9.95067 95.1593 9.98406C95.3367 10.0175 95.4981 10.0842 95.6272 10.1844C95.7399 10.2846 95.8529 10.4019 95.9173 10.5697ZM99.3049 19.022L104.466 6.95459C104.499 6.87153 104.579 6.82101 104.66 6.82101H109.854C109.898 6.82101 109.942 6.83556 109.978 6.86297C110.008 6.88608 110.033 6.91691 110.048 6.95459L115.209 19.022C115.237 19.087 115.235 19.1521 115.21 19.2052C115.177 19.2746 115.107 19.3234 115.016 19.3234H111.08C110.999 19.3234 110.918 19.2728 110.886 19.1889L110.176 17.3146C110.144 17.2306 110.064 17.181 109.983 17.181H104.532C104.45 17.181 104.37 17.2306 104.338 17.3146L103.628 19.1889C103.596 19.2728 103.515 19.3234 103.434 19.3234H99.4984C99.3532 19.3234 99.2405 19.1727 99.3049 19.022ZM105.806 14.2183H108.709C108.854 14.2183 108.951 14.0676 108.902 13.9169L107.45 10.068C107.418 9.98406 107.338 9.93354 107.257 9.93354C107.208 9.93354 107.159 9.95238 107.12 9.98663C107.096 10.008 107.076 10.0354 107.063 10.068L105.611 13.9169C105.591 13.9743 105.597 14.0376 105.621 14.0907C105.655 14.1635 105.722 14.2183 105.806 14.2183ZM122.08 19.1221V15.0891C122.08 15.0557 122.087 15.0223 122.096 14.9941C122.101 14.9795 122.107 14.9658 122.113 14.9547L127.564 7.17208C127.598 7.11985 127.608 7.06162 127.599 7.00767C127.584 6.90664 127.502 6.82101 127.387 6.82101H123.064C122.999 6.82101 122.919 6.8544 122.887 6.92119L120.145 11.474C120.063 11.6075 119.87 11.6075 119.79 11.474L117.031 6.92119C116.999 6.8544 116.918 6.82101 116.854 6.82101H112.531C112.353 6.82101 112.257 7.02223 112.353 7.17208L117.773 14.9547L117.783 14.9847C117.796 15.0198 117.806 15.0489 117.806 15.0891V19.1221C117.806 19.2395 117.903 19.3396 118.015 19.3396H121.87C121.983 19.3396 122.08 19.2395 122.08 19.1221Z" fill="#08131D" />
  <path d="M7.57289 3.22594L0.846694 15.3097C-1.55668 19.6109 1.4435 25 6.2341 25H19.6865C24.4771 25 27.4773 19.6109 25.0739 15.3097L18.3477 3.22594C15.9605 -1.07531 9.97627 -1.07531 7.57289 3.22594Z" fill="#6059F4" />
  <path fill-rule="evenodd" clip-rule="evenodd" d="M4.46022 16.3307C3.557 17.9542 4.08928 20.0297 5.65352 20.9674C7.21818 21.9041 9.20247 21.3518 10.1218 19.7283L16.1543 8.89998C17.0575 7.2765 16.5252 5.20091 14.9606 4.26415C13.3963 3.32654 11.396 3.87883 10.4927 5.50231L4.46022 16.3307ZM21.9285 17.8865C21.9285 19.9758 20.2966 21.6695 18.2834 21.6695C16.2698 21.6695 14.6379 19.9758 14.6379 17.8865C14.6379 15.7981 16.2698 14.1044 18.2834 14.1044C20.2966 14.1044 21.9285 15.7981 21.9285 17.8865Z" fill="white" />
</svg>