<svg width="104" height="20" viewBox="0 0 104 20" fill="none" xmlns="http://www.w3.org/2000/svg">
  <path fill-rule="evenodd" clip-rule="evenodd" d="M96.8061 6.53508C96.6608 5.59599 95.992 5.06872 95.1376 4.75782C93.6708 4.22327 92.153 4.19418 90.619 4.32054C89.2017 4.43691 87.8309 4.72236 86.5094 5.41327C86.2646 4.066 86.0288 2.77419 85.7903 1.46783C86.9531 0.893291 88.1205 0.573292 89.32 0.357839C91.8858 -0.10125 94.4571 -0.173068 96.9997 0.46602C99.6813 1.14056 101.564 2.68055 102.084 5.51327C102.212 6.21326 102.207 7.27235 102.207 7.27235V13.6359C102.207 13.9123 102.241 14.5032 102.258 14.7787C102.353 16.2496 102.486 16.3932 104 16.6159V19.6441C102.505 20.0186 100.971 20.2159 99.4509 19.505C98.5965 19.1059 98.2029 18.3668 98.0155 17.4941C97.9913 17.3796 97.9797 17.2624 97.9653 17.1216V17.1213V17.1187C97.9581 17.0457 97.9501 16.9663 97.9393 16.8777C96.105 19.495 93.4799 20.1377 90.5948 19.9768C87.362 19.7968 84.8803 17.6423 84.4231 15.1005C83.6798 10.9641 85.7822 7.87416 89.9779 7.25053C92.6308 6.85599 93.3911 7.02326 96.8204 8.18144C96.8204 8.00633 96.8276 7.83166 96.8339 7.65796C96.8482 7.2771 96.8626 6.90095 96.8061 6.53508ZM96.7155 11.795C95.8351 11.1941 94.8346 10.8787 93.7883 10.7469C92.7008 10.6096 91.6276 10.6814 90.705 11.3887C89.8587 12.0378 89.5388 13.0687 89.8488 14.1314C90.0864 14.9487 90.9256 15.5887 91.9145 15.6814C92.8675 15.7723 93.7919 15.6287 94.6723 15.2568C96.252 14.5887 96.8706 13.5341 96.7155 11.795ZM30.1251 19.9995C27.3817 20.0159 24.9153 19.2241 22.8684 17.4305C20.5984 15.4414 19.7018 12.8523 19.7242 9.91777C19.744 7.48327 20.4038 5.26873 22.058 3.39783C23.5417 1.72057 25.4299 0.722386 27.6336 0.268752C30.4013 -0.301246 33.0649 0.0187533 35.5161 1.38966C38.6074 3.11965 40.1342 5.82964 40.3225 9.27959C40.4884 12.3141 39.7478 15.0477 37.4535 17.2286C35.4175 19.1641 32.9206 19.9705 30.1251 19.9995ZM30.1915 4.90601C27.8676 4.96237 26.2368 6.18691 25.6137 8.20326C25.2308 9.44596 25.2551 10.6787 25.637 11.9214C26.192 13.7259 27.4211 14.8341 29.2931 15.1232C31.1893 15.415 32.8184 14.7978 33.8548 13.1668C35.0337 11.3096 35.0562 9.32596 34.1157 7.36145C33.3106 5.67873 31.8761 4.92601 30.1915 4.90601ZM69.0345 11.8182H71.7241L72.1634 11.9182L72.7831 13.0345L72.7927 13.052C74.0859 15.382 75.3784 17.7106 76.6489 20H82.4828C82.4216 19.8483 82.3693 19.7051 82.3197 19.5695C82.2211 19.2998 82.1335 19.0603 82.0094 18.8436C81.0113 17.1022 80.0065 15.3657 79.0017 13.6292L78.995 13.6175L78.9903 13.6095C78.4411 12.6602 77.8919 11.711 77.3437 10.761C77.2484 10.5977 77.1629 10.428 77.0705 10.2448L77.0703 10.2443C77.028 10.1605 76.9843 10.0739 76.9376 9.98368C80.7255 7.72826 81.5127 4.10918 81.4033 0.000111311H76.2069C76.2069 1.6122 75.9447 2.56035 75.6365 3.67468V3.67477L75.6363 3.67551C75.597 3.8177 75.5569 3.96259 75.5166 4.11191C75.1104 5.61827 74.1009 6.62463 72.6583 7.13462C71.8593 7.4169 71.0052 7.36627 70.1297 7.31438C69.7675 7.29289 69.4016 7.27121 69.0345 7.2728V0.000111311H63.6552V19.9827L69.0345 20V11.8182ZM54.7475 0.000111311H60.0694V20H54.6955V13.5864C54.3783 13.6608 54.0696 13.741 53.7661 13.8199C53.1236 13.987 52.504 14.1481 51.8749 14.2346C49.4354 14.5691 47.1124 14.2646 45.123 12.5582C43.5845 11.2382 42.6835 9.46823 42.4109 7.46008C42.2258 6.09821 42.2103 4.30998 42.1946 2.51361V2.51358C42.1872 1.66468 42.1798 0.813966 42.1545 0.00556583L47.5177 0.000111311V0.909196V5.45463C47.5177 7.59553 49.378 9.2846 51.4033 9.31459C52.654 9.33278 53.3838 9.0237 54.6838 8.18734L54.7475 0.000111311ZM6.27586 20H11.6552V5.45463H17.931V0.000111311H0V5.45463H6.27586V20Z" fill="#231F20" />
</svg>