<svg width="112" height="40" viewBox="0 0 112 40" fill="none" xmlns="http://www.w3.org/2000/svg">
  <path d="M58.023 37.2301V27.2136C59.2647 28.7301 61.5058 30.3521 64.6439 30.3521C69.7816 30.3521 73.4022 26.3671 73.4022 20.8306C73.4022 15.2936 69.7816 11.3086 64.6439 11.3086C61.3679 11.3086 59.0921 13.0716 57.8509 14.6236L57.0232 11.6611H54.0576V37.2301H58.023ZM63.6784 26.7201C60.3334 26.7201 58.023 24.2871 58.023 20.8311C58.023 17.3746 60.3334 14.9411 63.6784 14.9411C66.9886 14.9411 69.2643 17.3746 69.2643 20.8311C69.2643 24.2871 66.9886 26.7206 63.6784 26.7206V26.7201ZM84.165 11.3091C80.6827 11.3091 77.6135 13.1431 76.7169 16.3166L80.3723 16.9516C80.9237 15.8231 82.165 14.7651 83.9582 14.7651C86.1308 14.7651 87.4063 16.3521 87.5789 18.7501H83.7167C78.4412 18.7501 75.8203 21.1131 75.8203 24.4986C75.8203 27.9196 78.4065 30.3526 82.0618 30.3526C84.9927 30.3526 86.9585 28.6246 87.8204 27.1081L88.6481 30.0001H91.5789V19.7021C91.5789 14.3771 88.7512 11.3091 84.165 11.3091V11.3091ZM82.9927 26.9321C81.0616 26.9321 79.8203 25.9091 79.8203 24.3221C79.8203 22.9116 80.8206 21.9241 83.8551 21.9241H87.6136C87.6136 24.9216 85.7514 26.9321 82.9927 26.9321V26.9321ZM103.38 24.8866H102.828L97.5521 11.6616H93.3106L101.276 30.9876L101.069 31.5516C100.552 33.0331 99.9315 33.5266 98.6208 33.5266H95.2764L95.621 37.2296H98.3451C101.655 37.2296 103.449 35.7131 104.656 32.2926L112 11.6616H107.966L103.38 24.8866V24.8866Z" fill="black" />
  <path d="M0 19.2C0 10.149 0 5.6235 2.74948 2.812C5.49847 0 9.92336 0 18.7731 0H20.3375C29.1873 0 33.6122 0 36.3612 2.812C39.1107 5.6235 39.1107 10.149 39.1107 19.2V20.8C39.1107 29.851 39.1107 34.3765 36.3612 37.188C33.6122 40 29.1873 40 20.3375 40H18.7731C9.92336 40 5.49847 40 2.74948 37.188C0 34.3765 0 29.851 0 20.8V19.2Z" fill="#0077FF" />
  <path d="M20.81 28.817C11.8957 28.817 6.81178 22.567 6.59961 12.167H11.0646C11.2112 19.8005 14.5034 23.0345 17.1106 23.7005V12.1675H21.315V18.7505C23.8899 18.467 26.5949 15.467 27.5072 12.1675H31.7116C31.011 16.234 28.0777 19.234 25.9917 20.4675C28.0777 21.4675 31.4183 24.084 32.6894 28.8175H28.0616C27.0677 25.6505 24.5905 23.2005 21.315 22.8675V28.8175H20.81V28.817Z" fill="white" />
</svg>