<svg width="110" height="45" viewBox="0 0 110 45" fill="none" xmlns="http://www.w3.org/2000/svg">
  <g clip-path="url(#clip0_2635_65682)">
    <path d="M50.8249 0.482853C37.3369 0.868629 24.0261 3.34323 13.1964 7.46442C11.5827 8.08542 8.42992 9.41211 7.17999 10.0143C7.0494 10.0707 6.87217 10.2683 6.78822 10.4471C6.47107 11.0775 6.55502 11.5009 7.68369 15.0858C8.38328 17.3064 8.72841 18.5295 8.6911 18.6989C8.6258 19.0659 8.24336 19.5645 7.89823 19.7151C7.73033 19.7904 7.06806 20.0162 6.40578 20.2326C5.11854 20.6466 1.65791 21.9733 1.03295 22.3026C0.473276 22.5849 0.249408 22.9801 0.314703 23.5728C0.361342 24.0621 6.06065 43.379 6.3125 43.9247C6.39645 44.0941 6.59234 44.3387 6.76024 44.4705L7.05873 44.6963H54.8825C90.0578 44.6963 102.762 44.6681 102.912 44.5928C103.331 44.3764 103.63 43.9906 103.816 43.4355C104.497 41.3466 109.618 23.8551 109.665 23.4787C109.712 23.0553 109.684 22.9706 109.46 22.6978C109.32 22.5284 109.077 22.3214 108.928 22.2461C108.415 21.9827 104.852 20.6184 103.658 20.2232C102.996 20.0162 102.305 19.7715 102.1 19.6869C101.671 19.5081 101.307 19 101.279 18.5389C101.261 18.2284 103.033 11.9902 103.275 11.5103C103.443 11.1716 103.313 10.4659 103.014 10.1554C102.874 10.0049 102.706 9.88256 102.641 9.88256C102.576 9.88256 102.007 9.64734 101.372 9.35565C90.9813 4.60405 77.7077 1.5649 63.4268 0.661629C61.4493 0.53931 56.1045 0.379353 54.4721 0.398174C53.7819 0.407581 52.1402 0.445217 50.8249 0.482853ZM66.3465 10.4659C66.4584 10.6071 66.4957 10.7482 66.4584 10.9082C65.9733 12.9499 65.8241 13.3733 65.4043 13.8438C64.9659 14.3425 64.3596 14.6906 62.9325 15.2928C62.4941 15.4716 61.8971 15.688 61.6079 15.7633C61.1415 15.8762 61.0389 15.8856 60.815 15.7633C60.2647 15.481 60.2274 14.8035 60.6751 13.3639C61.0855 12.0655 61.2441 11.7926 61.8318 11.3974C62.6806 10.8329 63.6787 10.4753 65.0779 10.2683C65.7868 10.1554 66.1412 10.2119 66.3465 10.4659ZM32.5517 10.9646C32.7009 11.0493 32.8502 11.2092 32.8782 11.3222C32.9155 11.4539 32.3372 13.7121 31.3951 17.1464C30.5462 20.2326 29.8466 22.8013 29.8466 22.8577C29.8466 22.933 30.5276 22.9612 32.2159 22.9612H34.5852L34.6225 22.7448C34.6505 22.6319 35.1822 20.656 35.8071 18.3508C36.7119 14.9917 37.0197 13.9943 37.3555 13.2981C37.8313 12.3289 38.5029 11.5197 39.1651 11.1246L39.5942 10.8705L42.0101 10.8423C43.3347 10.8235 44.482 10.8329 44.566 10.8705C44.6779 10.9082 44.6312 11.0117 44.3328 11.3222C43.3533 12.3383 42.4019 14.4178 41.3665 17.7956C40.6762 20.035 37.6447 31.9469 37.6074 32.5585C37.5607 33.3583 37.682 33.7347 38.195 34.3369L38.6241 34.8449L38.4096 35.0614C37.8126 35.6541 36.2362 36.3316 34.837 36.595C33.9416 36.7644 32.0946 36.8867 31.8521 36.7926C31.5163 36.6609 31.3204 36.1999 31.3298 35.5224C31.3298 34.8449 31.4044 34.5439 32.8875 28.9642C33.4752 26.7531 33.9509 24.9089 33.9509 24.8525C33.9509 24.7772 33.2047 24.749 31.5909 24.749H29.231L28.5594 27.073C27.6546 30.1874 27.2069 31.1189 26.0036 32.4174C24.8283 33.697 21.0038 35.8611 18.4667 36.6891C16.825 37.2255 16.3772 37.3007 14.8755 37.3101C13.3177 37.3101 12.9819 37.2349 11.7973 36.6139C9.79178 35.5694 7.96353 32.2574 7.77697 29.3312C7.69302 27.9763 7.82361 27.3553 8.27135 26.9507C8.76572 26.5085 10.4727 25.6711 11.7413 25.2476C13.1311 24.7866 13.0565 24.6831 12.9912 27.0448C12.9539 28.4656 12.9726 29.0395 13.0938 29.7828C13.4017 31.6458 14.1665 33.4712 14.9874 34.271C15.7429 35.0143 17.1514 35.4189 18.3081 35.2495C19.6513 35.0425 21.237 33.0384 22.4403 30.0463C22.6082 29.6041 23.3265 27.2047 24.0261 24.7113C24.7163 22.2273 25.7051 18.6989 26.2181 16.8735C26.7218 15.0576 27.1695 13.3169 27.1975 13.0158C27.3095 11.9432 26.9923 11.755 24.9962 11.6891C23.3824 11.6421 22.8414 11.7267 21.8247 12.2442C20.6774 12.8276 19.9405 13.7403 19.5207 15.1046C19.3901 15.5563 19.3528 15.9703 19.3621 17.1276C19.3621 18.8118 19.4181 19.0188 20.3416 20.9853C20.6401 21.6251 20.8546 22.1897 20.8173 22.2179C20.7333 22.312 18.8491 22.566 17.7484 22.6413C17.1608 22.6884 16.8063 22.6695 16.6198 22.5943C16.1907 22.4155 15.7709 21.484 15.3512 19.8092C14.577 16.7136 15.4818 14.032 17.8324 12.4607C19.7259 11.1904 21.918 10.8611 28.7553 10.8329C31.7402 10.8235 32.3185 10.8423 32.5517 10.9646ZM80.6927 17.8803C81.7001 18.0779 82.2691 18.7271 82.2691 19.6869C82.2691 20.2326 82.0918 20.9383 80.4968 26.6308C78.7805 32.7843 78.6778 33.3019 79.1536 33.8758C79.2935 34.0358 79.564 34.2522 79.7599 34.3557C79.9651 34.4592 80.1237 34.5721 80.1237 34.6191C80.1237 35.1649 75.4691 36.9808 74.0606 36.9808C73.5009 36.9808 73.0252 36.7268 72.8293 36.3222C72.5215 35.7106 72.6334 34.892 73.3143 32.7938C73.5102 32.1728 74.0326 30.338 74.4803 28.7102C74.9187 27.0824 75.4691 25.1347 75.6929 24.3726C75.9168 23.6105 76.1313 22.7354 76.1593 22.4343C76.2153 21.9545 76.1966 21.8415 76.0194 21.6157C75.8608 21.4181 75.7396 21.3617 75.4504 21.3617C74.471 21.3617 72.8293 22.5002 72.167 23.6481C71.8219 24.2315 71.6633 24.7113 70.7399 27.8069C69.4806 32.0598 69.4806 32.0598 69.4246 33.5465C69.3967 34.4121 69.3314 34.9296 69.2567 35.0614C68.9396 35.56 65.8427 36.8585 64.7234 36.9526C64.0425 37.0185 63.7626 36.8585 63.5015 36.2469C63.1936 35.56 63.2962 34.5344 63.8279 32.8878C64.0611 32.1633 64.8353 29.6605 65.5443 27.3365C66.7755 23.2623 66.8222 23.0741 66.8315 22.2555C66.8315 21.4746 66.8128 21.3805 66.561 21.0041C66.3558 20.703 66.3091 20.5525 66.3744 20.449C66.4211 20.3643 66.8781 20.082 67.3912 19.7998C68.8836 18.9906 72.0364 18.0309 72.6707 18.1908C73.1278 18.3131 73.2397 18.9624 72.9785 20.0256C72.7547 20.91 72.7547 20.91 74.0699 20.0068C75.3851 19.1129 77.1481 18.3319 78.5379 18.0403C79.8252 17.7674 80.0024 17.7486 80.6927 17.8803ZM54.3602 18.4825C55.1437 18.8871 55.5915 19.4799 55.7873 20.4114C56.1698 22.2085 54.3695 24.4667 51.3566 25.9533C50.3306 26.4614 48.6515 27.0918 47.5322 27.3835C47.0845 27.5058 46.6554 27.6564 46.5901 27.7222C46.5248 27.7881 46.3756 28.1927 46.2543 28.6255C46.0864 29.2465 46.0397 29.6417 46.0397 30.5826C46.0304 31.9187 46.1144 32.1916 46.6927 32.8408C47.243 33.4524 47.6441 33.6124 48.7728 33.6688C49.9388 33.7253 50.4611 33.6124 51.7204 33.076C52.2334 32.8502 52.6905 32.6997 52.7371 32.7467C52.9237 32.9349 52.6345 33.3865 51.6924 34.3369C49.9201 36.134 48.6236 36.7832 46.1703 37.0843C45.0697 37.216 44.2115 37.1408 43.2974 36.8303C41.9542 36.3786 41.2452 35.767 40.7136 34.6003C40.3125 33.7253 40.1819 33.029 40.1912 31.8905C40.2099 28.7761 41.6463 25.0595 43.8104 22.5378C45.9651 20.0256 48.6795 18.6801 52.5133 18.219C53.1476 18.1438 53.9124 18.2473 54.3602 18.4825ZM63.7999 18.3508C63.9026 18.4543 64.0052 18.6424 64.0425 18.7742C64.1451 19.207 63.716 20.91 62.2329 25.9251C60.4606 31.9375 60.3486 32.3515 60.3486 33.0384C60.3486 33.5183 60.386 33.6312 60.6285 33.9134C60.7871 34.0828 61.0855 34.2992 61.2908 34.3839C61.6545 34.5344 61.6639 34.5533 61.524 34.7132C61.3187 34.9484 59.733 35.7576 58.6883 36.1716C57.5783 36.6139 56.1604 36.9808 55.5821 36.9808C54.9758 36.9808 54.3509 36.6703 54.1643 36.2751C53.7632 35.4189 53.8658 34.7132 54.8546 31.7305C56.7388 26.0568 57.6622 22.8766 57.6809 22.0109C57.6902 21.4746 57.6529 21.3429 57.4197 21.0041C57.2798 20.7877 57.1772 20.5525 57.2052 20.4772C57.4011 19.9597 60.2274 18.7554 62.2609 18.3225C63.1936 18.1155 63.5761 18.1249 63.7999 18.3508ZM96.8485 18.2661C97.119 18.4166 97.1843 18.5201 97.119 18.7459C97.091 18.8494 95.0669 21.7098 92.6043 25.1065C89.0597 29.9993 88.1456 31.3259 88.1643 31.5141L88.1922 31.7588L92.567 31.787C95.4027 31.7964 97.063 31.7776 97.2962 31.7117C97.7346 31.5894 98.201 31.1378 98.6954 30.3662C99.0312 29.8393 99.0592 29.7546 99.0592 29.1054C99.0592 28.315 98.9472 28.0139 98.4622 27.5905C98.0984 27.2706 97.632 27.1577 96.8671 27.2142L96.4007 27.2424L96.4287 26.9131C96.466 26.3579 96.9138 25.5864 97.3615 25.2665C97.7346 25.0124 97.8372 24.9842 98.5275 24.9842C99.7588 24.9936 100.673 25.5111 101.083 26.4144C101.279 26.8378 101.307 27.0166 101.261 27.4023C101.074 28.8137 99.5535 31.5988 97.3242 34.6379C96.8391 35.2966 96.2981 35.9646 96.1116 36.1246L95.7851 36.4163H88.7426C82.8101 36.4163 81.6534 36.3974 81.3829 36.2845C81.2057 36.2093 81.0564 36.1058 81.0564 36.0587C81.0564 35.9552 81.8773 34.7603 82.4836 33.9699C83.3884 32.8032 84.7503 31.1754 87.0263 28.5597C90.6641 24.3726 91.2238 23.6387 91.2238 23.093V22.7731H88.2762H85.3286L84.8342 23.2906C84.3865 23.761 84.1626 23.8927 84.0227 23.761C83.9108 23.6481 84.8715 20.9006 85.3473 19.9503C85.5805 19.4987 86.0748 18.9341 86.5879 18.5389C87.0169 18.2096 87.558 18.172 92.1379 18.172C95.3653 18.1626 96.7086 18.1908 96.8485 18.2661Z" fill="#FF0000" />
    <path d="M49.6305 20.4683C48.9403 20.9764 48.2127 22.2654 47.3825 24.4201C46.7855 25.982 46.7855 26.0103 47.3732 25.9444C47.625 25.9162 48.194 25.775 48.6324 25.6433C49.5559 25.361 49.4813 25.4457 50.2088 23.6674C51.0204 21.6538 51.2349 20.5436 50.8431 20.3272C50.5167 20.1578 49.957 20.2142 49.6305 20.4683Z" fill="#FF0000" />
  </g>
  <defs>
    <clipPath id="clip0_2635_65682">
      <rect width="110" height="45" fill="white" />
    </clipPath>
  </defs>
</svg>