<svg width="156" height="39" viewBox="0 0 156 39" fill="none" xmlns="http://www.w3.org/2000/svg">
  <path d="M51.0115 18.0962C51.5575 18.3302 52.0255 18.5642 52.4935 19.0322C52.8835 19.4222 53.2735 19.8902 53.4295 20.4362C53.6635 20.9822 53.7415 21.5282 53.7415 22.1522C53.7415 22.7762 53.5855 23.3222 53.4295 23.8682C53.1175 24.4142 52.8835 24.8042 52.4935 25.2722C52.1035 25.6622 51.5575 25.9742 51.0115 26.2082C50.4655 26.3642 49.8415 26.5202 49.1395 26.5202H42.3535V12.5582H52.7275V15.2882H45.2395V17.7842H49.1395C49.7635 17.7842 50.3875 17.8622 51.0115 18.0962ZM50.5435 20.8262C50.2315 20.5142 49.6855 20.4362 49.0615 20.4362H45.1615V23.9462H49.0615C49.6855 23.9462 50.1535 23.7902 50.5435 23.5562C50.9335 23.3222 51.0895 22.8542 51.0895 22.3082C51.0895 21.5282 50.8555 21.1382 50.5435 20.8262ZM59.1235 26.4422H56.3935V12.5582H59.1235V18.4082L63.9595 12.5582H67.3915L61.8535 19.2662L68.5615 26.5202H64.9735L59.1235 20.2802V26.4422V26.4422ZM72.7735 26.0522C71.8375 25.7402 71.1355 25.1162 70.5115 24.4922C69.8875 23.8682 69.3415 23.0882 68.9515 22.2302C68.6395 21.2942 68.4055 20.4362 68.4055 19.4222C68.4055 18.4862 68.6395 17.4722 68.9515 16.6142C69.2635 15.6782 69.8875 14.9762 70.5115 14.3522C71.1355 13.7282 71.9155 13.1822 72.7735 12.7922C73.6315 12.4802 74.5675 12.3242 75.6595 12.3242C76.4395 12.3242 77.2195 12.4802 77.9215 12.6362C78.6235 12.9482 79.3255 13.1822 79.9495 13.6502C80.4955 14.0402 81.0415 14.5862 81.5095 15.2102C81.8995 15.8342 82.2895 16.5362 82.4455 17.2382H79.4035C79.2475 16.9262 79.0915 16.5362 78.8575 16.3022C78.5455 15.9902 78.3115 15.8342 77.9215 15.6002C77.6095 15.3662 77.2195 15.2882 76.9075 15.2102C76.5955 15.1322 76.1275 15.0542 75.7375 15.0542C75.0355 15.0542 74.4895 15.2102 73.9435 15.3662C73.3975 15.5222 72.9295 15.9122 72.5395 16.3022C72.1495 16.6922 71.8375 17.2382 71.6035 17.7062C71.3695 18.2522 71.2915 18.7982 71.2915 19.4222C71.2915 20.0462 71.3695 20.5922 71.6035 21.1382C71.8375 21.6842 72.0715 22.0742 72.5395 22.5422C73.0075 23.0102 73.3975 23.2442 73.9435 23.4782C74.4115 23.7122 75.0355 23.7902 75.7375 23.7902C76.1275 23.7902 76.5175 23.7122 76.9075 23.6342C77.2195 23.5562 77.6095 23.3222 77.9215 23.2442C78.2335 23.0102 78.5455 22.8542 78.8575 22.5422C79.1695 22.2302 79.2475 21.9962 79.4035 21.6062H82.4455C82.2115 22.3862 81.9775 23.0102 81.5095 23.6342C81.1195 24.2582 80.5735 24.7262 79.9495 25.1942C79.3255 25.5842 78.7015 25.9742 77.9215 26.2082C77.2195 26.5202 76.4395 26.5202 75.6595 26.5202C74.5675 26.6762 73.5535 26.5202 72.7735 26.0522ZM90.0895 18.5642V14.0402H96.7195V12.6362H88.6075V26.3642H93.4435C96.0955 26.3642 98.0455 25.0382 98.0455 22.4642C98.0455 19.8122 96.0955 18.4862 93.4435 18.4862L90.0895 18.5642ZM96.5635 22.4642C96.5635 24.1022 95.4715 25.0382 93.4435 25.0382H90.0895V19.8902H93.4435C95.4715 19.8902 96.5635 20.8262 96.5635 22.4642V22.4642ZM98.7475 26.4422H100.308L102.18 22.2302H108.732L110.682 26.4422H112.242L106.08 12.7142H104.91L98.7475 26.4422V26.4422ZM105.456 14.7422L108.186 20.7482H102.804L105.456 14.7422ZM114.192 26.4422H115.674V20.1242H123.708V26.4422H125.19V12.6362H123.708V18.6422H115.674V12.6362H114.192V26.4422ZM138.216 26.4422H140.4L131.976 19.1882L138.762 12.6362H136.734L130.416 18.6422V12.6362H128.934V26.3642H130.416V19.7342L138.216 26.4422Z" fill="#006DF0" />
  <path d="M26.2076 30.1076C32.0662 30.1076 36.8156 25.3582 36.8156 19.4996C36.8156 13.641 32.0662 8.8916 26.2076 8.8916C20.349 8.8916 15.5996 13.641 15.5996 19.4996C15.5996 25.3582 20.349 30.1076 26.2076 30.1076Z" fill="url(#paint0_linear_2635_65689)" />
  <path d="M26.2076 30.1076C32.0662 30.1076 36.8156 25.3582 36.8156 19.4996C36.8156 13.641 32.0662 8.8916 26.2076 8.8916C20.349 8.8916 15.5996 13.641 15.5996 19.4996C15.5996 25.3582 20.349 30.1076 26.2076 30.1076Z" fill="url(#paint1_linear_2635_65689)" />
  <path d="M26.2078 8.96973C24.2578 8.96973 22.3859 9.51573 20.8259 10.4517C20.6699 10.5297 20.5139 10.6857 20.4359 10.7637C16.8479 13.9617 17.3158 19.7337 21.2938 23.6337C25.2718 27.5337 31.3559 28.1577 34.9439 24.9597C35.3339 24.6477 35.7238 24.1797 35.9578 23.7897C36.5038 22.4637 36.8159 21.0597 36.8159 19.5777C36.8159 13.6497 32.0578 8.96973 26.2078 8.96973V8.96973Z" fill="url(#paint2_radial_2635_65689)" />
  <path d="M35.8804 19.1876C36.3484 18.4856 36.5044 17.6276 36.4264 16.7696C35.6464 13.9616 33.7744 11.6216 31.3564 10.2176C31.2784 10.1396 31.2004 10.1396 31.1224 10.0616C29.6404 9.2816 28.0024 8.8916 26.2084 8.8916C24.7264 8.8916 23.3224 9.2036 22.0744 9.7496C21.7624 10.0616 21.3724 10.3736 21.1384 10.7636C19.5004 13.2596 21.4504 17.2376 25.5064 19.4996C29.4844 21.9176 34.1644 21.6836 35.8804 19.1876V19.1876Z" fill="url(#paint3_radial_2635_65689)" />
  <defs>
    <linearGradient id="paint0_linear_2635_65689" x1="26.1795" y1="30.3189" x2="26.1795" y2="10.6123" gradientUnits="userSpaceOnUse">
      <stop stop-color="#4581E9" />
      <stop offset="0.4792" stop-color="#80ACF0" />
      <stop offset="1" stop-color="white" />
    </linearGradient>
    <linearGradient id="paint1_linear_2635_65689" x1="40.4123" y1="30.4907" x2="22.2717" y2="16.5263" gradientUnits="userSpaceOnUse">
      <stop stop-color="#4581E9" />
      <stop offset="1" stop-color="#4581E9" stop-opacity="0" />
    </linearGradient>
    <radialGradient id="paint2_radial_2635_65689" cx="0" cy="0" r="1" gradientTransform="matrix(-21.0129 -15.2701 -21.6285 29.7635 38.2996 25.3584)" gradientUnits="userSpaceOnUse">
      <stop offset="0.0969745" stop-color="#4581E9" />
      <stop offset="0.4599" stop-color="#80ACF0" />
      <stop offset="0.7942" stop-color="#F0F6FD" />
    </radialGradient>
    <radialGradient id="paint3_radial_2635_65689" cx="0" cy="0" r="1" gradientTransform="matrix(-23.0347 1.56604 1.86734 27.4652 48.3502 12.113)" gradientUnits="userSpaceOnUse">
      <stop stop-color="#4581E9" />
      <stop offset="0.5368" stop-color="#87B1F0" />
      <stop offset="0.8057" stop-color="#CCE0FD" />
      <stop offset="1" stop-color="#F0F6FD" />
    </radialGradient>
  </defs>
</svg>