<svg width="87" height="60" viewBox="0 0 87 60" fill="none" xmlns="http://www.w3.org/2000/svg">
  <path d="M56.8731 39.2043L39.1719 8.44096L51.8885 1.13672L73.8999 39.2043H56.8731Z" fill="black" />
  <path d="M9.72461 34.8946L22.4412 27.541L29.1697 39.2047H12.1923L9.72461 34.8946Z" fill="black" />
  <path d="M34.6807 58.8298H38.2999V44.1885H34.6807V58.8298Z" fill="black" />
  <path d="M80.0362 59.1759C75.9892 59.1759 73.5545 57.0866 73.4229 54.1419H77.2395C77.2395 55.0632 77.8153 56.4121 80.2829 56.4615C81.928 56.4615 82.7012 55.4909 82.7012 54.767C82.6025 53.6155 81.1548 53.5168 79.6084 53.27C78.062 53.0232 76.746 52.7436 75.7918 52.25C74.5744 51.6249 73.7519 50.2759 73.7519 48.7295C73.7519 46.1138 76.0221 44.041 79.8058 44.041C83.4744 44.041 85.794 45.9658 86.0408 48.8282H82.3557C82.3228 48.055 82.1748 46.8377 80.0032 46.8377C78.5391 46.8377 77.5685 47.1338 77.4862 48.1538C77.4862 49.6508 80.5297 49.5521 82.8986 50.1772C85.1688 50.753 86.6165 52.1678 86.6165 54.1419C86.6165 57.7776 83.6718 59.1759 80.0362 59.1759Z" fill="black" />
  <path d="M24.6289 21.8322L37.3455 14.4951L51.6085 39.2045H38.2997V42.8237H34.6804V39.188L24.6289 21.8322Z" fill="black" />
  <path d="M24.9584 59.1756C20.747 59.1756 17.3252 55.7373 17.3252 51.5752C17.3252 47.3638 20.747 44.0407 24.9584 44.0407C26.5542 44.0407 28.0019 44.4684 29.2686 45.3403V39.2041H32.8878V58.8301H29.2686V57.8595C28.0019 58.6821 26.5542 59.1756 24.9584 59.1756ZM20.7964 51.5752C20.7964 53.8455 22.7376 55.7373 25.0571 55.7373C27.3274 55.7373 29.2686 53.8455 29.2686 51.5752C29.2686 49.305 27.3274 47.3638 25.0571 47.3638C22.7376 47.3638 20.7964 49.305 20.7964 51.5752Z" fill="black" />
  <path d="M51.7071 39.2041H55.2769V58.8301H51.7071V57.8595C50.4897 58.6821 48.9927 59.1756 47.3476 59.1756C43.1855 59.1756 39.7637 55.7373 39.7637 51.5752C39.7637 47.3638 43.1855 44.0407 47.3476 44.0407C48.9927 44.0407 50.4403 44.4684 51.7071 45.3403V39.2041ZM43.2842 51.5752C43.2842 53.8455 45.2254 55.7373 47.4463 55.7373C49.7659 55.7373 51.7071 53.8455 51.7071 51.5752C51.7071 49.305 49.7659 47.3638 47.4463 47.3638C45.2254 47.3638 43.2842 49.305 43.2842 51.5752Z" fill="black" />
  <path d="M64.078 59.1759C59.9324 59.1759 56.4941 55.7376 56.4941 51.5756C56.4941 47.3641 59.9324 44.041 64.078 44.041C65.6738 44.041 67.1708 44.4687 68.3882 45.3406V44.1726H72.0074V58.8304H68.3882V57.8598C67.1708 58.6824 65.7231 59.1759 64.078 59.1759ZM60.0147 51.5756C60.0147 53.8458 61.9559 55.7376 64.2261 55.7376C66.4963 55.7376 68.3882 53.8458 68.3882 51.5756C68.3882 49.3053 66.4963 47.3641 64.2261 47.3641C61.9559 47.3641 60.0147 49.3053 60.0147 51.5756Z" fill="black" />
  <path d="M4.01592 51.5756C4.01592 53.8458 5.95714 55.7376 8.22737 55.7376C10.547 55.7376 12.4882 53.8458 12.4882 51.5756C12.4882 49.3053 10.547 47.3641 8.22737 47.3641C5.95714 47.3641 4.01592 49.3053 4.01592 51.5756ZM8.12866 59.1759C3.96657 59.1759 0.52832 55.7376 0.52832 51.5756C0.52832 47.3641 3.96657 44.041 8.12866 44.041C9.72441 44.041 11.2214 44.4687 12.4882 45.3406V44.1726H16.058V58.8304H12.4882V57.8598C11.2708 58.6824 9.77376 59.1759 8.12866 59.1759Z" fill="black" />
</svg>