<svg width="112" height="25" viewBox="0 0 112 25" fill="none" xmlns="http://www.w3.org/2000/svg">
  <g clip-path="url(#clip0_2635_65724)">
    <path d="M13.0456 19.0448C15.9414 18.6698 18.2807 16.2807 18.6502 13.3208C18.7792 12.3105 18.6792 11.2835 18.358 10.319C18.0368 9.35441 17.5029 8.47814 16.7975 7.75774C16.0921 7.03733 15.2341 6.49206 14.2897 6.16399C13.3453 5.83591 12.3397 5.73382 11.3506 5.86557C8.45242 6.24293 6.11312 8.63208 5.74594 11.5896C5.61694 12.5999 5.71691 13.6269 6.03814 14.5914C6.35936 15.556 6.89326 16.4322 7.59863 17.1526C8.304 17.873 9.16199 18.4183 10.1064 18.7464C11.0508 19.0745 12.0564 19.1766 13.0456 19.0448ZM13.4405 0.0636792C16.2285 0.363431 18.8312 1.6316 20.8135 3.65615C22.7958 5.6807 24.0375 8.33891 24.331 11.1863C25.0954 19.0637 18.6664 25.6297 10.9511 24.8491C8.16347 24.5488 5.56127 23.2804 3.57943 21.2559C1.59759 19.2314 0.356213 16.5735 0.0628098 13.7264C-0.701561 5.84906 5.72747 -0.716981 13.4405 0.0636792ZM30.8755 0.556604H48.7285C49.4075 0.556604 49.7908 1.34906 49.3821 1.90094L37.0297 18.5448H46.7079C48.4722 18.5448 49.8601 20.184 49.4952 22.0519C49.2273 23.4222 47.9688 24.3561 46.6017 24.3561H27.213C26.541 24.3561 26.16 23.5708 26.5641 23.0259L38.9257 6.36792H30.9817C29.6146 6.36792 28.3561 5.4316 28.0882 4.06368C27.721 2.19575 29.1112 0.556604 30.8755 0.556604ZM108.354 0.622642C110.197 0.226415 111.818 1.65094 111.818 3.46226V23.5165C111.818 24.217 111.026 24.6061 110.49 24.1722L95.0896 11.6934V21.4552C95.0896 23.2665 93.4685 24.691 91.6257 24.2948C90.3048 24.0118 89.3996 22.7547 89.3996 21.3774V1.39387C89.3996 0.693396 90.1916 0.304245 90.7274 0.738208L106.13 13.217V3.54009C106.13 2.16274 107.038 0.908019 108.356 0.622642H108.354ZM68.2535 0C77.6823 0 85.326 5.57547 85.326 12.4528C85.326 19.3302 77.6823 24.9057 68.2535 24.9057C58.8247 24.9057 51.181 19.3302 51.181 12.4528C51.181 5.57547 58.8247 0 68.2535 0ZM68.2535 5.81132C61.739 5.81132 56.8711 9.3184 56.8711 12.4528C56.8711 15.5873 61.739 19.0943 68.2535 19.0943C74.768 19.0943 79.6359 15.5896 79.6359 12.4528C79.6359 9.31604 74.768 5.81132 68.2535 5.81132Z" fill="#005BFF" />
  </g>
  <defs>
    <clipPath id="clip0_2635_65724">
      <rect width="112" height="25" fill="white" />
    </clipPath>
  </defs>
</svg>